<?xml version="1.0" encoding="utf-8"?>
<!-- Generator: Adobe Illustrator 26.0.0, SVG Export Plug-In . SVG Version: 6.00 Build 0)  -->
<svg version="1.1" xmlns="http://www.w3.org/2000/svg" xmlns:xlink="http://www.w3.org/1999/xlink" x="0px" y="0px"
	 viewBox="0 0 1920 1080" style="enable-background:new 0 0 1920 1080;" xml:space="preserve">
<style type="text/css">
	.st0{clip-path:url(#SVGID_00000036956042727260179650000000893265258361548928_);fill:#FFFEEB;}
	.st1{clip-path:url(#SVGID_00000036956042727260179650000000893265258361548928_);fill:#FAFFCC;}
	.st2{clip-path:url(#SVGID_00000036956042727260179650000000893265258361548928_);fill:#DDE991;}
	.st3{clip-path:url(#SVGID_00000036956042727260179650000000893265258361548928_);}
	.st4{fill:#421E15;}
	.st5{fill:#37B34A;}
	.st6{fill:none;stroke:#009345;stroke-width:1.3468;stroke-linecap:round;stroke-linejoin:round;stroke-miterlimit:10;}
	.st7{fill:none;stroke:#009345;stroke-width:1.5648;stroke-linecap:round;stroke-linejoin:round;stroke-miterlimit:10;}
	.st8{fill:#009345;}
	.st9{fill:none;stroke:#004E26;stroke-width:1.8461;stroke-linecap:round;stroke-linejoin:round;stroke-miterlimit:10;}
	.st10{fill:none;stroke:#009345;stroke-width:1.5636;stroke-linecap:round;stroke-linejoin:round;stroke-miterlimit:10;}
	.st11{fill:none;stroke:#009345;stroke-width:1.1179;stroke-linecap:round;stroke-linejoin:round;stroke-miterlimit:10;}
	.st12{fill:none;stroke:#009345;stroke-width:1.3191;stroke-linecap:round;stroke-linejoin:round;stroke-miterlimit:10;}
	.st13{fill:none;stroke:#004E26;stroke-width:1.2099;stroke-linecap:round;stroke-linejoin:round;stroke-miterlimit:10;}
	.st14{fill:none;stroke:#004E26;stroke-width:1.8819;stroke-linecap:round;stroke-linejoin:round;stroke-miterlimit:10;}
	.st15{clip-path:url(#SVGID_00000036956042727260179650000000893265258361548928_);fill:#FFFFFF;}
	.st16{clip-path:url(#SVGID_00000134951390647240756540000017421681083777247901_);}
	.st17{fill:none;stroke:#F7A179;stroke-width:2;stroke-linecap:round;stroke-linejoin:round;stroke-miterlimit:10;}
	.st18{fill:none;stroke:#3CB54A;stroke-width:2;stroke-miterlimit:10;}
	
		.st19{clip-path:url(#SVGID_00000036956042727260179650000000893265258361548928_);fill:none;stroke:#3CB54A;stroke-width:4;stroke-miterlimit:10;}
	.st20{clip-path:url(#SVGID_00000036956042727260179650000000893265258361548928_);fill:#3CB54A;}
	.st21{clip-path:url(#SVGID_00000036956042727260179650000000893265258361548928_);fill:#421E15;}
	.st22{fill:#FFFFFF;}
	.st23{fill:#F15C5A;}
	.st24{display:none;}
	.st25{display:inline;fill:none;stroke:#000200;stroke-width:9;stroke-miterlimit:10;}
	.st26{fill:#754C29;}
	.st27{fill:#603617;}
	.st28{fill:#D9A458;}
	.st29{fill:#231F20;}
	.st30{fill:#B33F33;}
	.st31{fill:#E8C81C;}
	.st32{fill:#603917;}
	.st33{fill:#FDDC0D;}
	.st34{fill:#8AC440;}
	.st35{fill:#7FB342;}
	.st36{fill:#FCE6A1;}
	.st37{fill:#A1661B;}
</style>
<g id="background">
	<g>
		<defs>
			<rect id="SVGID_1_" y="0" width="1920" height="1080"/>
		</defs>
		<clipPath id="SVGID_00000137094661013412780860000002333884602348572581_">
			<use xlink:href="#SVGID_1_"  style="overflow:visible;"/>
		</clipPath>
		
			<rect x="-7.96" y="-19.47" style="clip-path:url(#SVGID_00000137094661013412780860000002333884602348572581_);fill:#FFFEEB;" width="1935.93" height="1099.47"/>
		<path style="clip-path:url(#SVGID_00000137094661013412780860000002333884602348572581_);fill:#FAFFCC;" d="M2242.5,55.82
			c0,0-193.75,16.67-670.17,409.72c-4.96,4.09-9.92,8.12-14.87,12.09c-302.64,242.56-725.98,267.5-1056.15,64
			C308,422.49-18.31,271.01-330.19,356.76v522.48h2641.77L2242.5,55.82z"/>
		<path style="clip-path:url(#SVGID_00000137094661013412780860000002333884602348572581_);fill:#DDE991;" d="M-48.86,530.51
			c0,0,196.2-71.52,575.95,241.77c3.96,3.26,7.91,6.48,11.85,9.64c241.23,193.34,578.66,213.22,841.84,51.01
			c154.08-94.97,414.18-215.71,662.77-147.36v416.46H-62.15L-48.86,530.51z"/>
		<g style="clip-path:url(#SVGID_00000137094661013412780860000002333884602348572581_);">
			<path class="st4" d="M-81.64,1021.37c105.01-8.7,211.18-9.01,315.25,7.48s206.19,50.16,295.52,106.04
				c5.27-8.82,12.63-15.21,17.9-24.04c-89.67-64.94-202.46-87.44-311.76-105.09c-45.2-7.3-90.75-14.07-136.52-13.15
				c-7.46,0.15-15.08,0.49-22.23-1.65c-5.92-1.77-11.21-5.14-16.49-8.37c-31.51-19.28-65.41-34.65-100.67-45.65
				C-9.95,956,20.72,975.07,51.4,994.13c-66.98-7.61-136.02,3.85-196.95,32.7c8.92,8.21,22.22,10.19,34.16,8.07
				S-93.73,1022.37-81.64,1021.37z"/>
			<g>
				<path class="st5" d="M41.78,963.79c0,0-43.56-24.55-29.45-50.72c14.09-26.13,39.36-7.09,40.27,11.02
					C53.57,943.54,41.78,963.79,41.78,963.79z"/>
				<path class="st6" d="M26.04,905.65c4.96,14.08,17.48,59.34,20.09,73.17"/>
				<path class="st6" d="M32.71,925.69c0.63-1.75,1.98-3.11,3.11-4.58c2.85-3.73,4.31-8.31,5.72-12.79"/>
				<path class="st6" d="M35.43,936.49c2.31-0.69,4.2-2.36,5.82-4.15c2.9-3.22,5.16-7.02,6.61-11.1"/>
				<path class="st6" d="M39.68,949.84c2.05-1.71,4.68-2.77,6.3-4.88c1.05-1.37,1.59-3.06,2.1-4.71"/>
				<path class="st6" d="M30.35,919.6c-1.72-0.48-3.41-1.02-5.08-1.63c-0.79-0.29-1.59-0.6-2.28-1.09c-0.9-0.63-1.58-1.52-2.25-2.39
					c-0.79-1.03-1.57-2.06-2.36-3.09"/>
				<path class="st6" d="M13.74,921.02c4.23,6.71,12.2,10.88,20.13,10.54"/>
				<path class="st6" d="M19.13,935.62c4.88,5.03,11.41,8.42,18.33,9.5"/>
			</g>
			<g>
				<path class="st8" d="M61.01,957.46c0,0-33.67-59.7,1.45-80.38c35.07-20.65,51.19,19.61,39.4,41.5
					C89.2,942.07,61.01,957.46,61.01,957.46z"/>
				<path class="st9" d="M83.8,878.11c-4.17,20.03-24.02,80.55-28.15,102.45"/>
				<path class="st9" d="M76.91,904.81c3.05-0.25,6.05-1.03,8.83-2.31c4.49-2.05,8.3-5.31,12.04-8.52"/>
				<path class="st9" d="M78.08,898.79c-6.82-3.52-11.86-10.29-13.28-17.83"/>
				<path class="st9" d="M73.17,915.36c-3.88-1.66-6.71-5.03-9.4-8.29c-1.88-2.28-3.77-4.58-5.17-7.18
					c-1.41-2.6-2.32-5.54-2.08-8.49"/>
				<path class="st9" d="M70.91,924.97c5.5,0.53,11.04-1.15,15.88-3.81c4.84-2.66,9.08-6.28,13.24-9.91"/>
				<path class="st9" d="M67.6,937.67c0.46,1.03,1.7,1.4,2.81,1.6c1.84,0.33,3.72,0.52,5.57,0.27c2.56-0.34,4.93-1.49,7.26-2.63"/>
				<path class="st9" d="M68.56,931.25c-6.54-4.33-11.93-10.39-15.48-17.38c-0.66-1.31-1.28-2.74-1.09-4.2"/>
			</g>
			<g>
				<path class="st5" d="M253.12,1008.54c0,0-43.56-24.55-29.45-50.72c14.09-26.13,39.36-7.09,40.27,11.02
					C264.9,988.29,253.12,1008.54,253.12,1008.54z"/>
				<path class="st6" d="M237.37,950.4c4.96,14.08,17.48,59.34,20.09,73.17"/>
				<path class="st6" d="M244.04,970.44c0.63-1.75,1.98-3.11,3.11-4.58c2.85-3.73,4.31-8.31,5.72-12.79"/>
				<path class="st6" d="M246.77,981.24c2.31-0.69,4.2-2.36,5.82-4.15c2.9-3.22,5.16-7.02,6.61-11.1"/>
				<path class="st6" d="M251.01,994.58c2.05-1.71,4.68-2.77,6.3-4.88c1.05-1.37,1.59-3.06,2.1-4.71"/>
				<path class="st6" d="M241.68,964.34c-1.72-0.48-3.41-1.02-5.08-1.63c-0.79-0.29-1.59-0.6-2.28-1.09
					c-0.9-0.63-1.58-1.52-2.25-2.39c-0.79-1.03-1.57-2.06-2.36-3.09"/>
				<path class="st6" d="M225.07,965.77c4.23,6.71,12.2,10.88,20.13,10.54"/>
				<path class="st6" d="M230.47,980.37c4.88,5.03,11.41,8.42,18.33,9.5"/>
			</g>
			<g>
				<path class="st8" d="M272.34,1002.21c0,0-33.67-59.7,1.45-80.38c35.07-20.65,51.19,19.61,39.4,41.5
					C300.54,986.82,272.34,1002.21,272.34,1002.21z"/>
				<path class="st9" d="M295.13,922.85c-4.17,20.03-24.02,80.55-28.15,102.45"/>
				<path class="st9" d="M288.24,949.56c3.05-0.25,6.05-1.03,8.83-2.31c4.49-2.05,8.3-5.31,12.04-8.52"/>
				<path class="st9" d="M289.41,943.54c-6.82-3.52-11.86-10.29-13.28-17.83"/>
				<path class="st9" d="M284.5,960.11c-3.88-1.66-6.71-5.03-9.4-8.29c-1.88-2.28-3.77-4.58-5.17-7.18
					c-1.41-2.6-2.32-5.54-2.08-8.49"/>
				<path class="st9" d="M282.24,969.72c5.5,0.53,11.04-1.15,15.88-3.81s9.08-6.28,13.24-9.91"/>
				<path class="st9" d="M278.93,982.42c0.46,1.03,1.7,1.4,2.81,1.6c1.84,0.33,3.72,0.52,5.57,0.27c2.56-0.34,4.93-1.49,7.26-2.63"
					/>
				<path class="st9" d="M279.89,975.99c-6.54-4.33-11.93-10.39-15.48-17.38c-0.66-1.31-1.28-2.74-1.09-4.2"/>
			</g>
			<g>
				<path class="st5" d="M167.72,997.52c0,0-49.43,7.58-54.48-21.72c-5.05-29.26,26.59-29.87,38.48-16.19
					C164.49,974.31,167.72,997.52,167.72,997.52z"/>
				<path class="st6" d="M119.44,961.5c12.59,8.01,50.39,35.89,60.98,45.16"/>
				<path class="st6" d="M137.06,973.15c-0.59-1.76-0.36-3.67-0.38-5.53c-0.06-4.69-1.74-9.2-3.4-13.59"/>
				<path class="st6" d="M145.87,979.96c1.39-1.97,1.85-4.45,2.01-6.86c0.29-4.33-0.27-8.71-1.65-12.82"/>
				<path class="st6" d="M157.45,987.84c0.56-2.61,1.97-5.06,1.94-7.73c-0.02-1.73-0.64-3.39-1.25-5"/>
				<path class="st6" d="M131.44,969.81c-1.64,0.69-3.31,1.3-5.01,1.85c-0.8,0.26-1.62,0.51-2.47,0.56
					c-1.1,0.06-2.18-0.22-3.25-0.49c-1.26-0.33-2.51-0.65-3.77-0.98"/>
				<path class="st6" d="M119.25,981.18c7.47,2.66,16.32,1.03,22.34-4.13"/>
				<path class="st6" d="M132.51,989.34c6.94,0.95,14.17-0.42,20.29-3.84"/>
			</g>
			<g>
				<path class="st8" d="M178.94,980.67c0,0-63.34-26.18-48.48-64.13c14.84-37.9,52.38-16.17,56.61,8.32
					C191.62,951.16,178.94,980.67,178.94,980.67z"/>
				<path class="st9" d="M147.88,904.17c9.09,18.33,30.83,78.19,41.1,97.97"/>
				<path class="st9" d="M158.94,929.43c2.24-2.08,4.12-4.55,5.52-7.27c2.26-4.39,3.25-9.3,4.21-14.14"/>
				<path class="st9" d="M156.15,923.98c-7.54,1.44-15.68-0.78-21.46-5.83"/>
				<path class="st9" d="M162.51,940.04c-4.08,1.09-8.39,0.19-12.51-0.72c-2.88-0.64-5.79-1.28-8.5-2.45
					c-2.71-1.17-5.24-2.93-6.88-5.39"/>
				<path class="st9" d="M166.67,949c4.65-2.98,7.97-7.72,10.14-12.8c2.16-5.08,3.27-10.55,4.3-15.97"/>
				<path class="st9" d="M171.91,961.03c0.99,0.53,2.2,0.05,3.2-0.48c1.65-0.87,3.25-1.89,4.55-3.23c1.8-1.85,2.96-4.22,4.09-6.55"
					/>
				<path class="st9" d="M168.7,955.38c-7.82,0.63-15.8-0.81-22.91-4.12c-1.33-0.62-2.7-1.37-3.45-2.63"/>
			</g>
			<g>
				<path class="st5" d="M112.21,1023.77c0,0,13.55,48.13-14.92,56.72c-28.43,8.58-32.89-22.75-20.75-36.22
					C89.56,1029.81,112.21,1023.77,112.21,1023.77z"/>
				<path class="st6" d="M82.34,1076.08c6.42-13.48,29.48-54.39,37.39-66.03"/>
				<path class="st6" d="M91.76,1057.18c-1.68,0.8-3.6,0.8-5.44,1.05c-4.65,0.63-8.92,2.85-13.08,5.03"/>
				<path class="st6" d="M97.44,1047.6c-2.13-1.14-4.64-1.29-7.05-1.16c-4.33,0.24-8.61,1.33-12.52,3.2"/>
				<path class="st6" d="M103.85,1035.15c-2.66-0.24-5.27-1.34-7.91-0.99c-1.71,0.23-3.28,1.05-4.81,1.85"/>
				<path class="st6" d="M89.13,1063.16c0.88,1.55,1.7,3.13,2.45,4.74c0.36,0.77,0.7,1.55,0.85,2.38c0.19,1.08,0.05,2.19-0.09,3.28
					c-0.17,1.29-0.34,2.57-0.51,3.86"/>
				<path class="st6" d="M101.9,1073.87c1.73-7.74-0.97-16.32-6.82-21.67"/>
				<path class="st6" d="M108.38,1059.72c0.09-7-2.15-14.02-6.28-19.67"/>
			</g>
			<g>
				<path class="st8" d="M94.11,1014.69c0,0-18.26,66.06-57.74,55.94c-39.42-10.11-22.43-50.02,1.36-57.21
					C63.28,1005.71,94.11,1014.69,94.11,1014.69z"/>
				<path class="st9" d="M21.97,1054.84c17.08-11.25,73.86-40.12,92.24-52.73"/>
				<path class="st9" d="M45.7,1040.78c-2.34-1.97-5.02-3.54-7.89-4.6c-4.63-1.71-9.62-2.09-14.55-2.45"/>
				<path class="st9" d="M40.62,1044.22c2.35,7.3,1.14,15.66-3.17,22.01"/>
				<path class="st9" d="M55.79,1035.95c1.58,3.91,1.21,8.3,0.81,12.51c-0.28,2.94-0.56,5.9-1.4,8.74
					c-0.84,2.83-2.27,5.56-4.51,7.48"/>
				<path class="st9" d="M64.18,1030.73c-3.52-4.26-8.63-6.97-13.94-8.5c-5.31-1.53-10.86-1.96-16.38-2.32"/>
				<path class="st9" d="M75.48,1024.06c0.4-1.05-0.22-2.19-0.86-3.12c-1.07-1.53-2.27-2.99-3.76-4.12c-2.06-1.56-4.55-2.42-7-3.26"
					/>
				<path class="st9" d="M70.27,1027.94c1.58,7.69,1.12,15.78-1.3,23.24c-0.45,1.4-1.03,2.85-2.19,3.75"/>
			</g>
			<g>
				<path class="st10" d="M365.7,1147.16c6.52-16.06,30.46-65.04,38.84-79.08"/>
			</g>
			<g>
				<path class="st5" d="M427.69,1057.84c0,0,20.32-36.19,42.06-24.51c21.71,11.66,5.93,32.66-9.1,33.44
					C444.51,1067.6,427.69,1057.84,427.69,1057.84z"/>
				<path class="st11" d="M475.93,1044.7c-11.68,4.14-49.23,14.59-60.71,16.77"/>
				<path class="st11" d="M459.3,1050.26c1.45,0.52,2.58,1.64,3.81,2.58c3.1,2.36,6.9,3.57,10.62,4.73"/>
				<path class="st11" d="M450.34,1052.54c0.58,1.92,1.96,3.48,3.45,4.82c2.68,2.4,5.83,4.27,9.22,5.48"/>
				<path class="st11" d="M439.27,1056.08c1.42,1.7,2.3,3.88,4.06,5.23c1.14,0.87,2.54,1.31,3.91,1.74"/>
				<path class="st11" d="M464.36,1048.29c0.39-1.42,0.84-2.83,1.35-4.22c0.24-0.66,0.5-1.32,0.9-1.9c0.52-0.75,1.26-1.32,1.98-1.87
					c0.85-0.65,1.71-1.31,2.56-1.96"/>
				<path class="st11" d="M463.15,1034.51c-5.56,3.52-9.02,10.14-8.73,16.72"/>
				<path class="st11" d="M451.04,1039.01c-4.17,4.05-6.97,9.48-7.86,15.23"/>
			</g>
			<g>
				<path class="st5" d="M289.53,1040.5c0,0,28.34,39.95,4.9,57.24c-23.4,17.27-37.83-10.16-31.07-26.59
					C270.63,1053.52,289.53,1040.5,289.53,1040.5z"/>
				<path class="st12" d="M279.19,1098.59c1.48-14.54,9.3-59.87,12.77-73.22"/>
				<path class="st12" d="M281.66,1078.05c-1.28,1.29-3.06,1.93-4.67,2.76c-4.08,2.11-7.29,5.56-10.41,8.94"/>
				<path class="st12" d="M283.75,1067.34c-2.34-0.35-4.71,0.33-6.89,1.25c-3.91,1.64-7.5,4.06-10.5,7.07"/>
				<path class="st12" d="M285.57,1053.75c-2.53,0.66-5.3,0.5-7.62,1.69c-1.51,0.77-2.69,2.05-3.83,3.29"/>
				<path class="st12" d="M296.51,1090.11c-0.95-7.71-6.26-14.74-13.43-17.75"/>
				<path class="st12" d="M297.83,1074.92c-2.22-6.49-6.59-12.22-12.27-16.08"/>
			</g>
			<g>
				<path class="st8" d="M386.51,1068.76c0,0-9.41,43.92-35.63,38.82c-26.18-5.1-16.6-31.86-1.31-37.48
					C365.99,1064.07,386.51,1068.76,386.51,1068.76z"/>
				<path class="st13" d="M340.85,1097.81c10.75-8.02,46.78-29.09,58.32-38.05"/>
				<path class="st13" d="M367.54,1080.41c-2.47-2.65-5.91-4.23-9.45-5.03c-3.53-0.8-7.18-0.87-10.81-0.89"/>
				<path class="st13" d="M374.68,1075.61c0.22-0.7-0.23-1.43-0.68-2.01c-0.76-0.96-1.6-1.87-2.62-2.55
					c-1.41-0.94-3.07-1.41-4.7-1.86"/>
				<path class="st13" d="M371.41,1078.35c1.33,4.97,1.34,10.28,0.04,15.25c-0.24,0.93-0.56,1.9-1.29,2.53"/>
			</g>
			<g>
				<path class="st8" d="M260.73,1036.6c0,0-14.63,68.32-55.42,60.38c-40.72-7.93-25.82-49.56-2.04-58.3
					C228.81,1029.29,260.73,1036.6,260.73,1036.6z"/>
				<path class="st14" d="M189.71,1081.77c16.71-12.47,72.76-45.25,90.71-59.19"/>
				<path class="st14" d="M213.02,1066.04c-2.5-1.87-5.32-3.3-8.3-4.21c-4.81-1.46-9.92-1.55-14.95-1.63"/>
				<path class="st14" d="M208.06,1069.85c2.82,7.29,2.1,15.87-1.91,22.58"/>
				<path class="st14" d="M223,1060.52c1.84,3.89,1.72,8.38,1.57,12.68c-0.11,3.01-0.22,6.04-0.9,8.97
					c-0.68,2.93-1.98,5.8-4.14,7.89"/>
				<path class="st14" d="M231.22,1054.71c-3.84-4.12-9.2-6.58-14.7-7.82c-5.49-1.24-11.17-1.35-16.81-1.38"/>
				<path class="st14" d="M242.33,1047.25c0.34-1.09-0.36-2.22-1.06-3.12c-1.18-1.5-2.49-2.91-4.07-3.97
					c-2.19-1.47-4.78-2.19-7.31-2.9"/>
				<path class="st14" d="M237.25,1051.51c2.06,7.73,2.09,15.99,0.07,23.73c-0.38,1.45-0.88,2.96-2.01,3.94"/>
			</g>
		</g>
		<g style="clip-path:url(#SVGID_00000137094661013412780860000002333884602348572581_);">
			<path class="st4" d="M1880.14,1021.37c-105.01-8.7-211.18-9.01-315.25,7.48s-206.19,50.16-295.52,106.04
				c-5.27-8.82-12.63-15.21-17.9-24.04c89.67-64.94,202.46-87.44,311.76-105.09c45.2-7.3,90.75-14.07,136.52-13.15
				c7.46,0.15,15.08,0.49,22.23-1.65c5.92-1.77,11.21-5.14,16.49-8.37c31.51-19.28,65.41-34.65,100.67-45.65
				c-30.68,19.06-61.36,38.12-92.03,57.19c66.98-7.61,136.02,3.85,196.95,32.7c-8.92,8.21-22.22,10.19-34.16,8.07
				S1892.23,1022.37,1880.14,1021.37z"/>
			<g>
				<path class="st5" d="M1756.72,963.79c0,0,43.56-24.55,29.45-50.72c-14.09-26.13-39.36-7.09-40.27,11.02
					C1744.93,943.54,1756.72,963.79,1756.72,963.79z"/>
				<path class="st6" d="M1772.46,905.65c-4.96,14.08-17.48,59.34-20.09,73.17"/>
				<path class="st6" d="M1765.79,925.69c-0.63-1.75-1.98-3.11-3.11-4.58c-2.85-3.73-4.31-8.31-5.72-12.79"/>
				<path class="st6" d="M1763.07,936.49c-2.31-0.69-4.2-2.36-5.82-4.15c-2.9-3.22-5.16-7.02-6.61-11.1"/>
				<path class="st6" d="M1758.82,949.84c-2.05-1.71-4.68-2.77-6.3-4.88c-1.05-1.37-1.59-3.06-2.1-4.71"/>
				<path class="st6" d="M1768.16,919.6c1.72-0.48,3.41-1.02,5.08-1.63c0.79-0.29,1.59-0.6,2.28-1.09c0.9-0.63,1.58-1.52,2.25-2.39
					c0.79-1.03,1.57-2.06,2.36-3.09"/>
				<path class="st6" d="M1784.76,921.02c-4.23,6.71-12.2,10.88-20.13,10.54"/>
				<path class="st6" d="M1779.37,935.62c-4.88,5.03-11.41,8.42-18.33,9.5"/>
			</g>
			<g>
				<path class="st5" d="M1841.16,986.67c0,0,55.28,21.95,68.95-10.68c13.64-32.58-22.87-41.71-40.3-29.01
					C1851.09,960.62,1841.16,986.67,1841.16,986.67z"/>
				<path class="st7" d="M1906.72,957.76c-16.73,5.93-67.97,28.19-82.72,36.12"/>
				<path class="st7" d="M1883.2,966.58c1.15-1.88,1.39-4.16,1.92-6.3c1.32-5.43,4.46-10.2,7.56-14.85"/>
				<path class="st7" d="M1871.17,972.13c-1.09-2.66-0.96-5.65-0.51-8.48c0.82-5.09,2.63-10.02,5.32-14.42"/>
				<path class="st7" d="M1855.65,978.18c0.05-3.17-0.93-6.4-0.19-9.48c0.48-2,1.64-3.76,2.78-5.47"/>
				<path class="st7" d="M1890.6,964.2c1.72,1.23,3.49,2.39,5.31,3.48c0.86,0.52,1.75,1.02,2.71,1.3c1.26,0.36,2.59,0.33,3.89,0.29
					c1.54-0.04,3.08-0.09,4.63-0.13"/>
				<path class="st7" d="M1901.7,980.63c-9.37,1.1-19.19-3.15-24.8-10.74"/>
				<path class="st7" d="M1884.16,986.56c-8.3-0.75-16.32-4.26-22.5-9.85"/>
			</g>
			<g>
				<path class="st8" d="M1737.49,957.46c0,0,33.67-59.7-1.45-80.38c-35.07-20.65-51.19,19.61-39.4,41.5
					C1709.3,942.07,1737.49,957.46,1737.49,957.46z"/>
				<path class="st9" d="M1714.7,878.11c4.17,20.03,24.02,80.55,28.15,102.45"/>
				<path class="st9" d="M1721.59,904.81c-3.05-0.25-6.05-1.03-8.83-2.31c-4.49-2.05-8.3-5.31-12.04-8.52"/>
				<path class="st9" d="M1720.42,898.79c6.82-3.52,11.86-10.29,13.28-17.83"/>
				<path class="st9" d="M1725.33,915.36c3.88-1.66,6.71-5.03,9.4-8.29c1.88-2.28,3.77-4.58,5.17-7.18c1.41-2.6,2.32-5.54,2.08-8.49
					"/>
				<path class="st9" d="M1727.59,924.97c-5.5,0.53-11.04-1.15-15.88-3.81s-9.08-6.28-13.24-9.91"/>
				<path class="st9" d="M1730.9,937.67c-0.46,1.03-1.7,1.4-2.81,1.6c-1.84,0.33-3.72,0.52-5.57,0.27
					c-2.56-0.34-4.93-1.49-7.26-2.63"/>
				<path class="st9" d="M1729.94,931.25c6.54-4.33,11.93-10.39,15.48-17.38c0.66-1.31,1.28-2.74,1.09-4.2"/>
			</g>
			<g>
				<path class="st5" d="M1545.39,1008.54c0,0,43.56-24.55,29.45-50.72c-14.09-26.13-39.36-7.09-40.27,11.02
					C1533.6,988.29,1545.39,1008.54,1545.39,1008.54z"/>
				<path class="st6" d="M1561.13,950.4c-4.96,14.08-17.48,59.34-20.09,73.17"/>
				<path class="st6" d="M1554.46,970.44c-0.63-1.75-1.98-3.11-3.11-4.58c-2.85-3.73-4.31-8.31-5.72-12.79"/>
				<path class="st6" d="M1551.74,981.24c-2.31-0.69-4.2-2.36-5.82-4.15c-2.9-3.22-5.16-7.02-6.61-11.1"/>
				<path class="st6" d="M1547.49,994.58c-2.05-1.71-4.68-2.77-6.3-4.88c-1.05-1.37-1.59-3.06-2.1-4.71"/>
				<path class="st6" d="M1556.82,964.34c1.72-0.48,3.41-1.02,5.08-1.63c0.79-0.29,1.59-0.6,2.29-1.09c0.9-0.63,1.58-1.52,2.25-2.39
					c0.79-1.03,1.57-2.06,2.36-3.09"/>
				<path class="st6" d="M1573.43,965.77c-4.23,6.71-12.2,10.88-20.13,10.54"/>
				<path class="st6" d="M1568.04,980.37c-4.88,5.03-11.41,8.42-18.33,9.5"/>
			</g>
			<g>
				<path class="st8" d="M1526.16,1002.21c0,0,33.67-59.7-1.45-80.38c-35.07-20.65-51.19,19.61-39.4,41.5
					C1497.97,986.82,1526.16,1002.21,1526.16,1002.21z"/>
				<path class="st9" d="M1503.37,922.85c4.17,20.03,24.02,80.55,28.15,102.45"/>
				<path class="st9" d="M1510.26,949.56c-3.05-0.25-6.05-1.03-8.83-2.31c-4.49-2.05-8.3-5.31-12.04-8.52"/>
				<path class="st9" d="M1509.09,943.54c6.82-3.52,11.86-10.29,13.28-17.83"/>
				<path class="st9" d="M1514,960.11c3.88-1.66,6.71-5.03,9.4-8.29c1.88-2.28,3.77-4.58,5.17-7.18c1.41-2.6,2.32-5.54,2.08-8.49"/>
				<path class="st9" d="M1516.26,969.72c-5.5,0.53-11.04-1.15-15.88-3.81s-9.08-6.28-13.24-9.91"/>
				<path class="st9" d="M1519.57,982.42c-0.46,1.03-1.7,1.4-2.81,1.6c-1.84,0.33-3.72,0.52-5.57,0.27
					c-2.56-0.34-4.93-1.49-7.26-2.63"/>
				<path class="st9" d="M1518.61,975.99c6.54-4.33,11.93-10.39,15.48-17.38c0.66-1.31,1.28-2.74,1.09-4.2"/>
			</g>
			<g>
				<path class="st8" d="M1445.03,1039.22c0,0-2.3-68.5-43.05-67.89c-40.69,0.61-33.51,43.38-12.06,55.94
					C1412.95,1040.75,1445.03,1039.22,1445.03,1039.22z"/>
				<path class="st9" d="M1384.29,983.31c13.98,14.94,62.42,56.29,77.34,72.85"/>
				<path class="st9" d="M1404.06,1002.53c-2.73,1.37-5.71,2.26-8.74,2.62c-4.9,0.58-9.85-0.22-14.72-1.02"/>
				<path class="st9" d="M1399.93,998c3.99-6.55,4.77-14.96,2.07-22.14"/>
				<path class="st9" d="M1412.75,1009.59c2.45-3.43,3.12-7.79,3.71-11.97c0.42-2.92,0.83-5.87,0.68-8.82
					c-0.15-2.95-0.9-5.94-2.64-8.33"/>
				<path class="st9" d="M1419.68,1016.63c-4.42,3.31-10.02,4.76-15.54,5c-5.52,0.24-11.02-0.63-16.47-1.58"/>
				<path class="st9" d="M1429.11,1025.75c0.14,1.11-0.73,2.08-1.57,2.83c-1.4,1.24-2.91,2.38-4.62,3.13
					c-2.37,1.04-4.99,1.29-7.56,1.53"/>
				<path class="st9" d="M1424.95,1020.76c3.33-7.1,4.78-15.08,4.17-22.9c-0.11-1.47-0.33-3.01-1.26-4.15"/>
			</g>
			<g>
				<path class="st5" d="M1630.78,997.52c0,0,49.43,7.58,54.48-21.72c5.05-29.26-26.59-29.87-38.48-16.19
					C1634.01,974.31,1630.78,997.52,1630.78,997.52z"/>
				<path class="st6" d="M1679.06,961.5c-12.59,8.01-50.39,35.89-60.98,45.16"/>
				<path class="st6" d="M1661.44,973.15c0.59-1.76,0.36-3.67,0.38-5.53c0.06-4.69,1.74-9.2,3.4-13.59"/>
				<path class="st6" d="M1652.63,979.96c-1.39-1.97-1.85-4.45-2.01-6.86c-0.29-4.33,0.27-8.71,1.65-12.82"/>
				<path class="st6" d="M1641.05,987.84c-0.56-2.61-1.97-5.06-1.94-7.73c0.02-1.73,0.64-3.39,1.25-5"/>
				<path class="st6" d="M1667.06,969.81c1.64,0.69,3.31,1.3,5.01,1.85c0.8,0.26,1.62,0.51,2.47,0.56c1.1,0.06,2.18-0.22,3.25-0.49
					c1.26-0.33,2.51-0.65,3.77-0.98"/>
				<path class="st6" d="M1679.25,981.18c-7.47,2.66-16.32,1.03-22.34-4.13"/>
				<path class="st6" d="M1665.99,989.34c-6.94,0.95-14.17-0.42-20.29-3.84"/>
			</g>
			<g>
				<path class="st8" d="M1619.56,980.67c0,0,63.34-26.18,48.48-64.13c-14.84-37.9-52.38-16.17-56.61,8.32
					C1606.89,951.16,1619.56,980.67,1619.56,980.67z"/>
				<path class="st9" d="M1650.62,904.17c-9.09,18.33-30.83,78.19-41.1,97.97"/>
				<path class="st9" d="M1639.56,929.43c-2.24-2.08-4.12-4.55-5.52-7.27c-2.26-4.39-3.25-9.3-4.21-14.14"/>
				<path class="st9" d="M1642.36,923.98c7.54,1.44,15.68-0.78,21.46-5.83"/>
				<path class="st9" d="M1635.99,940.04c4.08,1.09,8.39,0.19,12.51-0.72c2.88-0.64,5.79-1.28,8.5-2.45s5.24-2.93,6.88-5.39"/>
				<path class="st9" d="M1631.83,949c-4.65-2.98-7.97-7.72-10.14-12.8c-2.16-5.08-3.27-10.55-4.3-15.97"/>
				<path class="st9" d="M1626.59,961.03c-0.99,0.53-2.2,0.05-3.2-0.48c-1.65-0.87-3.25-1.89-4.55-3.23
					c-1.8-1.85-2.96-4.22-4.09-6.55"/>
				<path class="st9" d="M1629.81,955.38c7.82,0.63,15.8-0.81,22.91-4.12c1.33-0.62,2.7-1.37,3.45-2.63"/>
			</g>
			<g>
				<path class="st5" d="M1686.3,1023.77c0,0-13.55,48.13,14.92,56.72c28.43,8.58,32.89-22.75,20.75-36.22
					C1708.94,1029.81,1686.3,1023.77,1686.3,1023.77z"/>
				<path class="st6" d="M1716.17,1076.08c-6.42-13.48-29.48-54.39-37.39-66.03"/>
				<path class="st6" d="M1706.75,1057.18c1.68,0.8,3.6,0.8,5.44,1.05c4.65,0.63,8.92,2.85,13.08,5.03"/>
				<path class="st6" d="M1701.06,1047.6c2.13-1.14,4.64-1.29,7.05-1.16c4.33,0.24,8.61,1.33,12.52,3.2"/>
				<path class="st6" d="M1694.65,1035.15c2.66-0.24,5.27-1.34,7.91-0.99c1.71,0.23,3.28,1.05,4.81,1.85"/>
				<path class="st6" d="M1709.38,1063.16c-0.88,1.55-1.7,3.13-2.45,4.74c-0.36,0.77-0.7,1.55-0.85,2.38
					c-0.19,1.08-0.05,2.19,0.09,3.28c0.17,1.29,0.34,2.57,0.51,3.86"/>
				<path class="st6" d="M1696.6,1073.87c-1.73-7.74,0.97-16.32,6.82-21.67"/>
				<path class="st6" d="M1690.12,1059.72c-0.09-7,2.15-14.02,6.28-19.67"/>
			</g>
			<g>
				<path class="st8" d="M1704.39,1014.69c0,0,18.26,66.06,57.74,55.94c39.42-10.11,22.43-50.02-1.36-57.21
					C1735.22,1005.71,1704.39,1014.69,1704.39,1014.69z"/>
				<path class="st9" d="M1776.53,1054.84c-17.08-11.25-73.86-40.12-92.24-52.73"/>
				<path class="st9" d="M1752.8,1040.78c2.34-1.97,5.02-3.54,7.89-4.6c4.63-1.71,9.62-2.09,14.55-2.45"/>
				<path class="st9" d="M1757.88,1044.22c-2.35,7.3-1.14,15.66,3.17,22.01"/>
				<path class="st9" d="M1742.71,1035.95c-1.58,3.91-1.21,8.3-0.81,12.51c0.28,2.94,0.56,5.9,1.4,8.74
					c0.84,2.83,2.27,5.56,4.51,7.48"/>
				<path class="st9" d="M1734.33,1030.73c3.52-4.26,8.63-6.97,13.94-8.5c5.31-1.53,10.86-1.96,16.38-2.32"/>
				<path class="st9" d="M1723.02,1024.06c-0.4-1.05,0.22-2.19,0.86-3.12c1.07-1.53,2.27-2.99,3.76-4.12
					c2.06-1.56,4.55-2.42,6.99-3.26"/>
				<path class="st9" d="M1728.24,1027.94c-1.58,7.69-1.12,15.78,1.3,23.24c0.45,1.4,1.03,2.85,2.19,3.75"/>
			</g>
			<g>
				<path class="st10" d="M1432.8,1147.16c-6.52-16.06-30.46-65.04-38.84-79.08"/>
			</g>
			<g>
				<path class="st5" d="M1425.24,1057.84c0,0-20.32-36.19-42.06-24.51c-21.71,11.66-5.93,32.66,9.1,33.44
					C1408.42,1067.6,1425.24,1057.84,1425.24,1057.84z"/>
				<path class="st11" d="M1377.01,1044.7c11.68,4.14,49.23,14.59,60.71,16.77"/>
				<path class="st11" d="M1393.63,1050.26c-1.45,0.52-2.58,1.64-3.81,2.58c-3.1,2.36-6.9,3.57-10.62,4.73"/>
				<path class="st11" d="M1402.59,1052.54c-0.58,1.92-1.96,3.48-3.45,4.82c-2.68,2.4-5.83,4.27-9.22,5.48"/>
				<path class="st11" d="M1413.66,1056.08c-1.42,1.7-2.3,3.88-4.06,5.23c-1.14,0.87-2.54,1.31-3.91,1.74"/>
				<path class="st11" d="M1388.57,1048.29c-0.39-1.42-0.84-2.83-1.35-4.22c-0.24-0.66-0.5-1.32-0.9-1.9
					c-0.52-0.75-1.26-1.32-1.98-1.87c-0.85-0.65-1.71-1.31-2.56-1.96"/>
				<path class="st11" d="M1389.78,1034.51c5.56,3.52,9.02,10.14,8.73,16.72"/>
				<path class="st11" d="M1401.89,1039.01c4.17,4.05,6.97,9.48,7.86,15.23"/>
			</g>
			<g>
				<path class="st5" d="M1508.97,1040.5c0,0-28.34,39.95-4.9,57.24c23.4,17.27,37.83-10.16,31.07-26.59
					C1527.87,1053.52,1508.97,1040.5,1508.97,1040.5z"/>
				<path class="st12" d="M1519.31,1098.59c-1.48-14.54-9.3-59.87-12.77-73.22"/>
				<path class="st12" d="M1516.84,1078.05c1.28,1.29,3.06,1.93,4.67,2.76c4.08,2.11,7.29,5.56,10.41,8.94"/>
				<path class="st12" d="M1514.75,1067.34c2.34-0.35,4.71,0.33,6.89,1.25c3.91,1.64,7.5,4.06,10.5,7.07"/>
				<path class="st12" d="M1512.93,1053.75c2.53,0.66,5.3,0.5,7.62,1.69c1.51,0.77,2.69,2.05,3.83,3.29"/>
				<path class="st12" d="M1501.99,1090.11c0.95-7.71,6.26-14.74,13.43-17.75"/>
				<path class="st12" d="M1500.67,1074.92c2.22-6.49,6.59-12.22,12.27-16.08"/>
			</g>
			<g>
				<path class="st8" d="M1412,1068.76c0,0,9.41,43.92,35.63,38.82c26.18-5.1,16.6-31.86,1.31-37.48
					C1432.52,1064.07,1412,1068.76,1412,1068.76z"/>
				<path class="st13" d="M1457.65,1097.81c-10.75-8.02-46.78-29.09-58.32-38.05"/>
				<path class="st13" d="M1430.97,1080.41c2.47-2.65,5.92-4.23,9.45-5.03c3.53-0.8,7.18-0.87,10.81-0.89"/>
				<path class="st13" d="M1423.83,1075.61c-0.22-0.7,0.23-1.43,0.68-2.01c0.76-0.96,1.6-1.87,2.62-2.55
					c1.41-0.94,3.07-1.41,4.7-1.86"/>
				<path class="st13" d="M1427.09,1078.35c-1.33,4.97-1.34,10.28-0.04,15.25c0.24,0.93,0.56,1.9,1.29,2.53"/>
			</g>
			<g>
				<path class="st8" d="M1537.77,1036.6c0,0,14.63,68.32,55.42,60.38c40.72-7.93,25.82-49.56,2.04-58.3
					C1569.69,1029.29,1537.77,1036.6,1537.77,1036.6z"/>
				<path class="st14" d="M1608.79,1081.77c-16.71-12.47-72.76-45.25-90.71-59.19"/>
				<path class="st14" d="M1585.48,1066.04c2.5-1.87,5.32-3.3,8.3-4.21c4.81-1.46,9.92-1.55,14.95-1.63"/>
				<path class="st14" d="M1590.45,1069.85c-2.82,7.29-2.1,15.87,1.91,22.58"/>
				<path class="st14" d="M1575.5,1060.52c-1.84,3.89-1.72,8.38-1.57,12.68c0.11,3.01,0.22,6.04,0.9,8.97s1.98,5.8,4.14,7.89"/>
				<path class="st14" d="M1567.28,1054.71c3.84-4.12,9.2-6.58,14.7-7.82c5.49-1.24,11.17-1.35,16.81-1.38"/>
				<path class="st14" d="M1556.17,1047.25c-0.34-1.09,0.36-2.22,1.06-3.12c1.18-1.5,2.49-2.91,4.07-3.97
					c2.19-1.47,4.78-2.19,7.31-2.9"/>
				<path class="st14" d="M1561.25,1051.51c-2.06,7.73-2.09,15.99-0.07,23.73c0.38,1.45,0.88,2.96,2.01,3.94"/>
			</g>
		</g>
		
			<rect x="552.26" y="-43.34" transform="matrix(6.167582e-11 1 -1 6.167582e-11 1539.8457 -368.0669)" style="clip-path:url(#SVGID_00000137094661013412780860000002333884602348572581_);fill:#FFFFFF;" width="803.39" height="1258.46"/>
		<g style="clip-path:url(#SVGID_00000137094661013412780860000002333884602348572581_);">
			<defs>
				
					<rect id="SVGID_00000109750424636899303310000018437936487074948542_" x="546.57" y="-50.63" transform="matrix(4.490612e-11 1 -1 4.490612e-11 1534.1569 -375.3532)" width="816.36" height="1260.06"/>
			</defs>
			<clipPath id="SVGID_00000113339229505947210030000000370948288887046039_">
				<use xlink:href="#SVGID_00000109750424636899303310000018437936487074948542_"  style="overflow:visible;"/>
			</clipPath>
			<g style="clip-path:url(#SVGID_00000113339229505947210030000000370948288887046039_);">
				<g>
					<g>
						<line class="st17" x1="95.95" y1="184.49" x2="95.95" y2="3501.75"/>
					</g>
					<g>
						<line class="st17" x1="210.34" y1="184.49" x2="210.34" y2="3501.75"/>
					</g>
					<g>
						<line class="st17" x1="324.73" y1="184.49" x2="324.73" y2="3501.75"/>
					</g>
					<g>
						<line class="st18" x1="439.12" y1="184.49" x2="439.12" y2="3501.75"/>
					</g>
					<g>
						<line class="st18" x1="553.5" y1="184.49" x2="553.5" y2="3501.75"/>
					</g>
					<g>
						<line class="st18" x1="667.89" y1="184.49" x2="667.89" y2="3501.75"/>
					</g>
					<g>
						<line class="st18" x1="782.28" y1="184.49" x2="782.28" y2="3501.75"/>
					</g>
					<g>
						<line class="st18" x1="896.67" y1="184.49" x2="896.67" y2="3501.75"/>
					</g>
					<g>
						<line class="st18" x1="1011.06" y1="184.49" x2="1011.06" y2="3501.75"/>
					</g>
					<g>
						<line class="st18" x1="1125.45" y1="184.49" x2="1125.45" y2="3501.75"/>
					</g>
					<g>
						<line class="st18" x1="1239.83" y1="184.49" x2="1239.83" y2="3501.75"/>
					</g>
					<g>
						<line class="st18" x1="1354.22" y1="184.49" x2="1354.22" y2="3501.75"/>
					</g>
					<g>
						<line class="st18" x1="1468.61" y1="184.49" x2="1468.61" y2="3501.75"/>
					</g>
					<g>
						<line class="st18" x1="1583" y1="184.49" x2="1583" y2="3501.75"/>
					</g>
					<g>
						<line class="st17" x1="1697.39" y1="184.49" x2="1697.39" y2="3501.75"/>
					</g>
					<g>
						<line class="st17" x1="1811.78" y1="184.49" x2="1811.78" y2="3501.75"/>
					</g>
				</g>
				<g>
					<g>
						<line class="st18" x1="-363.36" y1="985.21" x2="2955.66" y2="985.21"/>
					</g>
					<g>
						<line class="st18" x1="-363.36" y1="870.82" x2="2955.66" y2="870.82"/>
					</g>
					<g>
						<line class="st18" x1="-363.36" y1="756.43" x2="2955.66" y2="756.43"/>
					</g>
					<g>
						<line class="st18" x1="-363.36" y1="642.04" x2="2955.66" y2="642.04"/>
					</g>
					<g>
						<line class="st18" x1="-363.36" y1="527.65" x2="2955.66" y2="527.65"/>
					</g>
					<g>
						<line class="st18" x1="-363.36" y1="413.27" x2="2955.66" y2="413.27"/>
					</g>
					<g>
						<line class="st18" x1="-363.36" y1="298.88" x2="2955.66" y2="298.88"/>
					</g>
					<g>
						<line class="st17" x1="-363.36" y1="184.49" x2="2955.66" y2="184.49"/>
					</g>
				</g>
			</g>
		</g>
		
			<rect x="551.6" y="-42.68" transform="matrix(6.165983e-11 1 -1 6.165983e-11 1540.3619 -367.4022)" style="clip-path:url(#SVGID_00000137094661013412780860000002333884602348572581_);fill:none;stroke:#3CB54A;stroke-width:4;stroke-miterlimit:10;" width="804.57" height="1258.31"/>
		
			<rect x="324.73" y="184.2" transform="matrix(4.489102e-11 1 -1 4.489102e-11 737.7005 -140.53)" style="clip-path:url(#SVGID_00000137094661013412780860000002333884602348572581_);fill:#3CB54A;" width="228.78" height="228.78"/>
		
			<rect x="1349.64" y="759.1" transform="matrix(4.489457e-11 1 -1 4.489457e-11 2340.1743 -593.2058)" style="clip-path:url(#SVGID_00000137094661013412780860000002333884602348572581_);fill:#3CB54A;" width="234.11" height="228.78"/>
		<path style="clip-path:url(#SVGID_00000137094661013412780860000002333884602348572581_);fill:#421E15;" d="M-75.41,232.56
			c104.11-16.25,207.37-40.93,304.64-81.45s188.6-97.27,262.28-172.6c7.19,7.34,15.86,11.81,23.05,19.15
			c-71.88,84.21-176.2,132.62-278.28,175.49c-42.21,17.73-84.89,35.03-129.59,44.9c-7.29,1.61-14.77,3.08-21.21,6.83
			c-5.34,3.11-9.69,7.64-14.06,12.01c-26.09,26.15-55.42,49.07-87.1,68.06c25.33-25.75,50.66-51.49,75.99-77.24
			C-3,250.89-72.8,255.99-138.81,242.29c6.74-10.08,19.2-15.14,31.3-15.88C-95.4,225.66-87.39,234.43-75.41,232.56z"/>
		<g style="clip-path:url(#SVGID_00000137094661013412780860000002333884602348572581_);">
			<path class="st5" d="M58.1,259.48c0,0-36.56,34.11-16.69,56.23c19.84,22.09,39.92-2.37,36.54-20.19
				C74.32,276.39,58.1,259.48,58.1,259.48z"/>
			<path class="st6" d="M56.48,319.69c1.51-14.85,3.03-61.79,2.31-75.85"/>
			<path class="st6" d="M58.24,298.65c1.02,1.55,2.66,2.56,4.1,3.72c3.65,2.95,6.15,7.06,8.57,11.08"/>
			<path class="st6" d="M58.35,287.51c2.41,0.13,4.64,1.3,6.63,2.67c3.58,2.45,6.67,5.61,9.04,9.23"/>
			<path class="st6" d="M59.34,273.54c2.4,1.18,5.2,1.59,7.28,3.26c1.35,1.08,2.26,2.6,3.15,4.08"/>
			<path class="st6" d="M57.38,305.13c-1.56,0.87-3.08,1.79-4.56,2.78c-0.7,0.47-1.4,0.96-1.97,1.59c-0.73,0.82-1.18,1.85-1.62,2.85
				c-0.52,1.19-1.04,2.37-1.57,3.56"/>
			<path class="st6" d="M40.91,307.65c2.54-7.52,9.3-13.45,17.08-14.98"/>
			<path class="st6" d="M42.72,292.19c3.56-6.03,9.11-10.87,15.58-13.55"/>
		</g>
		<g style="clip-path:url(#SVGID_00000137094661013412780860000002333884602348572581_);">
			<path class="st8" d="M78.28,261.11c0,0-18.68,65.95,20.32,77.78c38.94,11.82,45.14-31.11,28.53-49.6
				C109.3,269.43,78.28,261.11,78.28,261.11z"/>
			<path class="st9" d="M119.1,332.87c-8.76-18.49-42.3-72.63-51.47-92.95"/>
			<path class="st9" d="M106.12,308.54c3.02-0.47,6.13-0.42,9.13,0.16c4.84,0.94,9.31,3.21,13.71,5.45"/>
			<path class="st9" d="M108.67,314.12c-5.8,5.03-9.1,12.79-8.71,20.46"/>
			<path class="st9" d="M100,299.17c-3.38,2.52-5.34,6.47-7.18,10.27c-1.29,2.66-2.58,5.34-3.34,8.19
				c-0.76,2.86-0.95,5.93-0.03,8.74"/>
			<path class="st9" d="M95.54,290.36c5.22-1.81,11-1.48,16.33-0.03c5.33,1.45,10.3,3.96,15.2,6.52"/>
			<path class="st9" d="M89.34,278.79c0.2-1.11,1.33-1.76,2.35-2.22c1.71-0.76,3.5-1.38,5.35-1.57c2.57-0.27,5.15,0.29,7.67,0.85"/>
			<path class="st9" d="M91.79,284.81c-5.34,5.75-9.15,12.9-10.95,20.54c-0.34,1.43-0.6,2.97-0.07,4.34"/>
		</g>
		<g style="clip-path:url(#SVGID_00000137094661013412780860000002333884602348572581_);">
			<path class="st5" d="M172.81,191.45c0,0-48.02-13.93-56.84,14.46c-8.81,28.36,22.48,33.07,36.05,21.05
				C166.59,214.04,172.81,191.45,172.81,191.45z"/>
			<path class="st6" d="M120.26,220.9c13.53-6.31,54.62-29.04,66.33-36.86"/>
			<path class="st6" d="M139.24,211.63c-0.81,1.67-0.83,3.59-1.1,5.43c-0.67,4.65-2.92,8.89-5.13,13.03"/>
			<path class="st6" d="M148.87,206.02c1.12,2.14,1.26,4.65,1.1,7.06c-0.27,4.33-1.4,8.6-3.3,12.49"/>
			<path class="st6" d="M161.37,199.72c0.22,2.66,1.29,5.28,0.92,7.92c-0.24,1.71-1.07,3.28-1.89,4.8"/>
			<path class="st6" d="M133.24,214.21c-1.54-0.89-3.12-1.72-4.72-2.49c-0.76-0.36-1.54-0.72-2.38-0.87
				c-1.08-0.2-2.19-0.07-3.28,0.07c-1.29,0.16-2.57,0.32-3.86,0.48"/>
			<path class="st6" d="M122.63,201.36c7.76-1.67,16.31,1.1,21.62,7"/>
			<path class="st6" d="M136.83,194.99c7-0.04,14,2.26,19.62,6.44"/>
		</g>
		<g style="clip-path:url(#SVGID_00000137094661013412780860000002333884602348572581_);">
			<path class="st8" d="M181.74,209.62c0,0-66.21,17.73-56.4,57.29c9.79,39.5,49.83,22.83,57.21-0.9
				C190.48,240.52,181.74,209.62,181.74,209.62z"/>
			<path class="st9" d="M141.01,281.43c11.39-16.99,40.72-73.53,53.48-91.81"/>
			<path class="st9" d="M155.27,257.82c1.95,2.35,3.5,5.05,4.53,7.92c1.67,4.64,2.01,9.64,2.34,14.56"/>
			<path class="st9" d="M151.79,262.87c-7.29-2.4-15.65-1.27-22.03,2.99"/>
			<path class="st9" d="M160.18,247.76c-3.9-1.61-8.29-1.27-12.5-0.91c-2.94,0.26-5.91,0.51-8.75,1.33s-5.58,2.22-7.52,4.45"/>
			<path class="st9" d="M165.47,239.42c4.23,3.56,6.9,8.69,8.39,14.01c1.49,5.32,1.87,10.88,2.19,16.4"/>
			<path class="st9" d="M172.22,228.17c1.05-0.39,2.19,0.24,3.11,0.89c1.52,1.08,2.97,2.3,4.09,3.79c1.55,2.07,2.39,4.57,3.2,7.02"
				/>
			<path class="st9" d="M168.31,233.36c-7.67-1.64-15.77-1.25-23.25,1.11c-1.4,0.44-2.86,1.01-3.76,2.16"/>
		</g>
		<g style="clip-path:url(#SVGID_00000137094661013412780860000002333884602348572581_);">
			<path class="st5" d="M374.7,58.64c0,0,5.54-57.79-28.76-61.73c-34.25-3.93-32.88,32.78-16.23,45.67
				C347.59,56.42,374.7,58.64,374.7,58.64z"/>
			<path class="st10" d="M329.78,5.04c10.11,14.07,44.91,56.05,56.35,67.72"/>
			<path class="st10" d="M344.44,24.7c-2.08-0.56-4.28-0.18-6.43-0.08c-5.45,0.24-10.78-1.41-15.98-3.04"/>
			<path class="st10" d="M352.91,34.46c-2.19,1.74-5.04,2.44-7.82,2.78c-4.99,0.62-10.11,0.25-14.96-1.07"/>
			<path class="st10" d="M362.81,47.37c-2.99,0.82-5.74,2.61-8.84,2.76c-2.01,0.09-3.97-0.52-5.88-1.12"/>
			<path class="st10" d="M340.2,18.4c0.69-1.95,1.29-3.93,1.82-5.93c0.25-0.95,0.48-1.92,0.48-2.9c0-1.28-0.39-2.52-0.78-3.73
				c-0.46-1.43-0.92-2.87-1.38-4.3"/>
			<path class="st10" d="M352.58,3.53c3.58,8.49,2.26,18.84-3.32,26.17"/>
			<path class="st10" d="M362.9,18.36c1.55,7.98,0.44,16.46-3.12,23.77"/>
		</g>
		<g style="clip-path:url(#SVGID_00000137094661013412780860000002333884602348572581_);">
			<path class="st5" d="M411.04,77.27c0,0,28.27,30.39,46.65,13.93c18.36-16.44-1.92-33.14-16.71-30.36
				C425.1,63.82,411.04,77.27,411.04,77.27z"/>
			<path class="st11" d="M461.02,78.69c-12.32-1.27-51.28-2.6-62.95-2.02"/>
			<path class="st11" d="M443.55,77.2c1.29-0.84,2.12-2.2,3.1-3.4c2.46-3.03,5.87-5.09,9.21-7.1"/>
			<path class="st11" d="M434.3,77.09c0.11-2,1.09-3.85,2.22-5.5c2.04-2.96,4.66-5.53,7.67-7.49"/>
			<path class="st11" d="M422.71,76.26c0.98-1.99,1.33-4.31,2.72-6.03c0.9-1.12,2.16-1.88,3.39-2.61"/>
			<path class="st11" d="M448.93,77.92c0.72,1.29,1.49,2.56,2.3,3.79c0.39,0.58,0.79,1.17,1.32,1.63c0.68,0.61,1.53,0.98,2.37,1.35
				c0.98,0.43,1.97,0.87,2.95,1.3"/>
			<path class="st11" d="M451,91.6c-6.24-2.12-11.15-7.73-12.41-14.2"/>
			<path class="st11" d="M438.17,90.08c-5-2.96-9.01-7.58-11.23-12.95"/>
		</g>
		<g style="clip-path:url(#SVGID_00000137094661013412780860000002333884602348572581_);">
			<path class="st5" d="M280.84,126.63c0,0,18.14-45.49-8.7-56.78c-26.81-11.27-34.37,18.78-23.94,33.15
				C259.41,118.42,280.84,126.63,280.84,126.63z"/>
			<path class="st12" d="M257.12,72.61c4.86,13.79,23.13,56,29.64,68.16"/>
			<path class="st12" d="M264.36,91.99c-1.55-0.95-3.42-1.15-5.19-1.58c-4.47-1.09-8.39-3.69-12.22-6.24"/>
			<path class="st12" d="M268.91,101.9c-2.19,0.89-4.65,0.78-6.99,0.41c-4.19-0.68-8.25-2.18-11.87-4.4"/>
			<path class="st12" d="M273.87,114.69c-2.61-0.04-5.27,0.76-7.81,0.15c-1.65-0.4-3.09-1.36-4.5-2.3"/>
			<path class="st12" d="M262.41,85.89c1.02-1.42,1.98-2.87,2.87-4.37c0.43-0.71,0.84-1.44,1.08-2.23c0.3-1.03,0.27-2.13,0.25-3.21
				c-0.03-1.27-0.07-2.54-0.1-3.81"/>
			<path class="st12" d="M275.95,76.77c0.89,7.72-2.62,15.8-8.87,20.41"/>
			<path class="st12" d="M280.81,91.22c-0.63,6.83-3.53,13.43-8.14,18.51"/>
		</g>
		<g style="clip-path:url(#SVGID_00000137094661013412780860000002333884602348572581_);">
			<path class="st8" d="M368.44,76.34c0,0-19.48-40.48-43.76-29.35c-24.25,11.12-8.64,34.87,7.54,36.74
				C349.6,85.73,368.44,76.34,368.44,76.34z"/>
			<path class="st13" d="M317.24,58.86c12.33,5.27,52.31,17.27,65.63,23.26"/>
			<path class="st13" d="M334.18,65.16c-1.28,1.55-2.82,2.87-4.55,3.88c-2.79,1.64-5.96,2.47-9.09,3.28"/>
			<path class="st13" d="M330.5,63.53c0.66-4.98-1.09-10.23-4.61-13.82"/>
			<path class="st13" d="M341.25,67.1c0.56-2.71-0.19-5.5-0.94-8.16c-0.52-1.86-1.05-3.74-1.92-5.47c-0.87-1.73-2.11-3.32-3.78-4.3"
				/>
			<path class="st13" d="M347.27,69.49c-1.78,3.16-4.75,5.5-8,7.11c-3.25,1.61-6.78,2.53-10.29,3.41"/>
			<path class="st13" d="M355.34,72.47c0.38,0.63,0.11,1.44-0.19,2.11c-0.51,1.11-1.12,2.19-1.94,3.1
				c-1.14,1.25-2.65,2.09-4.13,2.92"/>
			<path class="st13" d="M351.52,70.58c0.12-5.14-1.11-10.31-3.55-14.84c-0.46-0.85-1-1.72-1.85-2.16"/>
		</g>
		<g style="clip-path:url(#SVGID_00000137094661013412780860000002333884602348572581_);">
			<path class="st8" d="M253.77,137.2c0,0-30.3-62.96-68.07-45.65c-37.71,17.29-13.44,54.24,11.73,57.14
				C224.46,151.81,253.77,137.2,253.77,137.2z"/>
			<path class="st14" d="M174.12,110c19.18,8.19,81.37,26.86,102.09,36.18"/>
			<path class="st14" d="M200.47,119.81c-1.99,2.4-4.39,4.46-7.08,6.04c-4.33,2.56-9.28,3.84-14.15,5.1"/>
			<path class="st14" d="M194.75,117.28c1.03-7.75-1.69-15.92-7.17-21.5"/>
			<path class="st14" d="M211.47,122.83c0.88-4.21-0.3-8.55-1.46-12.69c-0.81-2.9-1.63-5.82-2.99-8.51s-3.28-5.17-5.88-6.69"/>
			<path class="st14" d="M220.83,126.54c-2.76,4.91-7.39,8.56-12.44,11.06c-5.05,2.5-10.54,3.94-16.01,5.3"/>
			<path class="st14" d="M233.38,131.18c0.59,0.98,0.18,2.24-0.3,3.28c-0.79,1.73-1.74,3.41-3.02,4.82
				c-1.78,1.94-4.12,3.26-6.43,4.54"/>
			<path class="st14" d="M227.44,128.24c0.19-8-1.73-16.03-5.52-23.08c-0.71-1.32-1.55-2.67-2.88-3.36"/>
		</g>
		<g style="clip-path:url(#SVGID_00000137094661013412780860000002333884602348572581_);">
			<path class="st4" d="M1950.17,232.56c-104.11-16.25-207.37-40.93-304.64-81.45s-188.6-97.27-262.28-172.6
				c-7.19,7.34-15.86,11.81-23.05,19.15c71.88,84.21,176.2,132.62,278.28,175.49c42.21,17.73,84.89,35.03,129.59,44.9
				c7.29,1.61,14.77,3.08,21.21,6.83c5.34,3.11,9.69,7.64,14.06,12.01c16.3,16.34,33.86,31.41,52.47,45.05
				c4.26,3.13,9.32-2.72,5.61-6.49l-46.98-47.74c63.31,23.16,133.11,28.26,199.12,14.56c-6.74-10.08-19.2-15.14-31.3-15.88
				C1970.16,225.66,1962.15,234.43,1950.17,232.56z"/>
			<g>
				<path class="st5" d="M1816.66,259.48c0,0,36.56,34.11,16.69,56.23c-19.84,22.09-39.92-2.37-36.54-20.19
					C1800.44,276.39,1816.66,259.48,1816.66,259.48z"/>
				<path class="st6" d="M1818.28,319.69c-1.51-14.85-3.03-61.79-2.31-75.85"/>
				<path class="st6" d="M1816.51,298.65c-1.02,1.55-2.66,2.56-4.1,3.72c-3.65,2.95-6.15,7.06-8.57,11.08"/>
				<path class="st6" d="M1816.41,287.51c-2.41,0.13-4.64,1.3-6.63,2.67c-3.58,2.45-6.67,5.61-9.04,9.23"/>
				<path class="st6" d="M1815.42,273.54c-2.4,1.18-5.2,1.59-7.28,3.26c-1.35,1.08-2.26,2.6-3.15,4.08"/>
				<path class="st6" d="M1817.38,305.13c1.56,0.87,3.08,1.79,4.56,2.78c0.7,0.47,1.4,0.96,1.97,1.59c0.73,0.82,1.18,1.85,1.62,2.85
					c0.52,1.19,1.04,2.37,1.57,3.56"/>
				<path class="st6" d="M1833.85,307.65c-2.54-7.52-9.3-13.45-17.08-14.98"/>
				<path class="st6" d="M1832.04,292.19c-3.56-6.03-9.11-10.87-15.58-13.55"/>
			</g>
			<g>
				<path class="st5" d="M1901.05,255.81c0,0,58.89-8.32,64.5,26.6c5.59,34.87-32.04,35.16-46,18.71
					C1904.57,283.46,1901.05,255.81,1901.05,255.81z"/>
				<path class="st7" d="M1957.97,299.33c-14.87-9.7-59.43-43.39-71.9-54.57"/>
				<path class="st7" d="M1913.13,267.47c-0.7,3.1-2.41,6-2.42,9.17c0,2.06,0.71,4.04,1.42,5.97"/>
				<path class="st7" d="M1942.82,266.03c-8.24-1.22-16.86,0.3-24.18,4.28"/>
			</g>
			<g>
				<path class="st8" d="M1796.48,261.11c0,0,18.68,65.95-20.32,77.78c-38.94,11.82-45.14-31.11-28.53-49.6
					C1765.46,269.43,1796.48,261.11,1796.48,261.11z"/>
				<path class="st9" d="M1755.66,332.87c8.76-18.49,42.3-72.63,51.47-92.95"/>
				<path class="st9" d="M1768.64,308.54c-3.02-0.47-6.13-0.42-9.13,0.16c-4.84,0.94-9.31,3.21-13.71,5.45"/>
				<path class="st9" d="M1766.08,314.12c5.8,5.03,9.1,12.79,8.71,20.46"/>
				<path class="st9" d="M1774.76,299.17c3.38,2.52,5.34,6.47,7.18,10.27c1.29,2.66,2.58,5.34,3.34,8.19
					c0.76,2.86,0.95,5.93,0.03,8.74"/>
				<path class="st9" d="M1779.21,290.36c-5.22-1.81-11-1.48-16.33-0.03s-10.3,3.96-15.2,6.52"/>
				<path class="st9" d="M1785.42,278.79c-0.2-1.11-1.33-1.76-2.35-2.22c-1.71-0.76-3.5-1.38-5.35-1.57
					c-2.57-0.27-5.15,0.29-7.67,0.85"/>
				<path class="st9" d="M1782.97,284.81c5.34,5.75,9.15,12.9,10.95,20.54c0.34,1.43,0.6,2.97,0.07,4.34"/>
			</g>
			<g>
				<path class="st5" d="M1701.95,191.45c0,0,48.02-13.93,56.84,14.46c8.81,28.36-22.48,33.07-36.05,21.05
					C1708.17,214.04,1701.95,191.45,1701.95,191.45z"/>
				<path class="st6" d="M1754.49,220.9c-13.53-6.31-54.62-29.04-66.33-36.86"/>
				<path class="st6" d="M1735.52,211.63c0.81,1.67,0.83,3.59,1.1,5.43c0.67,4.65,2.92,8.89,5.13,13.03"/>
				<path class="st6" d="M1725.89,206.02c-1.12,2.14-1.26,4.65-1.1,7.06c0.27,4.33,1.4,8.6,3.3,12.49"/>
				<path class="st6" d="M1713.39,199.72c-0.22,2.66-1.29,5.28-0.92,7.92c0.24,1.71,1.07,3.28,1.89,4.8"/>
				<path class="st6" d="M1741.52,214.21c1.54-0.89,3.12-1.72,4.72-2.49c0.76-0.36,1.54-0.72,2.38-0.87
					c1.08-0.2,2.19-0.07,3.28,0.07c1.29,0.16,2.57,0.32,3.86,0.48"/>
				<path class="st6" d="M1752.13,201.36c-7.76-1.67-16.31,1.1-21.62,7"/>
				<path class="st6" d="M1737.92,194.99c-7-0.04-14,2.26-19.62,6.44"/>
			</g>
			<g>
				<path class="st8" d="M1693.02,209.62c0,0,66.21,17.73,56.4,57.29c-9.79,39.5-49.83,22.83-57.21-0.9
					C1684.28,240.52,1693.02,209.62,1693.02,209.62z"/>
				<path class="st9" d="M1733.74,281.43c-11.39-16.99-40.72-73.53-53.48-91.81"/>
				<path class="st9" d="M1719.49,257.82c-1.95,2.35-3.5,5.05-4.53,7.92c-1.67,4.64-2.01,9.64-2.34,14.56"/>
				<path class="st9" d="M1722.97,262.87c7.29-2.4,15.65-1.27,22.03,2.99"/>
				<path class="st9" d="M1714.57,247.76c3.9-1.61,8.29-1.27,12.5-0.91c2.94,0.26,5.91,0.51,8.75,1.33
					c2.84,0.81,5.58,2.22,7.52,4.45"/>
				<path class="st9" d="M1709.29,239.42c-4.23,3.56-6.9,8.69-8.39,14.01c-1.49,5.32-1.87,10.88-2.19,16.4"/>
				<path class="st9" d="M1702.53,228.17c-1.05-0.39-2.19,0.24-3.11,0.89c-1.52,1.08-2.97,2.3-4.09,3.79
					c-1.55,2.07-2.39,4.57-3.2,7.02"/>
				<path class="st9" d="M1706.45,233.36c7.67-1.64,15.77-1.25,23.25,1.11c1.4,0.44,2.86,1.01,3.76,2.16"/>
			</g>
			<g>
				<path class="st5" d="M1500.06,58.64c0,0-5.54-57.79,28.76-61.73c34.25-3.93,32.88,32.78,16.23,45.67
					C1527.17,56.42,1500.06,58.64,1500.06,58.64z"/>
				<path class="st10" d="M1544.98,5.04c-10.11,14.07-44.91,56.05-56.35,67.72"/>
				<path class="st10" d="M1530.32,24.7c2.08-0.56,4.28-0.18,6.43-0.08c5.45,0.24,10.78-1.41,15.98-3.04"/>
				<path class="st10" d="M1521.85,34.46c2.19,1.74,5.04,2.44,7.82,2.78c4.99,0.62,10.11,0.25,14.96-1.07"/>
				<path class="st10" d="M1511.95,47.37c2.99,0.82,5.74,2.61,8.84,2.76c2.01,0.09,3.97-0.52,5.88-1.12"/>
				<path class="st10" d="M1534.56,18.4c-0.69-1.95-1.29-3.93-1.82-5.93c-0.25-0.95-0.48-1.92-0.48-2.9c0-1.28,0.39-2.52,0.78-3.73
					c0.46-1.43,0.92-2.87,1.38-4.3"/>
				<path class="st10" d="M1522.18,3.53c-3.58,8.49-2.26,18.84,3.32,26.17"/>
				<path class="st10" d="M1511.85,18.36c-1.55,7.98-0.44,16.46,3.12,23.77"/>
			</g>
			<g>
				<path class="st5" d="M1463.72,77.27c0,0-28.27,30.39-46.65,13.93c-18.36-16.44,1.92-33.14,16.71-30.36
					C1449.66,63.82,1463.72,77.27,1463.72,77.27z"/>
				<path class="st11" d="M1413.74,78.69c12.32-1.27,51.28-2.6,62.95-2.02"/>
				<path class="st11" d="M1431.21,77.2c-1.29-0.84-2.12-2.2-3.1-3.4c-2.46-3.03-5.87-5.09-9.21-7.1"/>
				<path class="st11" d="M1440.45,77.09c-0.11-2-1.09-3.85-2.22-5.5c-2.04-2.96-4.66-5.53-7.67-7.49"/>
				<path class="st11" d="M1452.05,76.26c-0.98-1.99-1.33-4.31-2.72-6.03c-0.9-1.12-2.16-1.88-3.39-2.61"/>
				<path class="st11" d="M1425.83,77.92c-0.72,1.29-1.49,2.56-2.3,3.79c-0.39,0.58-0.79,1.17-1.32,1.63
					c-0.68,0.61-1.53,0.98-2.37,1.35c-0.98,0.43-1.97,0.87-2.95,1.3"/>
				<path class="st11" d="M1423.76,91.6c6.24-2.12,11.15-7.73,12.41-14.2"/>
				<path class="st11" d="M1436.59,90.08c5-2.96,9.01-7.58,11.23-12.95"/>
			</g>
			<g>
				<path class="st5" d="M1593.91,126.63c0,0-18.14-45.49,8.7-56.78c26.81-11.27,34.37,18.78,23.94,33.15
					C1615.35,118.42,1593.91,126.63,1593.91,126.63z"/>
				<path class="st12" d="M1617.63,72.61c-4.86,13.79-23.13,56-29.64,68.16"/>
				<path class="st12" d="M1610.4,91.99c1.55-0.95,3.42-1.15,5.19-1.58c4.47-1.09,8.39-3.69,12.22-6.24"/>
				<path class="st12" d="M1605.85,101.9c2.19,0.89,4.65,0.78,6.99,0.41c4.19-0.68,8.25-2.18,11.87-4.4"/>
				<path class="st12" d="M1600.89,114.69c2.61-0.04,5.27,0.76,7.81,0.15c1.65-0.4,3.09-1.36,4.5-2.3"/>
				<path class="st12" d="M1612.35,85.89c-1.02-1.42-1.98-2.87-2.87-4.37c-0.43-0.71-0.84-1.44-1.08-2.23
					c-0.3-1.03-0.28-2.13-0.25-3.21c0.03-1.27,0.07-2.54,0.1-3.81"/>
				<path class="st12" d="M1598.81,76.77c-0.89,7.72,2.62,15.8,8.87,20.41"/>
				<path class="st12" d="M1593.95,91.22c0.63,6.83,3.53,13.43,8.14,18.51"/>
			</g>
			<g>
				<path class="st8" d="M1506.31,76.34c0,0,19.48-40.48,43.76-29.35c24.25,11.12,8.64,34.87-7.54,36.74
					C1525.15,85.73,1506.31,76.34,1506.31,76.34z"/>
				<path class="st13" d="M1557.52,58.86c-12.33,5.27-52.31,17.27-65.63,23.26"/>
				<path class="st13" d="M1540.58,65.16c1.28,1.55,2.82,2.87,4.55,3.88c2.79,1.64,5.96,2.47,9.09,3.28"/>
				<path class="st13" d="M1544.26,63.53c-0.66-4.98,1.09-10.23,4.61-13.82"/>
				<path class="st13" d="M1533.51,67.1c-0.56-2.71,0.19-5.5,0.94-8.16c0.52-1.86,1.05-3.74,1.92-5.47c0.87-1.73,2.11-3.32,3.78-4.3
					"/>
				<path class="st13" d="M1527.49,69.49c1.78,3.16,4.75,5.5,8,7.11c3.25,1.61,6.78,2.53,10.29,3.41"/>
				<path class="st13" d="M1519.42,72.47c-0.38,0.63-0.11,1.44,0.19,2.11c0.51,1.11,1.12,2.19,1.94,3.1
					c1.14,1.25,2.65,2.09,4.13,2.92"/>
				<path class="st13" d="M1523.24,70.58c-0.12-5.14,1.11-10.31,3.55-14.84c0.46-0.85,1-1.72,1.85-2.16"/>
			</g>
			<g>
				<path class="st8" d="M1620.99,137.2c0,0,30.3-62.96,68.07-45.65c37.71,17.29,13.44,54.24-11.73,57.14
					C1650.3,151.81,1620.99,137.2,1620.99,137.2z"/>
				<path class="st14" d="M1700.64,110c-19.18,8.19-81.37,26.86-102.09,36.18"/>
				<path class="st14" d="M1674.29,119.81c1.99,2.4,4.39,4.46,7.08,6.04c4.33,2.56,9.28,3.84,14.15,5.1"/>
				<path class="st14" d="M1680.01,117.28c-1.03-7.75,1.69-15.92,7.17-21.5"/>
				<path class="st14" d="M1663.29,122.83c-0.88-4.21,0.3-8.55,1.46-12.69c0.81-2.9,1.63-5.82,2.99-8.51
					c1.35-2.69,3.28-5.17,5.88-6.69"/>
				<path class="st14" d="M1653.93,126.54c2.76,4.91,7.39,8.56,12.44,11.06c5.05,2.5,10.54,3.94,16.01,5.3"/>
				<path class="st14" d="M1641.38,131.18c-0.59,0.98-0.18,2.24,0.3,3.28c0.79,1.73,1.74,3.41,3.02,4.82
					c1.78,1.94,4.12,3.26,6.43,4.54"/>
				<path class="st14" d="M1647.32,128.24c-0.19-8,1.73-16.03,5.52-23.08c0.71-1.32,1.55-2.67,2.88-3.36"/>
			</g>
		</g>
		<g style="clip-path:url(#SVGID_00000137094661013412780860000002333884602348572581_);">
			<polygon class="st22" points="514.01,401.24 485.94,367.7 501.38,370.77 495.83,337.31 512.85,337.01 529.87,336.7 
				525.53,370.33 540.85,366.71 			"/>
		</g>
		<g style="clip-path:url(#SVGID_00000137094661013412780860000002333884602348572581_);">
			<polygon class="st23" points="495.85,507.39 467.78,473.84 483.21,476.92 477.66,443.46 494.68,443.15 511.7,442.84 
				507.37,476.48 522.68,472.85 			"/>
		</g>
		<g style="clip-path:url(#SVGID_00000137094661013412780860000002333884602348572581_);">
			<polygon class="st23" points="527.5,926.02 493.96,954.09 497.03,938.66 463.57,944.21 463.27,927.19 462.96,910.17 
				496.59,914.5 492.97,899.19 			"/>
		</g>
		<g style="clip-path:url(#SVGID_00000137094661013412780860000002333884602348572581_);">
			<polygon class="st23" points="840.84,618.75 812.78,585.21 828.21,588.28 822.66,554.82 839.68,554.52 856.7,554.21 
				852.37,587.84 867.68,584.22 			"/>
		</g>
		<g style="clip-path:url(#SVGID_00000137094661013412780860000002333884602348572581_);">
			<polygon class="st23" points="872.5,358.16 838.95,386.23 842.03,370.79 808.57,376.34 808.26,359.32 807.95,342.3 
				841.59,346.64 837.96,331.32 			"/>
		</g>
		<g style="clip-path:url(#SVGID_00000137094661013412780860000002333884602348572581_);">
			<polygon class="st23" points="1183.92,618.75 1155.85,585.21 1171.28,588.28 1165.74,554.82 1182.76,554.52 1199.78,554.21 
				1195.44,587.84 1210.75,584.22 			"/>
		</g>
		<g style="clip-path:url(#SVGID_00000137094661013412780860000002333884602348572581_);">
			<polygon class="st23" points="840.84,736.56 812.78,703.01 828.21,706.08 822.66,672.63 839.68,672.32 856.7,672.01 
				852.37,705.65 867.68,702.02 			"/>
		</g>
		<g style="clip-path:url(#SVGID_00000137094661013412780860000002333884602348572581_);">
			<polygon class="st23" points="840.84,958.91 812.78,925.37 828.21,928.44 822.66,894.98 839.68,894.68 856.7,894.37 852.37,928 
				867.68,924.38 			"/>
		</g>
		<g style="clip-path:url(#SVGID_00000137094661013412780860000002333884602348572581_);">
			<polygon class="st23" points="1067.01,209.21 1095.08,242.75 1079.64,239.68 1085.19,273.13 1068.17,273.44 1051.15,273.75 
				1055.49,240.11 1040.18,243.74 			"/>
		</g>
		<g style="clip-path:url(#SVGID_00000137094661013412780860000002333884602348572581_);">
			<polygon class="st23" points="1099.9,358.16 1066.36,386.23 1069.43,370.79 1035.97,376.34 1035.66,359.32 1035.35,342.3 
				1068.99,346.64 1065.36,331.32 			"/>
		</g>
		<g style="clip-path:url(#SVGID_00000137094661013412780860000002333884602348572581_);">
			<polygon class="st23" points="1035.35,475.73 1068.9,447.66 1065.83,463.1 1099.28,457.55 1099.59,474.57 1099.9,491.59 
				1066.26,487.25 1069.89,502.57 			"/>
		</g>
		<g style="clip-path:url(#SVGID_00000137094661013412780860000002333884602348572581_);">
			<polygon class="st23" points="723.41,782.1 751.48,815.64 736.04,812.57 741.59,846.02 724.57,846.33 707.55,846.64 711.89,813 
				696.58,816.63 			"/>
		</g>
		<g style="clip-path:url(#SVGID_00000137094661013412780860000002333884602348572581_);">
			<polygon class="st23" points="607.83,320.86 635.9,354.4 620.46,351.33 626.01,384.79 608.99,385.09 591.97,385.4 596.31,351.77 
				580.99,355.39 			"/>
		</g>
		<g style="clip-path:url(#SVGID_00000137094661013412780860000002333884602348572581_);">
			<polygon class="st23" points="723.41,672.01 751.48,705.56 736.04,702.48 741.59,735.94 724.57,736.25 707.55,736.56 
				711.89,702.92 696.58,706.55 			"/>
		</g>
		<g style="clip-path:url(#SVGID_00000137094661013412780860000002333884602348572581_);">
			<polygon class="st23" points="723.41,894.37 751.48,927.91 736.04,924.84 741.59,958.3 724.57,958.6 707.55,958.91 
				711.89,925.28 696.58,928.9 			"/>
		</g>
		<g style="clip-path:url(#SVGID_00000137094661013412780860000002333884602348572581_);">
			<polygon class="st23" points="1151.03,475.73 1184.57,447.66 1181.5,463.1 1214.96,457.55 1215.27,474.57 1215.57,491.59 
				1181.94,487.25 1185.57,502.57 			"/>
		</g>
		<g style="clip-path:url(#SVGID_00000137094661013412780860000002333884602348572581_);">
			<polygon class="st23" points="1215.57,353.13 1182.03,381.2 1185.1,365.76 1151.64,371.31 1151.34,354.29 1151.03,337.27 
				1184.66,341.61 1181.04,326.29 			"/>
		</g>
		<g style="clip-path:url(#SVGID_00000137094661013412780860000002333884602348572581_);">
			<polygon class="st23" points="1334.56,353.13 1301.02,381.2 1304.09,365.76 1270.63,371.31 1270.32,354.29 1270.02,337.27 
				1303.65,341.61 1300.02,326.29 			"/>
		</g>
		<g style="clip-path:url(#SVGID_00000137094661013412780860000002333884602348572581_);">
			<polygon class="st23" points="1411.89,386.02 1383.82,352.47 1399.26,355.54 1393.71,322.09 1410.73,321.78 1427.75,321.47 
				1423.42,355.11 1438.73,351.48 			"/>
		</g>
		<g style="clip-path:url(#SVGID_00000137094661013412780860000002333884602348572581_);">
			<polygon class="st23" points="1379,475.73 1412.55,447.66 1409.48,463.1 1442.93,457.55 1443.24,474.57 1443.55,491.59 
				1409.91,487.25 1413.54,502.57 			"/>
		</g>
		<g style="clip-path:url(#SVGID_00000137094661013412780860000002333884602348572581_);">
			<polygon class="st23" points="1488.35,475.73 1521.9,447.66 1518.83,463.1 1552.28,457.55 1552.59,474.57 1552.9,491.59 
				1519.26,487.25 1522.89,502.57 			"/>
		</g>
		<g style="clip-path:url(#SVGID_00000137094661013412780860000002333884602348572581_);">
			<polygon class="st23" points="1411.89,618.75 1383.82,585.21 1399.26,588.28 1393.71,554.82 1410.73,554.52 1427.75,554.21 
				1423.42,587.84 1438.73,584.22 			"/>
		</g>
		<g style="clip-path:url(#SVGID_00000137094661013412780860000002333884602348572581_);">
			<polygon class="st23" points="1552.9,585.86 1519.35,613.93 1522.43,598.5 1488.97,604.05 1488.66,587.03 1488.35,570.01 
				1521.99,574.34 1518.36,559.03 			"/>
		</g>
		<g style="clip-path:url(#SVGID_00000137094661013412780860000002333884602348572581_);">
			<polygon class="st23" points="1411.89,736.56 1383.82,703.01 1399.26,706.08 1393.71,672.63 1410.73,672.32 1427.75,672.01 
				1423.42,705.65 1438.73,702.02 			"/>
		</g>
		<g style="clip-path:url(#SVGID_00000137094661013412780860000002333884602348572581_);">
			<polygon class="st23" points="1520.01,672.01 1548.08,705.56 1532.64,702.48 1538.19,735.94 1521.17,736.25 1504.15,736.56 
				1508.49,702.92 1493.17,706.55 			"/>
		</g>
		<g style="clip-path:url(#SVGID_00000137094661013412780860000002333884602348572581_);">
			<polygon class="st23" points="1270.02,475.73 1303.56,447.66 1300.49,463.1 1333.94,457.55 1334.25,474.57 1334.56,491.59 
				1300.93,487.25 1304.55,502.57 			"/>
		</g>
		<g style="clip-path:url(#SVGID_00000137094661013412780860000002333884602348572581_);">
			<polygon class="st23" points="1552.9,353.13 1519.35,381.2 1522.43,365.76 1488.97,371.31 1488.66,354.29 1488.35,337.27 
				1521.99,341.61 1518.36,326.29 			"/>
		</g>
		<g style="clip-path:url(#SVGID_00000137094661013412780860000002333884602348572581_);">
			<polygon class="st23" points="580.75,704.9 614.3,676.83 611.22,692.27 644.68,686.72 644.99,703.74 645.3,720.76 611.66,716.42 
				615.29,731.73 			"/>
		</g>
		<g style="clip-path:url(#SVGID_00000137094661013412780860000002333884602348572581_);">
			<polygon class="st23" points="499.12,736.56 471.05,703.01 486.49,706.08 480.94,672.63 497.96,672.32 514.98,672.01 
				510.64,705.65 525.95,702.02 			"/>
		</g>
		<g style="clip-path:url(#SVGID_00000137094661013412780860000002333884602348572581_);">
			<polygon class="st23" points="984.56,703.67 951.02,731.73 954.09,716.3 920.64,721.85 920.33,704.83 920.02,687.81 
				953.66,692.14 950.03,676.83 			"/>
		</g>
		<g style="clip-path:url(#SVGID_00000137094661013412780860000002333884602348572581_);">
			<polygon class="st23" points="984.56,358.16 951.02,386.23 954.09,370.79 920.64,376.34 920.33,359.32 920.02,342.3 
				953.66,346.64 950.03,331.32 			"/>
		</g>
		<g style="clip-path:url(#SVGID_00000137094661013412780860000002333884602348572581_);">
			<polygon class="st23" points="723.41,554.21 751.48,587.75 736.04,584.68 741.59,618.14 724.57,618.44 707.55,618.75 
				711.89,585.12 696.58,588.74 			"/>
		</g>
		<g style="clip-path:url(#SVGID_00000137094661013412780860000002333884602348572581_);">
			<polygon class="st23" points="723.41,442.84 751.48,476.39 736.04,473.32 741.59,506.77 724.57,507.08 707.55,507.39 
				711.89,473.75 696.58,477.38 			"/>
		</g>
		<g style="clip-path:url(#SVGID_00000137094661013412780860000002333884602348572581_);">
			<polygon class="st23" points="494.92,618.75 466.85,585.21 482.28,588.28 476.74,554.82 493.76,554.52 510.77,554.21 
				506.44,587.84 521.75,584.22 			"/>
		</g>
		<g style="clip-path:url(#SVGID_00000137094661013412780860000002333884602348572581_);">
			<polygon class="st23" points="1034.81,587.1 1068.35,559.03 1065.28,574.46 1098.74,568.91 1099.04,585.93 1099.35,602.95 
				1065.72,598.62 1069.34,613.93 			"/>
		</g>
		<g style="clip-path:url(#SVGID_00000137094661013412780860000002333884602348572581_);">
			<polygon class="st23" points="1151.03,704.9 1184.57,676.83 1181.5,692.27 1214.96,686.72 1215.27,703.74 1215.57,720.76 
				1181.94,716.42 1185.57,731.73 			"/>
		</g>
		<g style="clip-path:url(#SVGID_00000137094661013412780860000002333884602348572581_);">
			<polygon class="st23" points="1215.57,813.75 1182.03,841.82 1185.1,826.38 1151.64,831.93 1151.34,814.91 1151.03,797.89 
				1184.66,802.23 1181.04,786.92 			"/>
		</g>
		<g style="clip-path:url(#SVGID_00000137094661013412780860000002333884602348572581_);">
			<polygon class="st23" points="1151.03,927.26 1184.57,899.19 1181.5,914.62 1214.96,909.07 1215.27,926.09 1215.57,943.11 
				1181.94,938.78 1185.57,954.09 			"/>
		</g>
		<g style="clip-path:url(#SVGID_00000137094661013412780860000002333884602348572581_);">
			<polygon class="st23" points="1334.56,585.86 1301.02,613.93 1304.09,598.5 1270.63,604.05 1270.32,587.03 1270.02,570.01 
				1303.65,574.34 1300.02,559.03 			"/>
		</g>
		<g style="clip-path:url(#SVGID_00000137094661013412780860000002333884602348572581_);">
			<polygon class="st23" points="1301.67,672.01 1329.74,705.56 1314.31,702.48 1319.85,735.94 1302.83,736.25 1285.81,736.56 
				1290.15,702.92 1274.84,706.55 			"/>
		</g>
		<g style="clip-path:url(#SVGID_00000137094661013412780860000002333884602348572581_);">
			<polygon class="st23" points="1301.67,782.1 1329.74,815.64 1314.31,812.57 1319.85,846.02 1302.83,846.33 1285.81,846.64 
				1290.15,813 1274.84,816.63 			"/>
		</g>
		<g style="clip-path:url(#SVGID_00000137094661013412780860000002333884602348572581_);">
			<polygon class="st23" points="1270.02,927.26 1303.56,899.19 1300.49,914.62 1333.94,909.07 1334.25,926.09 1334.56,943.11 
				1300.93,938.78 1304.55,954.09 			"/>
		</g>
		<g style="clip-path:url(#SVGID_00000137094661013412780860000002333884602348572581_);">
			<polygon class="st23" points="921.48,587.1 955.02,559.03 951.95,574.46 985.41,568.91 985.72,585.93 986.02,602.95 
				952.39,598.62 956.02,613.93 			"/>
		</g>
		<g style="clip-path:url(#SVGID_00000137094661013412780860000002333884602348572581_);">
			<polygon class="st23" points="754.33,352.51 720.79,380.58 723.86,365.15 690.4,370.69 690.1,353.68 689.79,336.66 
				723.42,340.99 719.8,325.68 			"/>
		</g>
		<g style="clip-path:url(#SVGID_00000137094661013412780860000002333884602348572581_);">
			<polygon class="st23" points="573.36,927.26 606.91,899.19 603.84,914.62 637.29,909.07 637.6,926.09 637.91,943.11 
				604.27,938.78 607.9,954.09 			"/>
		</g>
		<g style="clip-path:url(#SVGID_00000137094661013412780860000002333884602348572581_);">
			<polygon class="st23" points="920.17,927.26 953.72,899.19 950.65,914.62 984.1,909.07 984.41,926.09 984.72,943.11 
				951.08,938.78 954.71,954.09 			"/>
		</g>
		<g style="clip-path:url(#SVGID_00000137094661013412780860000002333884602348572581_);">
			<polygon class="st23" points="387.18,846.64 359.12,813.1 374.55,816.17 369,782.71 386.02,782.4 403.04,782.1 398.71,815.73 
				414.02,812.1 			"/>
		</g>
		<g style="clip-path:url(#SVGID_00000137094661013412780860000002333884602348572581_);">
			<polygon class="st23" points="418.84,926.02 385.3,954.09 388.37,938.66 354.91,944.21 354.6,927.19 354.3,910.17 387.93,914.5 
				384.3,899.19 			"/>
		</g>
		<g style="clip-path:url(#SVGID_00000137094661013412780860000002333884602348572581_);">
			<polygon class="st23" points="529.03,813.75 495.48,841.82 498.55,826.38 465.1,831.93 464.79,814.91 464.48,797.89 
				498.12,802.23 494.49,786.92 			"/>
		</g>
		<g style="clip-path:url(#SVGID_00000137094661013412780860000002333884602348572581_);">
			<polygon class="st23" points="642.7,813.75 609.16,841.82 612.23,826.38 578.77,831.93 578.47,814.91 578.16,797.89 
				611.79,802.23 608.17,786.92 			"/>
		</g>
		<g style="clip-path:url(#SVGID_00000137094661013412780860000002333884602348572581_);">
			<polygon class="st23" points="954.37,507.39 926.3,473.84 941.73,476.92 936.19,443.46 953.21,443.15 970.23,442.84 
				965.89,476.48 981.2,472.85 			"/>
		</g>
		<g style="clip-path:url(#SVGID_00000137094661013412780860000002333884602348572581_);">
			<polygon class="st23" points="874.87,813.75 841.33,841.82 844.4,826.38 810.94,831.93 810.64,814.91 810.33,797.89 
				843.96,802.23 840.34,786.92 			"/>
		</g>
		<g style="clip-path:url(#SVGID_00000137094661013412780860000002333884602348572581_);">
			<polygon class="st23" points="1070.54,736.56 1042.48,703.01 1057.91,706.08 1052.36,672.63 1069.38,672.32 1086.4,672.01 
				1082.07,705.65 1097.38,702.02 			"/>
		</g>
		<g style="clip-path:url(#SVGID_00000137094661013412780860000002333884602348572581_);">
			<polygon class="st23" points="1102.2,813.75 1068.66,841.82 1071.73,826.38 1038.27,831.93 1037.96,814.91 1037.66,797.89 
				1071.29,802.23 1067.66,786.92 			"/>
		</g>
		<g style="clip-path:url(#SVGID_00000137094661013412780860000002333884602348572581_);">
			<polygon class="st23" points="1102.2,926.02 1068.66,954.09 1071.73,938.66 1038.27,944.21 1037.96,927.19 1037.66,910.17 
				1071.29,914.5 1067.66,899.19 			"/>
		</g>
		<g style="clip-path:url(#SVGID_00000137094661013412780860000002333884602348572581_);">
			<polygon class="st23" points="954.82,782.1 982.89,815.64 967.45,812.57 973,846.02 955.98,846.33 938.96,846.64 943.3,813 
				927.98,816.63 			"/>
		</g>
		<g style="clip-path:url(#SVGID_00000137094661013412780860000002333884602348572581_);">
			<polygon class="st22" points="1414.91,839.04 1386.84,805.5 1402.27,808.57 1396.73,775.12 1413.75,774.81 1430.77,774.5 
				1426.43,808.14 1441.74,804.51 			"/>
		</g>
		<g style="clip-path:url(#SVGID_00000137094661013412780860000002333884602348572581_);">
			<polygon class="st23" points="611.04,507.39 582.98,473.84 598.41,476.92 592.86,443.46 609.88,443.15 626.9,442.84 
				622.57,476.48 637.88,472.85 			"/>
		</g>
		<g style="clip-path:url(#SVGID_00000137094661013412780860000002333884602348572581_);">
			<polygon class="st23" points="871.52,474.5 837.97,502.57 841.05,487.13 807.59,492.68 807.28,475.66 806.97,458.64 
				840.61,462.98 836.98,447.66 			"/>
		</g>
		<g style="clip-path:url(#SVGID_00000137094661013412780860000002333884602348572581_);">
			<polygon class="st23" points="611.04,618.75 582.98,585.21 598.41,588.28 592.86,554.82 609.88,554.52 626.9,554.21 
				622.57,587.84 637.88,584.22 			"/>
		</g>
		<g style="clip-path:url(#SVGID_00000137094661013412780860000002333884602348572581_);">
			<polygon class="st23" points="648.96,240.86 615.42,268.93 618.49,253.5 585.03,259.04 584.72,242.02 584.42,225 618.05,229.34 
				614.42,214.03 			"/>
		</g>
		<g style="clip-path:url(#SVGID_00000137094661013412780860000002333884602348572581_);">
			<polygon class="st23" points="758.68,240.86 725.14,268.93 728.21,253.5 694.75,259.04 694.45,242.02 694.14,225 727.77,229.34 
				724.15,214.03 			"/>
		</g>
		<g style="clip-path:url(#SVGID_00000137094661013412780860000002333884602348572581_);">
			<polygon class="st23" points="868.4,240.86 834.86,268.93 837.93,253.5 804.48,259.04 804.17,242.02 803.86,225 837.5,229.34 
				833.87,214.03 			"/>
		</g>
		<g style="clip-path:url(#SVGID_00000137094661013412780860000002333884602348572581_);">
			<polygon class="st23" points="982.7,240.86 949.16,268.93 952.23,253.5 918.77,259.04 918.46,242.02 918.16,225 951.79,229.34 
				948.16,214.03 			"/>
		</g>
		<g style="clip-path:url(#SVGID_00000137094661013412780860000002333884602348572581_);">
			<polygon class="st23" points="1215.57,240.86 1182.03,268.93 1185.1,253.5 1151.64,259.04 1151.34,242.02 1151.03,225 
				1184.66,229.34 1181.04,214.03 			"/>
		</g>
		<g style="clip-path:url(#SVGID_00000137094661013412780860000002333884602348572581_);">
			<polygon class="st23" points="1334.56,240.86 1301.02,268.93 1304.09,253.5 1270.63,259.04 1270.32,242.02 1270.02,225 
				1303.65,229.34 1300.02,214.03 			"/>
		</g>
		<g style="clip-path:url(#SVGID_00000137094661013412780860000002333884602348572581_);">
			<polygon class="st23" points="1443.55,240.86 1410,268.93 1413.08,253.5 1379.62,259.04 1379.31,242.02 1379,225 1412.64,229.34 
				1409.01,214.03 			"/>
		</g>
		<g style="clip-path:url(#SVGID_00000137094661013412780860000002333884602348572581_);">
			<polygon class="st23" points="1552.9,240.86 1519.35,268.93 1522.43,253.5 1488.97,259.04 1488.66,242.02 1488.35,225 
				1521.99,229.34 1518.36,214.03 			"/>
		</g>
		<g style="clip-path:url(#SVGID_00000137094661013412780860000002333884602348572581_);">
			<polygon class="st23" points="381.55,618.75 353.49,585.21 368.92,588.28 363.37,554.82 380.39,554.52 397.41,554.21 
				393.08,587.84 408.39,584.22 			"/>
		</g>
		<g style="clip-path:url(#SVGID_00000137094661013412780860000002333884602348572581_);">
			<polygon class="st23" points="381.55,507.39 353.49,473.84 368.92,476.92 363.37,443.46 380.39,443.15 397.41,442.84 
				393.08,476.48 408.39,472.85 			"/>
		</g>
		<g style="clip-path:url(#SVGID_00000137094661013412780860000002333884602348572581_);">
			<polygon class="st23" points="381.55,736.56 353.49,703.01 368.92,706.08 363.37,672.63 380.39,672.32 397.41,672.01 
				393.08,705.65 408.39,702.02 			"/>
		</g>
	</g>
</g>
<g id="direction_path" class="st24">
	<polyline class="st25" points="500.51,345.7 500.51,477.34 498.99,691.27 498.99,835.57 722.03,835.57 722.03,336.84 
		1397.97,336.84 1397.97,465.95 932.15,465.95 932.15,614.05 818.23,614.05 818.23,805.19 956.2,805.19 956.2,692.53 
		1054.94,692.53 1054.94,853.29 1272.66,853.29 1272.66,565.95 1433.42,565.95 1433.42,715.32 	"/>
</g>
<g id="Monkey__x26__banana">
	<g>
		<path class="st26" d="M328.74,237.08c-9.86-8.42-18.46-18.2-26.89-28.06c-14.42-16.86-28.53-34.09-40.14-53
			c-2.29-3.73-4.57-7.62-8.06-10.26s-8.6-3.69-12.25-1.26c-3.65,2.42-4.09,8.9-0.18,10.86c-2.25,1.53-4.59,3.14-5.89,5.53
			c-1.3,2.39-1.18,5.79,1.01,7.41c3.24,2.4,7.95-0.58,11.82,0.53c1.99,0.57,3.5,2.15,4.88,3.68c14.22,15.68,26.39,33.12,40.52,48.89
			c14.13,15.76,30.69,30.09,50.59,37.3c6.92,2.5,15.08,4.41,22.4,2.58c5.65-1.4,6.53-3.45,1.8-6.79c-4.76-3.36-11.26-4.26-16.8-5.42
			C342.68,247.23,335.61,242.94,328.74,237.08z"/>
		<path class="st27" d="M379.76,314.47c-1.15,6.63-6.75,11.95-13.18,13.93c-6.43,1.98-13.49,0.98-19.73-1.53
			c-14.27-5.76-24.25-18.58-33.53-30.86c-21.67-28.67-43.34-57.34-65.02-86.01c-9.75-12.9-19.61-25.91-31.97-36.34
			c-7.14-6.02-15.06-11.12-23.5-15.13c-8.33-3.95-17.45-6.88-26.64-6.12c-7.64,0.63-14.92,3.8-21.16,8.24
			c-12.34,8.78-20.9,22.91-22.25,37.99c-1.34,15.08,4.81,30.8,16.51,40.42c4.73,3.89,10.85,6.87,16.84,5.62
			c5.99-1.26,10.78-8.33,7.89-13.73c-2.65-4.96-9.3-5.6-14.56-7.59c-13.89-5.26-19.75-23.86-13.54-37.36s21.78-21.15,36.63-20.68
			c14.85,0.46,28.79,7.91,39.84,17.85c11.05,9.93,19.61,22.27,28.09,34.47c28.64,41.2,57.86,82.62,95.19,116.15
			c7.54,6.77,16.13,13.51,26.25,14.08c3.9,0.22,7.82-0.51,11.5-1.81c5.94-2.09,11.51-5.85,14.65-11.32
			c3.14-5.47,3.42-12.77-0.27-17.88"/>
		<path class="st26" d="M359.14,357.26c-0.45,0.95-0.87,1.96-0.82,3c0.08,1.57,1.21,2.88,2.35,3.96c3.87,3.67,8.64,6.38,13.77,7.85
			c9.95,2.84,20.55,0.93,30.89,0.71c10.35-0.22,21.9,1.94,28,10.3c5.31,7.28,5.8,18.35,13.6,22.87c1.61,0.93,3.7,1.46,5.27,0.48
			c1.29-0.8,1.85-2.35,2.32-3.79c1.38-4.18,2.75-8.36,4.13-12.54c0.24-0.74,0.49-1.51,0.37-2.28c-0.15-0.99-0.88-1.78-1.58-2.5
			c-4.26-4.42-8.71-8.75-13.96-11.92c-17.94-10.81-41.96-6.28-60.14-16.69c0.79-6.78,10-9.32,12.51-15.67
			c4.14-10.48-10.22-15.48-17.21-9.81c-2.98,2.41-4.85,6.42-7.29,9.34C366.81,345.99,362.21,350.72,359.14,357.26z"/>
		<path class="st26" d="M478.52,294.37c1.04-0.13,2.13-0.23,3.11,0.14c1.47,0.56,2.37,2.04,3.05,3.46
			c2.3,4.81,3.42,10.18,3.24,15.51c-0.35,10.34-5.42,19.84-8.82,29.62c-3.39,9.78-4.88,21.44,1.2,29.81
			c5.3,7.29,15.68,11.16,17.58,19.97c0.39,1.81,0.25,3.97-1.16,5.16c-1.16,0.98-2.81,1.04-4.32,1.04c-4.4,0.03-8.8,0.05-13.2,0.08
			c-0.78,0-1.59,0-2.29-0.35c-0.89-0.45-1.42-1.38-1.89-2.27c-2.89-5.41-5.65-10.97-7.05-16.95c-4.78-20.39,6.91-41.86,2.59-62.36
			c-6.69-1.34-11.95,6.65-18.76,7.09c-11.24,0.72-11.59-14.48-4.05-19.39c3.21-2.09,7.6-2.64,11.12-4.07
			C465.45,298.21,471.36,295.29,478.52,294.37z"/>
		<path class="st26" d="M469.97,251.2c9.25,9.73,18.5,19.45,27.74,29.18c6.36,6.68,12.79,13.43,20.54,18.43
			c5.62,3.62,11.82,6.25,17.49,9.77c5.68,3.52,10.98,8.19,13.43,14.41c0.69,1.75,1.14,3.66,0.77,5.5c-0.67,3.31-3.99,5.62-7.35,5.99
			s-6.71-0.82-9.69-2.41c-3.95-2.1-8.93-4.87-12.41-2.07c-2.58-4.54-2.19-10.23-4.32-15c-2.52-5.65-8.11-9.15-13.04-12.9
			c-17.82-13.56-29.41-33.38-46.43-47.78c-4.32-3.65-8.94-6.84-13.92-9.5c-3.9-2.08-10.35-3.81-12.52-7.99
			c-4.14-7.99,3.53-13.53,10.4-10.27C452.14,231.99,461.38,242.16,469.97,251.2z"/>
		<path class="st27" d="M434.31,220.92c7.44,7.21,12.16,16.74,16.19,26.29c5.69,13.52,10.33,27.84,9.99,42.5
			c-0.37,15.84-6.81,31.47-17.71,42.97c-4.2,4.44-9.1,8.31-14.68,10.8c-16.19,7.22-36.16,1.39-48.85-11s-18.94-30.1-21.16-47.69
			c-1.87-14.82-0.91-30.74,7.2-43.28"/>
		<path class="st26" d="M334.38,128.85c7.2-12.34,18.9-21.74,32.02-27.4c13.03-5.62,28.44-7.57,41.25-1.47
			c14.83,7.07,22.99,23.03,29.27,38.2c4.73-8.92,5.38-21.65,14.75-25.41c5.22-2.09,11.4-0.14,15.64,3.56
			c4.24,3.7,6.89,8.86,9.15,14.01c3.24,7.41,5.44,17.17-0.49,22.66c-5.84,5.41-15.17,2.69-22.53-0.33
			c5.69,6.6,11.58,13.63,13.2,22.19c2.71,14.41-7.4,27.91-17.73,38.32c-8.42,8.5-17.42,16.42-26.91,23.71
			c-7.33,5.62-15.16,10.96-24.09,13.32c-15.92,4.21-33.02-1.77-46.5-11.22c-7.53-5.28-14.38-11.76-18.88-19.77
			c-4.5-8.01-6.47-17.69-4.11-26.58c-2.07,3.75-4.2,7.58-7.4,10.43s-7.72,4.59-11.83,3.39c-2.72-0.79-4.93-2.75-6.85-4.83
			c-6.95-7.52-11.22-17.46-11.89-27.68c-0.35-5.28,0.44-11.06,4.15-14.83c4.55-4.62,12.27-4.73,18.15-1.99
			c9.04,4.19,14.98,16.37,14.31,0.6C326.63,147.69,329.32,137.53,334.38,128.85z"/>
		<path class="st28" d="M392.69,129.47c7.57-5.47,18.69-5.43,26.19,0.14c7.5,5.57,10.73,16.26,7.53,25.03
			c6.16-2.56,13.59-0.96,18.78,3.22c9.99,8.04,11.01,23.64,5.52,35.23c-5.48,11.59-15.94,19.97-26.42,27.35
			c-8.05,5.66-16.47,11.07-25.88,13.93c-20.48,6.21-44.43-1.47-57.48-18.44c-5.58-7.26-9.23-17.3-5.22-25.54
			c3.87-7.96,13.26-11.32,19.8-17.29c-3.97-7.52-7.56-15.74-6.79-24.21c0.77-8.47,7.39-16.95,15.9-16.93
			c9.31,0.02,15.2,9.11,18.71,16.61C383.75,141.2,386.47,133.96,392.69,129.47z"/>
		<g>
			<path class="st22" d="M393.24,152c-1.23-5.19-0.03-11.19,4.69-14.11c10.33-8.39,24.97,9.55,22.24,19.92
				c-1.67,6.38-8.35,9.4-14.52,7.82C399.45,164.03,394.68,158.08,393.24,152z"/>
			<path class="st29" d="M398.82,154.5c1.58-2.63,4.68-3.12,6.85-2.34c1.73,0.62,2.87,2.43,3.07,4.22c0.39,3.56-2.76,7.17-6.47,6.31
				C398.83,161.89,396.87,157.74,398.82,154.5z"/>
		</g>
		<g>
			<path class="st22" d="M354.89,151.1c1-5.23,4.53-10.23,10.04-10.97c12.85-3.45,18.9,18.9,12.18,27.26
				c-4.13,5.14-11.46,5.17-16.44,1.22C355.65,164.61,353.72,157.23,354.89,151.1z"/>
			<path class="st29" d="M367.66,160.75c1.23-0.69,5.72-1.3,7.21,0.66c1.12,1.46,1.63,3.39,1.08,5.11c-1.1,3.41-5.45,5.42-8.48,3.12
				C364.65,167.51,364.36,162.61,367.66,160.75z"/>
		</g>
		<path class="st30" d="M396.06,173.6c-0.04-0.07-0.1-0.13-0.14-0.22c-0.26-0.7,0.09-1.71,0.87-1.93c1.45-0.4,3.04-0.17,4.05,1.04
			c0.96,1.14,0.96,2.95-0.03,4.07c-1.01,1.14-2.85,1.23-3.99,0.23C395.93,176.01,395.64,174.69,396.06,173.6z"/>
		<path class="st30" d="M383.31,179.92c-0.32-1.63,0.59-3.04,1.96-3.81c0.24-0.54,0.63-1.02,1.18-1.38c0.88-0.58,1.82-0.2,2.28,0.68
			c1.45,2.82-1.24,6.05-4.16,5.84C383.86,181.2,383.43,180.54,383.31,179.92z"/>
		<path class="st30" d="M345.66,194.5c13.43,10.11,30.49,14.16,46.97,10.39c16.39-3.75,36.58-16.48,38.55-34.71
			c0.21-1.92,3.16-1.44,2.95,0.46c-2.04,18.96-22.33,32.5-39.38,36.83c-17.78,4.51-36.38,0.34-50.95-10.63
			C342.25,195.68,344.12,193.34,345.66,194.5z"/>
		<path class="st28" d="M436.31,284.62c-2.08-5.53-4.94-10.88-9.18-14.99c-4.24-4.12-9.98-6.91-15.89-6.72
			c-7.36,0.24-14.03,5.11-17.87,11.38s-5.2,13.78-5.47,21.14c-0.31,8.37,0.69,16.78,2.96,24.84c0.95,3.36,2.17,6.76,4.5,9.37
			c3.26,3.65,8.29,5.24,13.16,5.67c9.58,0.84,25.43-2.92,30.17-12.49C444,312.13,440.25,295.1,436.31,284.62z"/>
		<path class="st27" d="M457.44,125.92c3.27,2.48,1.71,8.01,4.14,11.32c0.81,1.11,2.02,1.87,2.94,2.9c0.92,1.03,1.53,2.57,0.87,3.77
			c-0.6,1.09-1.99,1.46-3.23,1.58c-4.9,0.5-7.2-0.93-10.87,1.19c-1.54,0.89-2.04,5.18-4.66,0.63
			C443.38,141.68,452.69,127.97,457.44,125.92z"/>
		<path class="st27" d="M309.83,171.63c1.24,1.62,2.38,3.32,3.41,5.08c0.33,0.56,0.65,1.15,0.67,1.79c0.06,2.26-3.29,2.99-4.15,5.07
			c-0.7,1.7,0.62,3.69,2.33,4.38c1.7,0.69,3.62,0.44,5.44,0.19c0.61,7.99,9.3,0.61,8.48-4.88c-0.46-3.11-3.34-7.08-5.65-8.99
			C318.42,172.66,310.16,172.07,309.83,171.63z"/>
	</g>
	<g>
		<g>
			<g>
				<g>
					<g>
						<path class="st31" d="M1490.63,803.8l-15.12-2.54c0,0-28.42,104.95-109.98,108.75l-12.29,1.06l-0.84,8.59l14.43,4.27
							c0,0,13.32,29.22,69.41,9.31C1492.35,913.33,1502.03,843.95,1490.63,803.8z"/>
						<polygon class="st32" points="1366.84,923.93 1365.53,910.01 1353.24,911.07 1352.41,919.66 						"/>
						<path class="st33" d="M1482.78,802.48l-7.27-1.22c0,0-28.42,104.95-109.98,108.75l1.3,13.92
							C1366.84,923.93,1490.56,940.31,1482.78,802.48z"/>
						<polygon class="st34" points="1490.63,803.8 1493.56,780.04 1477.61,777.4 1475.52,801.26 						"/>
						<polygon class="st35" points="1482.78,802.48 1485.74,778.74 1493.56,780.04 1490.63,803.8 						"/>
					</g>
				</g>
			</g>
			<path class="st36" d="M1459.04,900.21c-11.43,11.98-26.53,19.9-42.75,22.56c-3.27,0.54-2.64,5.71,0.65,5.17
				c17.63-2.9,33.74-11.51,46.14-24.51C1465.4,901.02,1461.33,897.81,1459.04,900.21z"/>
			<path class="st36" d="M1486.99,861.3c2.31-7.85,3.63-15.84,3.82-24.03c0.07-3.31-5.04-4.03-5.12-0.67
				c-0.17,7.69-1.27,15.3-3.45,22.68C1481.31,862.46,1486.05,864.52,1486.99,861.3z"/>
			<path class="st37" d="M1391.21,920c1.93-1.22,1.58-4.53-0.94-4.82c-2.29-0.27-4.58,0.03-6.73,0.89
				c-2.17,0.86-1.87,3.48-0.44,4.55c1.2,2.29,4.17,3.21,6.57,2.39C1390.87,922.6,1391.47,921.19,1391.21,920z"/>
			<path class="st37" d="M1394.93,932.89c0.06-0.66-0.06-1.37-0.49-1.9c-0.41-0.51-1.05-1.01-1.73-1.02
				c-0.66-0.01-1.32-0.03-1.98-0.04c-0.7-0.01-1.3,0.06-1.88,0.5c-0.51,0.39-0.96,1.09-1.02,1.75c-0.06,0.66,0.06,1.37,0.49,1.9
				c0.41,0.51,1.05,1.01,1.73,1.02c0.66,0.01,1.32,0.03,1.98,0.04c0.7,0.01,1.3-0.06,1.88-0.5
				C1394.43,934.25,1394.87,933.55,1394.93,932.89z"/>
			<path class="st37" d="M1406.46,915.2c-3.06-1.3-5.09,3.5-2.02,4.81C1407.49,921.31,1409.52,916.5,1406.46,915.2z"/>
			<path class="st37" d="M1374.85,914.63c-3.06-1.3-5.09,3.5-2.02,4.81C1375.89,920.74,1377.92,915.93,1374.85,914.63z"/>
			<path class="st37" d="M1480.35,821.02c-1.31-0.49-2.82,0.04-3.39,1.39l-0.29,0.68c-0.53,1.26,0.06,2.93,1.36,3.41
				c1.31,0.49,2.82-0.04,3.39-1.39l0.29-0.68C1482.24,823.18,1481.65,821.51,1480.35,821.02z"/>
			<path class="st37" d="M1490.78,814.19c-3.06-1.3-5.09,3.5-2.02,4.81C1491.82,820.3,1493.85,815.49,1490.78,814.19z"/>
			<path class="st37" d="M1481.62,874.72c-1.31-0.49-2.82,0.04-3.39,1.39l-1.01,2.39c-0.53,1.26,0.06,2.93,1.36,3.41
				c1.31,0.49,2.82-0.04,3.39-1.39l1.01-2.39C1483.51,876.87,1482.92,875.2,1481.62,874.72z"/>
			<path class="st37" d="M1467.96,888.23c-3.06-1.3-5.09,3.5-2.02,4.81C1469,894.34,1471.02,889.53,1467.96,888.23z"/>
		</g>
		<g>
			<g>
				<g>
					<g>
						<path class="st31" d="M1505.55,795.67l-14.39,5.43c0,0,27.26,105.01-41.68,149.46l-10.15,7.12l3.53,7.84l14.64-3.59
							c0,0,26.03,18.53,64.88-26.99C1561.24,889.43,1535.31,824.6,1505.55,795.67z"/>
						<polygon class="st32" points="1457.5,961.93 1449.48,950.56 1439.33,957.68 1442.86,965.52 						"/>
						<path class="st33" d="M1498.07,798.49l-6.92,2.61c0,0,27.26,105.01-41.68,149.46l8.02,11.37
							C1457.5,961.93,1573.04,913.63,1498.07,798.49z"/>
						<polygon class="st34" points="1505.55,795.67 1496.33,773.66 1481.17,779.42 1491.16,801.1 						"/>
						<polygon class="st35" points="1498.07,798.49 1488.9,776.49 1496.33,773.66 1505.55,795.67 						"/>
					</g>
				</g>
			</g>
			<path class="st36" d="M1525.83,894.9c-4,16.12-13.19,30.58-25.96,41.07c-2.58,2.12,0.53,6.27,3.12,4.14
				c13.87-11.4,23.61-26.97,27.94-44.46C1531.75,892.39,1526.63,891.67,1525.83,894.9z"/>
			<path class="st37" d="M1533.69,847.08c1.07-2.03-0.87-4.71-3.2-3.69c-2.13,0.93-3.96,2.34-5.4,4.17
				c-1.45,1.84,0.1,3.95,1.87,4.16c2.18,1.37,5.21,0.67,6.89-1.25C1534.68,849.51,1534.5,847.98,1533.69,847.08z"/>
			<path class="st37" d="M1487.58,934.39c-3.3,0.42-2.68,5.59,0.62,5.17C1491.5,939.14,1490.89,933.97,1487.58,934.39z"/>
			<path class="st37" d="M1482.37,951.49c-3.3,0.42-2.68,5.59,0.62,5.17C1486.29,956.24,1485.68,951.07,1482.37,951.49z"/>
			<path class="st37" d="M1513.73,858.2c-3.3,0.42-2.68,5.59,0.62,5.17C1517.65,862.95,1517.03,857.78,1513.73,858.2z"/>
			<path class="st37" d="M1491.46,944.18c-1.38,0.24-2.43,1.46-2.25,2.91l0.31,2.57c0.16,1.35,1.5,2.5,2.87,2.26
				c1.38-0.24,2.43-1.46,2.25-2.91l-0.31-2.57C1494.17,945.08,1492.84,943.94,1491.46,944.18z"/>
			<path class="st37" d="M1527.65,880.05c-3.3,0.42-2.68,5.59,0.62,5.17C1531.57,884.8,1530.95,879.63,1527.65,880.05z"/>
		</g>
		<g>
			<g>
				<g>
					<g>
						<path class="st31" d="M1515.22,784.16l-12.58,11.49c0,0,70.48,96.21,17.66,170.15l-7.54,11.47l6.79,6.57l13.58-9.72
							c0,0,34.22,8.22,55.72-54.38C1610.35,857.14,1557.49,801.49,1515.22,784.16z"/>
						<polygon class="st32" points="1533.14,974.13 1520.3,965.8 1512.76,977.27 1519.55,983.85 						"/>
						<path class="st33" d="M1508.69,790.13l-6.05,5.52c0,0,70.48,96.21,17.66,170.15l12.83,8.32
							C1533.14,974.13,1632.26,877.04,1508.69,790.13z"/>
						<polygon class="st34" points="1515.22,784.16 1496.85,765.45 1483.61,777.59 1502.64,795.66 						"/>
						<polygon class="st35" points="1508.69,790.13 1490.36,771.4 1496.85,765.45 1515.22,784.16 						"/>
					</g>
				</g>
			</g>
			<path class="st36" d="M1576.19,877.35c2.42,18.14-1.18,36.74-10.04,52.74c-1.79,3.23,3.08,6.2,4.88,2.95
				c9.64-17.39,13.33-37.34,10.71-57.02C1581.25,872.33,1575.71,873.71,1576.19,877.35z"/>
			<path class="st36" d="M1562.04,826.44c-5.15-7.36-11.09-13.95-17.99-19.68c-2.79-2.32-6.93,1.67-4.1,4.02
				c6.48,5.38,12.25,11.52,17.09,18.44C1559.12,832.2,1564.15,829.46,1562.04,826.44z"/>
			<path class="st37" d="M1572.74,941.54c0.28-2.52-2.8-4.46-4.78-2.46c-1.81,1.83-3.12,4.03-3.86,6.5c-0.75,2.48,1.7,4,3.6,3.48
				c2.79,0.5,5.62-1.46,6.57-4.13C1574.74,943.62,1573.94,942.13,1572.74,941.54z"/>
			<path class="st37" d="M1584.17,861.66c-0.53-0.5-1.22-0.88-1.97-0.87c-0.72,0.01-1.58,0.23-2.06,0.82
				c-0.46,0.57-0.93,1.13-1.39,1.7c-0.49,0.6-0.84,1.18-0.87,1.99c-0.02,0.71,0.28,1.58,0.8,2.08c0.53,0.5,1.22,0.88,1.97,0.87
				c0.72-0.01,1.58-0.23,2.06-0.82c0.46-0.57,0.93-1.13,1.39-1.7c0.49-0.6,0.84-1.18,0.87-1.99
				C1584.99,863.03,1584.69,862.16,1584.17,861.66z"/>
			<path class="st37" d="M1559.3,949.16c-3.22,1.79-0.49,6.83,2.73,5.04C1565.24,952.41,1562.52,947.37,1559.3,949.16z"/>
			<path class="st37" d="M1548.62,964.9c-3.22,1.79-0.49,6.83,2.73,5.04C1554.57,968.15,1551.84,963.11,1548.62,964.9z"/>
			<path class="st37" d="M1569.84,840.27c-1.32,0.81-1.9,2.5-1.14,3.91l1.36,2.51c0.71,1.32,2.55,1.94,3.87,1.13
				c1.32-0.81,1.9-2.5,1.14-3.91l-1.36-2.51C1572.99,840.08,1571.16,839.45,1569.84,840.27z"/>
		</g>
	</g>
</g>
</svg>
