<svg xmlns="http://www.w3.org/2000/svg" xmlns:xlink="http://www.w3.org/1999/xlink" viewBox="0 0 427.49 310.72"><defs><style>.cls-1,.cls-3,.cls-4{fill:none;}.cls-2{clip-path:url(#clip-path);}.cls-3{stroke:#f7a179;stroke-linecap:round;stroke-linejoin:round;}.cls-3,.cls-4{stroke-width:2px;}.cls-4{stroke:#3cb54a;stroke-miterlimit:10;}.cls-5{fill:#754c29;}.cls-6{fill:#603617;}.cls-7{fill:#d9a458;}.cls-8{fill:#fff;}.cls-9{fill:#231f20;}.cls-10{fill:#b33f33;}</style><clipPath id="clip-path"><rect class="cls-1" x="-1541.64" y="-165.85" width="816.36" height="1260.06" transform="translate(-669.28 1597.64) rotate(90)"/></clipPath></defs><g id="background"><g class="cls-2"><line class="cls-3" x1="66.72" y1="69.27" x2="66.72" y2="3386.53"/><line class="cls-3" x1="181.11" y1="69.27" x2="181.11" y2="3386.53"/><line class="cls-3" x1="295.5" y1="69.27" x2="295.5" y2="3386.53"/><line class="cls-3" x1="409.89" y1="69.27" x2="409.89" y2="3386.53"/><line class="cls-4" x1="-2451.58" y1="298.04" x2="867.44" y2="298.04"/><line class="cls-4" x1="-2451.58" y1="183.66" x2="867.44" y2="183.66"/><line class="cls-3" x1="-2451.58" y1="69.27" x2="867.44" y2="69.27"/></g></g><g id="Monkey_banana" data-name="Monkey &amp; banana"><path class="cls-5" d="M206.14,140.84c-9.86-8.42-18.46-18.2-26.89-28-14.42-16.86-28.53-34.1-40.13-53-2.29-3.74-4.57-7.63-8.07-10.26s-8.6-3.69-12.24-1.26-4.1,8.89-.18,10.86c-2.26,1.53-4.59,3.14-5.89,5.53s-1.18,5.8,1,7.42c3.25,2.4,8-.59,11.83.53,2,.57,3.49,2.15,4.88,3.68C144.67,92,156.84,109.41,171,125.18s30.69,30.09,50.59,37.29c6.92,2.51,15.08,4.41,22.4,2.59,5.65-1.41,6.53-3.45,1.8-6.79S234.5,154,229,152.85C220.08,151,213,146.71,206.14,140.84Z"/><path class="cls-6" d="M257.16,218.24c-1.15,6.62-6.75,11.95-13.18,13.92s-13.49,1-19.73-1.53C210,224.87,200,212.05,190.72,199.77l-65-86c-9.75-12.9-19.61-25.92-32-36.34a109.23,109.23,0,0,0-23.5-15.13c-8.33-3.95-17.45-6.88-26.64-6.12a43.11,43.11,0,0,0-21.16,8.24C10.09,73.19,1.52,87.32.18,102.4S5,133.2,16.69,142.81c4.73,3.89,10.85,6.88,16.84,5.62s10.78-8.33,7.89-13.73c-2.65-5-9.3-5.6-14.55-7.59C13,121.85,7.12,103.25,13.33,89.75S35.11,68.61,50,69.07,78.75,77,89.8,86.91s19.61,22.27,28.09,34.47c28.64,41.2,57.86,82.62,95.19,116.15,7.54,6.77,16.14,13.5,26.25,14.08a29.73,29.73,0,0,0,11.5-1.81c5.94-2.09,11.51-5.85,14.64-11.31s3.42-12.78-.27-17.89"/><path class="cls-5" d="M236.54,261a6.59,6.59,0,0,0-.82,3c.09,1.57,1.22,2.88,2.36,4a33.51,33.51,0,0,0,13.77,7.85c10,2.84,20.54.93,30.89.71s21.9,1.94,28,10.3c5.32,7.28,5.8,18.35,13.6,22.86,1.61.93,3.7,1.46,5.27.48,1.29-.8,1.85-2.35,2.33-3.79l4.12-12.54a4.85,4.85,0,0,0,.37-2.28,5,5,0,0,0-1.57-2.5c-4.26-4.41-8.71-8.75-14-11.92-17.94-10.81-42-6.28-60.14-16.69.78-6.78,10-9.33,12.51-15.68,4.13-10.47-10.22-15.48-17.22-9.8-3,2.41-4.85,6.42-7.29,9.33C244.21,249.76,239.61,254.49,236.54,261Z"/><path class="cls-5" d="M355.92,198.14a6.4,6.4,0,0,1,3.11.14c1.47.56,2.37,2,3.05,3.46a33.5,33.5,0,0,1,3.24,15.51c-.36,10.35-5.43,19.84-8.82,29.62s-4.88,21.44,1.2,29.81c5.3,7.3,15.68,11.16,17.58,20,.4,1.81.26,4-1.16,5.16-1.16,1-2.81,1-4.32,1.05l-13.2.08a5.06,5.06,0,0,1-2.29-.35,5,5,0,0,1-1.89-2.27c-2.89-5.41-5.65-11-7.05-16.95C340.59,263,352.28,241.51,348,221c-6.69-1.33-11.94,6.65-18.75,7.09-11.25.72-11.6-14.48-4.05-19.39,3.21-2.09,7.6-2.65,11.12-4.07C342.85,202,348.76,199.05,355.92,198.14Z"/><path class="cls-5" d="M347.37,155l27.75,29.18c6.35,6.68,12.79,13.43,20.54,18.43,5.62,3.62,11.82,6.25,17.49,9.77s11,8.19,13.44,14.41a9.75,9.75,0,0,1,.76,5.49c-.67,3.32-4,5.62-7.34,6s-6.71-.83-9.7-2.41c-3.94-2.1-8.93-4.88-12.41-2.07-2.58-4.55-2.19-10.23-4.32-15-2.52-5.65-8.11-9.15-13-12.9-17.82-13.56-29.41-33.38-46.43-47.78a79.55,79.55,0,0,0-13.93-9.51c-3.9-2.08-10.35-3.8-12.52-8-4.14-8,3.54-13.53,10.41-10.26C329.53,135.76,338.78,145.93,347.37,155Z"/><path class="cls-6" d="M311.71,124.69c7.44,7.21,12.16,16.74,16.18,26.29,5.69,13.52,10.33,27.84,10,42.5a65.33,65.33,0,0,1-17.71,43,46.69,46.69,0,0,1-14.68,10.8c-16.18,7.22-36.16,1.39-48.84-11s-18.95-30.11-21.17-47.69c-1.87-14.82-.91-30.75,7.21-43.28"/><path class="cls-5" d="M211.78,32.62c7.19-12.35,18.9-21.74,32-27.4s28.45-7.57,41.25-1.46c14.83,7.06,23,23,29.27,38.2,4.73-8.92,5.38-21.66,14.75-25.41,5.22-2.09,11.39-.14,15.63,3.56s6.89,8.86,9.15,14c3.24,7.41,5.44,17.17-.49,22.66s-15.16,2.69-22.53-.33c5.69,6.6,11.59,13.63,13.2,22.19,2.71,14.41-7.4,27.91-17.73,38.32a264.53,264.53,0,0,1-26.91,23.71c-7.33,5.62-15.16,11-24.09,13.32-15.92,4.21-33-1.77-46.5-11.22-7.53-5.28-14.39-11.76-18.89-19.77s-6.46-17.69-4.11-26.58c-2.07,3.75-4.2,7.58-7.4,10.43s-7.71,4.59-11.83,3.39a15.88,15.88,0,0,1-6.85-4.83,45.53,45.53,0,0,1-11.89-27.67c-.35-5.28.44-11.06,4.15-14.83,4.56-4.63,12.27-4.73,18.16-2,9,4.19,15,16.36,14.31.59A53.46,53.46,0,0,1,211.78,32.62Z"/><path class="cls-7" d="M270.09,33.23a22.78,22.78,0,0,1,26.19.14,22.47,22.47,0,0,1,7.53,25c6.15-2.56,13.58-1,18.78,3.22,10,8,11,23.64,5.52,35.24s-15.93,20-26.42,27.35c-8.05,5.66-16.47,11.07-25.89,13.92-20.48,6.22-44.43-1.47-57.47-18.44-5.58-7.26-9.23-17.3-5.22-25.53,3.87-8,13.26-11.32,19.79-17.29-4-7.52-7.56-15.74-6.79-24.21s7.4-16.95,15.9-16.93c9.31,0,15.2,9.11,18.71,16.61C261.15,45,263.87,37.73,270.09,33.23Z"/><path class="cls-8" d="M270.64,55.77c-1.23-5.19,0-11.19,4.69-14.12,10.33-8.39,25,9.55,22.25,19.93C295.9,68,289.23,71,283.06,69.39S272.08,61.84,270.64,55.77Z"/><path class="cls-9" d="M276.22,58.26a5.76,5.76,0,0,1,6.86-2.34,5,5,0,0,1,3.06,4.22c.39,3.56-2.76,7.17-6.47,6.31A5.56,5.56,0,0,1,276.22,58.26Z"/><path class="cls-8" d="M232.29,54.87c1-5.24,4.53-10.24,10-11,12.85-3.46,18.9,18.89,12.18,27.26-4.13,5.14-11.46,5.17-16.44,1.21S231.12,61,232.29,54.87Z"/><path class="cls-9" d="M245.06,64.52c1.23-.69,5.72-1.29,7.21.66a5.69,5.69,0,0,1,1.08,5.1c-1.1,3.41-5.45,5.42-8.48,3.13C242.05,71.28,241.76,66.38,245.06,64.52Z"/><path class="cls-10" d="M273.46,77.37c0-.08-.1-.13-.14-.22a1.5,1.5,0,0,1,.87-1.92,3.82,3.82,0,0,1,4.06,1,3.2,3.2,0,0,1,0,4.07,2.85,2.85,0,0,1-4.76-3Z"/><path class="cls-10" d="M260.71,83.69a3.57,3.57,0,0,1,2-3.81,3.12,3.12,0,0,1,1.18-1.38,1.51,1.51,0,0,1,2.27.68c1.46,2.81-1.23,6-4.16,5.84A1.52,1.52,0,0,1,260.71,83.69Z"/><path class="cls-10" d="M223.05,98.27a57,57,0,0,0,47,10.38c16.39-3.75,36.58-16.47,38.55-34.71.2-1.91,3.15-1.44,2.95.47-2,19-22.33,32.49-39.39,36.83a60.09,60.09,0,0,1-50.95-10.64C219.65,99.45,221.52,97.11,223.05,98.27Z"/><path class="cls-7" d="M313.71,188.39c-2.08-5.53-4.94-10.88-9.18-15s-10-6.91-15.88-6.72c-7.36.24-14,5.11-17.87,11.38s-5.2,13.79-5.47,21.14a80.46,80.46,0,0,0,3,24.84c.94,3.36,2.16,6.76,4.5,9.37,3.26,3.64,8.29,5.24,13.16,5.67,9.58.84,25.43-2.92,30.18-12.49C321.4,215.89,317.65,198.87,313.71,188.39Z"/><path class="cls-6" d="M334.84,29.69c3.27,2.48,1.71,8,4.14,11.32.81,1.11,2,1.87,2.93,2.89s1.54,2.57.87,3.77-2,1.46-3.23,1.59c-4.9.5-7.2-.93-10.86,1.18-1.55.89-2.05,5.18-4.67.63C320.78,45.45,330.09,31.74,334.84,29.69Z"/><path class="cls-6" d="M187.23,75.4a50.47,50.47,0,0,1,3.41,5.07,3.88,3.88,0,0,1,.67,1.8c.06,2.25-3.29,3-4.15,5.07-.7,1.7.62,3.69,2.33,4.38a10.53,10.53,0,0,0,5.44.18c.61,8,9.3.62,8.48-4.88-.46-3.11-3.34-7.07-5.64-9C195.82,76.42,187.56,75.84,187.23,75.4Z"/></g></svg>