<svg xmlns="http://www.w3.org/2000/svg" viewBox="0 0 241.4 218.4"><defs><style>.cls-1{fill:#e8c81c;}.cls-2{fill:#603917;}.cls-3{fill:#fddc0d;}.cls-4{fill:#8ac440;}.cls-5{fill:#7fb342;}.cls-6{fill:#fce6a1;}.cls-7{fill:#a1661b;}</style></defs><g id="Monkey_banana" data-name="Monkey &amp; banana"><path class="cls-1" d="M138.23,38.36l-15.12-2.55s-28.42,105-110,108.75L.84,145.62,0,154.21l14.43,4.27s13.32,29.22,69.41,9.31S149.62,78.5,138.23,38.36Z"/><polygon class="cls-2" points="14.43 158.48 13.13 144.56 0.84 145.62 0 154.21 14.43 158.48"/><path class="cls-3" d="M130.38,37l-7.27-1.22s-28.42,105-110,108.75l1.3,13.92S138.16,174.86,130.38,37Z"/><polygon class="cls-4" points="138.23 38.36 141.15 14.59 125.21 11.95 123.11 35.81 138.23 38.36"/><polygon class="cls-5" points="130.38 37.03 133.34 13.3 141.15 14.59 138.23 38.36 130.38 37.03"/><path class="cls-6" d="M106.64,134.76a76.37,76.37,0,0,1-42.75,22.57c-3.28.54-2.65,5.71.65,5.17A82.13,82.13,0,0,0,110.68,138C113,135.57,108.93,132.36,106.64,134.76Z"/><path class="cls-6" d="M134.59,95.85a92.32,92.32,0,0,0,3.82-24c.07-3.31-5-4-5.12-.67a87.06,87.06,0,0,1-3.45,22.68C128.9,97,133.64,99.07,134.59,95.85Z"/><path class="cls-7" d="M38.81,154.55c1.93-1.23,1.58-4.53-.94-4.83a13.83,13.83,0,0,0-6.73.9,2.61,2.61,0,0,0-.44,4.55,5.51,5.51,0,0,0,6.57,2.39A2.63,2.63,0,0,0,38.81,154.55Z"/><path class="cls-7" d="M42.53,167.44a2.63,2.63,0,0,0-.49-1.9,2.51,2.51,0,0,0-1.73-1l-2,0a2.82,2.82,0,0,0-1.89.5,2.62,2.62,0,0,0-.53,3.65,2.47,2.47,0,0,0,1.73,1l2,0a2.77,2.77,0,0,0,1.89-.5A2.68,2.68,0,0,0,42.53,167.44Z"/><path class="cls-7" d="M54.05,149.75c-3.06-1.3-5.08,3.5-2,4.81S57.11,151.05,54.05,149.75Z"/><path class="cls-7" d="M22.45,149.18c-3.06-1.3-5.09,3.5-2,4.81S25.51,150.48,22.45,149.18Z"/><path class="cls-7" d="M127.94,55.57A2.64,2.64,0,0,0,124.55,57l-.28.69a2.58,2.58,0,1,0,4.75,2l.28-.68A2.64,2.64,0,0,0,127.94,55.57Z"/><path class="cls-7" d="M138.38,48.74c-3.06-1.3-5.09,3.5-2,4.81S141.44,50,138.38,48.74Z"/><path class="cls-7" d="M129.21,109.27a2.63,2.63,0,0,0-3.39,1.39l-1,2.39a2.58,2.58,0,1,0,4.75,2l1-2.39A2.62,2.62,0,0,0,129.21,109.27Z"/><path class="cls-7" d="M115.56,122.78c-3.06-1.3-5.09,3.5-2,4.81S118.62,124.09,115.56,122.78Z"/><path class="cls-1" d="M153.14,30.22l-14.39,5.43s27.27,105-41.68,149.46l-10.15,7.12,3.53,7.84,14.64-3.59s26,18.53,64.89-27S182.91,59.15,153.14,30.22Z"/><polygon class="cls-2" points="105.09 196.48 97.07 185.11 86.92 192.23 90.45 200.07 105.09 196.48"/><path class="cls-3" d="M145.67,33l-6.92,2.61s27.27,105-41.68,149.46l8,11.37S220.64,148.19,145.67,33Z"/><polygon class="cls-4" points="153.14 30.22 143.92 8.21 128.77 13.97 138.75 35.65 153.14 30.22"/><polygon class="cls-5" points="145.67 33.04 136.49 11.04 143.92 8.21 153.14 30.22 145.67 33.04"/><path class="cls-6" d="M173.43,129.45a77.52,77.52,0,0,1-26,41.07c-2.58,2.12.53,6.27,3.12,4.14a83.27,83.27,0,0,0,27.94-44.46C179.34,126.94,174.23,126.22,173.43,129.45Z"/><path class="cls-7" d="M181.28,81.63c1.07-2-.86-4.71-3.2-3.69a13.87,13.87,0,0,0-5.4,4.17,2.6,2.6,0,0,0,1.87,4.16A5.55,5.55,0,0,0,181.44,85,2.62,2.62,0,0,0,181.28,81.63Z"/><path class="cls-7" d="M135.18,168.94c-3.3.42-2.69,5.59.62,5.17S138.48,168.52,135.18,168.94Z"/><path class="cls-7" d="M130,186c-3.3.42-2.68,5.59.62,5.17S133.27,185.62,130,186Z"/><path class="cls-7" d="M161.33,92.75c-3.3.42-2.69,5.59.62,5.17S164.63,92.33,161.33,92.75Z"/><path class="cls-7" d="M139.05,178.73a2.66,2.66,0,0,0-2.25,2.91l.31,2.57a2.59,2.59,0,0,0,2.87,2.26,2.66,2.66,0,0,0,2.26-2.91l-.31-2.57A2.61,2.61,0,0,0,139.05,178.73Z"/><path class="cls-7" d="M175.24,114.6c-3.3.42-2.68,5.59.62,5.17S178.54,114.18,175.24,114.6Z"/><path class="cls-1" d="M162.81,18.71l-12.58,11.5s70.48,96.21,17.67,170.15l-7.55,11.46,6.8,6.58,13.58-9.72s34.22,8.22,55.72-54.39S205.09,36,162.81,18.71Z"/><polygon class="cls-2" points="180.73 208.68 167.9 200.35 160.35 211.82 167.15 218.4 180.73 208.68"/><path class="cls-3" d="M156.28,24.68l-6.05,5.53s70.48,96.21,17.67,170.15l12.83,8.32S279.85,111.59,156.28,24.68Z"/><polygon class="cls-4" points="162.81 18.71 144.44 0 131.21 12.15 150.24 30.21 162.81 18.71"/><polygon class="cls-5" points="156.28 24.68 137.95 5.96 144.44 0 162.81 18.71 156.28 24.68"/><path class="cls-6" d="M223.79,111.9a85.8,85.8,0,0,1-10,52.73c-1.79,3.23,3.08,6.2,4.88,3a92.37,92.37,0,0,0,10.71-57C228.85,106.88,223.3,108.26,223.79,111.9Z"/><path class="cls-6" d="M209.63,61a99.54,99.54,0,0,0-18-19.68c-2.79-2.32-6.93,1.67-4.1,4a94.08,94.08,0,0,1,17.09,18.44C206.72,66.76,211.74,64,209.63,61Z"/><path class="cls-7" d="M220.34,176.09c.27-2.52-2.8-4.46-4.78-2.46a15.64,15.64,0,0,0-3.87,6.5c-.75,2.48,1.7,4,3.6,3.49a6.18,6.18,0,0,0,6.57-4.13A2.89,2.89,0,0,0,220.34,176.09Z"/><path class="cls-7" d="M231.76,96.21a2.81,2.81,0,0,0-2-.86,2.78,2.78,0,0,0-2.07.81l-1.39,1.7a3.23,3.23,0,0,0-.87,2,2.93,2.93,0,0,0,.8,2.08,2.89,2.89,0,0,0,2,.87,2.73,2.73,0,0,0,2.06-.82c.47-.56.93-1.13,1.4-1.7a3.14,3.14,0,0,0,.86-2A2.93,2.93,0,0,0,231.76,96.21Z"/><path class="cls-7" d="M206.89,183.71c-3.22,1.79-.49,6.83,2.73,5S210.11,181.92,206.89,183.71Z"/><path class="cls-7" d="M196.21,199.45c-3.22,1.79-.49,6.83,2.73,5S199.44,197.66,196.21,199.45Z"/><path class="cls-7" d="M217.44,74.82a3,3,0,0,0-1.14,3.9l1.36,2.51a2.86,2.86,0,0,0,3.87,1.13,3,3,0,0,0,1.13-3.91L221.3,76A2.84,2.84,0,0,0,217.44,74.82Z"/></g></svg>