<svg id="background" xmlns="http://www.w3.org/2000/svg" xmlns:xlink="http://www.w3.org/1999/xlink" viewBox="0 0 1920 1080"><defs><style>.cls-1,.cls-10,.cls-11,.cls-12,.cls-13,.cls-14,.cls-15,.cls-18,.cls-19,.cls-20,.cls-7,.cls-9{fill:none;}.cls-2{fill:#fffeeb;}.cls-3{fill:#faffcc;}.cls-4{fill:#dde991;}.cls-5{fill:#421e15;}.cls-6{fill:#37b34a;}.cls-10,.cls-11,.cls-12,.cls-15,.cls-7{stroke:#009345;}.cls-10,.cls-11,.cls-12,.cls-13,.cls-14,.cls-15,.cls-18,.cls-7,.cls-9{stroke-linecap:round;stroke-linejoin:round;}.cls-7{stroke-width:1.35px;}.cls-8{fill:#009345;}.cls-13,.cls-14,.cls-9{stroke:#004e26;}.cls-9{stroke-width:1.85px;}.cls-10{stroke-width:1.56px;}.cls-11{stroke-width:1.12px;}.cls-12{stroke-width:1.32px;}.cls-13{stroke-width:1.21px;}.cls-14{stroke-width:1.88px;}.cls-15{stroke-width:1.56px;}.cls-16{fill:#fff;}.cls-17{clip-path:url(#clip-path);}.cls-18{stroke:#f7a179;}.cls-18,.cls-19{stroke-width:2px;}.cls-19,.cls-20{stroke:#3cb54a;stroke-miterlimit:10;}.cls-20{stroke-width:4px;}.cls-21{fill:#3cb54a;}.cls-22{fill:#f15c5a;}</style><clipPath id="clip-path"><rect class="cls-1" x="546.57" y="-50.63" width="816.36" height="1260.06" transform="translate(1534.16 -375.35) rotate(90)"/></clipPath></defs><rect class="cls-2" width="1920" height="1080"/><path class="cls-3" d="M1920,208.29v671H0V342.94c196.1,31.3,376.45,121.74,501.31,198.7,330.17,203.5,753.51,178.56,1056.15-64q7.43-6,14.87-12.09C1711.65,350.61,1826.8,267.85,1920,208.29Z"/><path class="cls-4" d="M1920,666.21V1080H0V523.6c79.89-2.29,257.1,25.94,527.09,248.68q5.92,4.89,11.85,9.64a728.15,728.15,0,0,0,159.81,97.32,733.49,733.49,0,0,0,682-46.31C1509.42,753.64,1712,656.39,1920,666.21Z"/><path class="cls-5" d="M497.09,1080H421q-9.48-3.84-19.06-7.43-6.95-2.6-14-5.07h0a843.94,843.94,0,0,0-99.08-28.18q-12.51-2.77-25.1-5.19-15.07-2.88-30.21-5.28a1085.56,1085.56,0,0,0-118.26-11.93h0q-10.82-.51-21.64-.84l-2.62-.08q-11.11-.32-22.25-.44-18.19-.21-36.42.07h0q-16.2.23-32.4.83V992a360.29,360.29,0,0,1,51.4,2.13L0,962.19V951.81a451.57,451.57,0,0,1,45.09,22q5.37,3,10.66,6.17c1.43.85,2.86,1.72,4.29,2.59,5.27,3.22,10.56,6.6,16.48,8.36,7.15,2.14,14.77,1.8,22.23,1.65q13.78-.27,27.53.32c13.69.56,27.36,1.69,41,3.19h0l.2,0q9.85,1.08,19.69,2.39c16.07,2.13,32.1,4.65,48.09,7.23q9.39,1.51,18.8,3.09,8.06,1.35,16.12,2.75c54.82,9.54,109.79,21.29,161.62,39.92,3.14,1.14,6.27,2.29,9.39,3.48h0q12.9,4.89,25.52,10.4Q482.17,1072.18,497.09,1080Z"/><path class="cls-6" d="M41.78,963.79s-43.56-24.55-29.45-50.72,39.36-7.09,40.27,11C53.57,943.54,41.78,963.79,41.78,963.79Z"/><path class="cls-7" d="M26,905.65c5,14.08,17.49,59.34,20.1,73.17"/><path class="cls-7" d="M32.71,925.69c.62-1.74,2-3.11,3.11-4.58,2.85-3.73,4.31-8.31,5.71-12.79"/><path class="cls-7" d="M35.43,936.49a13.27,13.27,0,0,0,5.82-4.15,33.42,33.42,0,0,0,6.61-11.1"/><path class="cls-7" d="M39.68,949.84c2-1.71,4.68-2.77,6.3-4.89a14.73,14.73,0,0,0,2.11-4.71"/><path class="cls-7" d="M30.35,919.6q-2.58-.72-5.09-1.64A9.93,9.93,0,0,1,23,916.88a10.49,10.49,0,0,1-2.25-2.4l-2.36-3.09"/><path class="cls-7" d="M13.74,921a23.12,23.12,0,0,0,20.13,10.54"/><path class="cls-7" d="M19.13,935.62a32.82,32.82,0,0,0,18.34,9.5"/><path class="cls-8" d="M61,957.46s-33.67-59.7,1.45-80.38,51.19,19.61,39.4,41.49C89.2,942.07,61,957.46,61,957.46Z"/><path class="cls-9" d="M83.8,878.11c-4.16,20-24,80.54-28.15,102.45"/><path class="cls-9" d="M76.91,904.81a26.28,26.28,0,0,0,8.83-2.31c4.49-2,8.3-5.31,12-8.52"/><path class="cls-9" d="M78.08,898.79A25.76,25.76,0,0,1,64.8,881"/><path class="cls-9" d="M73.17,915.36c-3.88-1.66-6.71-5-9.4-8.29a46.68,46.68,0,0,1-5.17-7.18,15.39,15.39,0,0,1-2.08-8.48"/><path class="cls-9" d="M70.91,925c5.5.53,11-1.15,15.88-3.81s9.08-6.28,13.24-9.91"/><path class="cls-9" d="M67.6,937.67c.46,1,1.71,1.4,2.81,1.6a17.73,17.73,0,0,0,5.58.27,23.93,23.93,0,0,0,7.25-2.63"/><path class="cls-9" d="M68.56,931.25a45.79,45.79,0,0,1-15.47-17.39,7.38,7.38,0,0,1-1.09-4.2"/><path class="cls-6" d="M253.12,1008.54S209.55,984,223.66,957.82s39.36-7.09,40.27,11C264.9,988.29,253.12,1008.54,253.12,1008.54Z"/><path class="cls-7" d="M237.37,950.4c5,14.07,17.49,59.34,20.1,73.17"/><path class="cls-7" d="M244,970.44c.62-1.75,2-3.11,3.11-4.58,2.85-3.73,4.31-8.31,5.72-12.79"/><path class="cls-7" d="M246.77,981.24a13.24,13.24,0,0,0,5.81-4.16A33.41,33.41,0,0,0,259.2,966"/><path class="cls-7" d="M251,994.58c2.05-1.7,4.68-2.77,6.3-4.88a14.73,14.73,0,0,0,2.11-4.71"/><path class="cls-7" d="M241.68,964.34c-1.72-.47-3.41-1-5.09-1.63a9.56,9.56,0,0,1-2.28-1.09,10.66,10.66,0,0,1-2.25-2.39l-2.36-3.09"/><path class="cls-7" d="M225.07,965.77a23.12,23.12,0,0,0,20.13,10.54"/><path class="cls-7" d="M230.47,980.37a32.88,32.88,0,0,0,18.33,9.5"/><path class="cls-8" d="M272.34,1002.21s-33.67-59.7,1.45-80.38,51.19,19.61,39.4,41.49C300.54,986.82,272.34,1002.21,272.34,1002.21Z"/><path class="cls-9" d="M295.13,922.85c-4.16,20-24,80.55-28.15,102.45"/><path class="cls-9" d="M288.24,949.56a26.63,26.63,0,0,0,8.84-2.31c4.48-2,8.29-5.31,12-8.52"/><path class="cls-9" d="M289.41,943.54a25.76,25.76,0,0,1-13.28-17.83"/><path class="cls-9" d="M284.5,960.11c-3.88-1.66-6.71-5-9.39-8.29a46.08,46.08,0,0,1-5.18-7.18,15.5,15.5,0,0,1-2.08-8.48"/><path class="cls-9" d="M282.24,969.72c5.5.53,11-1.15,15.88-3.81s9.08-6.28,13.24-9.91"/><path class="cls-9" d="M278.93,982.42c.46,1,1.71,1.4,2.81,1.6a18.05,18.05,0,0,0,5.58.27,24.2,24.2,0,0,0,7.25-2.63"/><path class="cls-9" d="M279.89,976a45.77,45.77,0,0,1-15.47-17.38,7.4,7.4,0,0,1-1.09-4.2"/><path class="cls-6" d="M167.72,997.52s-49.42,7.58-54.48-21.72,26.59-29.88,38.48-16.19C164.49,974.31,167.72,997.52,167.72,997.52Z"/><path class="cls-7" d="M119.44,961.5c12.6,8,50.39,35.89,61,45.16"/><path class="cls-7" d="M137.06,973.15c-.59-1.76-.36-3.67-.38-5.52-.06-4.7-1.74-9.2-3.4-13.6"/><path class="cls-7" d="M145.87,980a13.31,13.31,0,0,0,2-6.86,33.35,33.35,0,0,0-1.65-12.81"/><path class="cls-7" d="M157.45,987.84c.56-2.61,2-5.07,1.94-7.73a14.71,14.71,0,0,0-1.25-5"/><path class="cls-7" d="M131.44,969.81c-1.64.69-3.32,1.31-5,1.86a9.93,9.93,0,0,1-2.47.55,10.57,10.57,0,0,1-3.24-.49l-3.77-1"/><path class="cls-7" d="M119.25,981.18a23.12,23.12,0,0,0,22.35-4.13"/><path class="cls-7" d="M132.51,989.34a32.8,32.8,0,0,0,20.29-3.84"/><path class="cls-8" d="M178.94,980.67s-63.35-26.18-48.49-64.13,52.38-16.17,56.62,8.32C191.62,951.16,178.94,980.67,178.94,980.67Z"/><path class="cls-9" d="M147.88,904.17c9.08,18.33,30.82,78.2,41.1,98"/><path class="cls-9" d="M158.94,929.43a26.64,26.64,0,0,0,5.53-7.26c2.26-4.39,3.24-9.3,4.21-14.14"/><path class="cls-9" d="M156.15,924a25.8,25.8,0,0,1-21.46-5.83"/><path class="cls-9" d="M162.51,940c-4.07,1.09-8.39.19-12.51-.72a46.19,46.19,0,0,1-8.5-2.45,15.43,15.43,0,0,1-6.87-5.39"/><path class="cls-9" d="M166.67,949c4.65-3,8-7.72,10.14-12.8s3.27-10.55,4.3-16"/><path class="cls-9" d="M171.91,961c1,.53,2.2.05,3.2-.47a18.25,18.25,0,0,0,4.55-3.23,24,24,0,0,0,4.08-6.55"/><path class="cls-9" d="M168.7,955.38a45.76,45.76,0,0,1-22.91-4.12,7.45,7.45,0,0,1-3.45-2.63"/><path class="cls-6" d="M98.77,1080H79.64c-7.24-3.76-10.13-12.39-9.3-20.82a26.2,26.2,0,0,1,6.19-14.9,55,55,0,0,1,9.11-8,93.66,93.66,0,0,1,25.37-12.2c.77-.24,1.2-.35,1.2-.35S125.27,1070.2,98.77,1080Z"/><path class="cls-7" d="M82.34,1076.08c6.41-13.48,29.48-54.39,37.39-66"/><path class="cls-7" d="M91.76,1057.18c-1.68.79-3.6.8-5.44,1-4.65.63-8.92,2.85-13.08,5"/><path class="cls-7" d="M97.44,1047.6a13.33,13.33,0,0,0-7-1.16,33.38,33.38,0,0,0-12.52,3.2"/><path class="cls-7" d="M103.85,1035.15c-2.66-.24-5.27-1.34-7.91-1a14.71,14.71,0,0,0-4.82,1.86"/><path class="cls-7" d="M89.13,1063.16c.88,1.55,1.69,3.13,2.45,4.75a10.09,10.09,0,0,1,.85,2.38,11,11,0,0,1-.09,3.28l-.51,3.86"/><path class="cls-7" d="M101.9,1073.87a23.14,23.14,0,0,0-6.82-21.67"/><path class="cls-7" d="M108.38,1059.72a32.85,32.85,0,0,0-6.29-19.67"/><path class="cls-8" d="M94.11,1014.69s-18.26,66.07-57.74,55.94-22.43-50,1.36-57.2C63.28,1005.71,94.11,1014.69,94.11,1014.69Z"/><path class="cls-9" d="M22,1054.84c17.09-11.25,73.86-40.12,92.24-52.73"/><path class="cls-9" d="M45.7,1040.78a26.57,26.57,0,0,0-7.89-4.59c-4.63-1.72-9.62-2.1-14.54-2.46"/><path class="cls-9" d="M40.62,1044.22a25.76,25.76,0,0,1-3.17,22"/><path class="cls-9" d="M55.79,1036c1.58,3.91,1.21,8.3.81,12.5a46,46,0,0,1-1.4,8.74,15.4,15.4,0,0,1-4.51,7.48"/><path class="cls-9" d="M64.18,1030.73c-3.53-4.26-8.63-7-13.94-8.5s-10.87-2-16.38-2.32"/><path class="cls-9" d="M75.48,1024.06c.4-1-.22-2.19-.86-3.11a17.79,17.79,0,0,0-3.76-4.12,24,24,0,0,0-7-3.26"/><path class="cls-9" d="M70.27,1027.94a45.94,45.94,0,0,1-1.3,23.24,7.44,7.44,0,0,1-2.2,3.75"/><path class="cls-10" d="M404.53,1068.08c-.74,1.24-1.6,2.75-2.56,4.49-1.19,2.16-2.53,4.66-4,7.43"/><path class="cls-6" d="M427.69,1057.84s20.32-36.19,42.06-24.51,5.94,32.66-9.1,33.44C444.51,1067.6,427.69,1057.84,427.69,1057.84Z"/><path class="cls-11" d="M475.93,1044.7c-11.68,4.14-49.24,14.59-60.71,16.78"/><path class="cls-11" d="M459.3,1050.26a15.07,15.07,0,0,1,3.81,2.58c3.1,2.36,6.9,3.56,10.62,4.72"/><path class="cls-11" d="M450.34,1052.54a11.07,11.07,0,0,0,3.46,4.82,27.64,27.64,0,0,0,9.22,5.47"/><path class="cls-11" d="M439.27,1056.08c1.42,1.7,2.3,3.88,4.06,5.22a12,12,0,0,0,3.91,1.74"/><path class="cls-11" d="M464.36,1048.29c.39-1.42.84-2.83,1.35-4.22a8.27,8.27,0,0,1,.9-1.9,8.81,8.81,0,0,1,2-1.87l2.56-2"/><path class="cls-11" d="M463.15,1034.51a19.2,19.2,0,0,0-8.72,16.72"/><path class="cls-11" d="M451,1039a27.26,27.26,0,0,0-7.86,15.22"/><path class="cls-6" d="M303.66,1080h-42a23.37,23.37,0,0,1,1.68-8.84c6.27-15.24,21.24-27,25.19-30,.62-.46,1-.7,1-.7S304.63,1061.78,303.66,1080Z"/><path class="cls-12" d="M292,1025.37c-.82,3.15-1.88,8.07-3,14-.12.62-.24,1.24-.36,1.88-2.28,11.66-4.87,26.55-6.8,38.8"/><path class="cls-12" d="M281.66,1078.05a10.87,10.87,0,0,1-3,2"/><path class="cls-12" d="M283.75,1067.34a13.11,13.11,0,0,0-6.88,1.25,32.84,32.84,0,0,0-10.5,7.07"/><path class="cls-12" d="M285.57,1053.75c-2.53.65-5.3.5-7.63,1.69a14.65,14.65,0,0,0-3.83,3.29"/><path class="cls-12" d="M283.08,1072.36a22.33,22.33,0,0,1,9.43,7.64"/><path class="cls-12" d="M297.83,1074.92a32.13,32.13,0,0,0-12.27-16.07"/><path class="cls-8" d="M386.5,1068.76a88.91,88.91,0,0,1-3.42,11.24H338a23.76,23.76,0,0,1,11.6-9.9c15.19-5.58,33.9-2,36.6-1.41Z"/><path class="cls-13" d="M399.17,1059.76c-2.64,2-6.55,4.72-11.16,7.74h0l-1.83,1.19c-5.45,3.54-11.69,7.46-17.85,11.31"/><path class="cls-13" d="M367.54,1080.41a18.32,18.32,0,0,0-9.45-5,50.76,50.76,0,0,0-10.81-.89"/><path class="cls-13" d="M374.68,1075.61a2.33,2.33,0,0,0-.69-2,11.53,11.53,0,0,0-2.62-2.55,15.86,15.86,0,0,0-4.7-1.86"/><path class="cls-13" d="M371.8,1080q-.17-.84-.39-1.65"/><path class="cls-8" d="M260.73,1036.6S255.29,1062,241.8,1080H181.3c-5.64-15.3,6.21-35.53,22-41.32,23.65-8.69,52.77-3.07,57-2.19Z"/><path class="cls-14" d="M189.71,1081.77c16.72-12.47,72.76-45.25,90.71-59.18"/><path class="cls-14" d="M213,1066a27.3,27.3,0,0,0-8.3-4.2c-4.82-1.47-9.92-1.55-14.95-1.63"/><path class="cls-14" d="M208.06,1069.85a25.85,25.85,0,0,1,1.69,10.15"/><path class="cls-14" d="M223,1060.52c1.84,3.89,1.73,8.38,1.57,12.68a61.66,61.66,0,0,1-.5,6.8"/><path class="cls-14" d="M231.22,1054.71c-3.84-4.12-9.2-6.58-14.69-7.82s-11.18-1.35-16.81-1.38"/><path class="cls-14" d="M242.33,1047.25c.34-1.1-.36-2.22-1.07-3.12a18,18,0,0,0-4.07-4,24.56,24.56,0,0,0-7.31-2.9"/><path class="cls-14" d="M237.25,1051.51a46.73,46.73,0,0,1,.07,23.72,7.63,7.63,0,0,1-2,4"/><path class="cls-5" d="M1920,1016.51v19.17a50.22,50.22,0,0,1-10.11-.77c-11.94-2.13-17.66-12.54-29.75-13.54-37.91-3.15-76-5.19-114-5.74q-18.22-.27-36.43-.07-11.13.12-22.25.44l-2.62.08q-10.83.31-21.64.84a1085.74,1085.74,0,0,0-118.27,11.93q-15.14,2.4-30.21,5.28-12.59,2.41-25.1,5.19-26,5.73-51.56,13-13.07,3.73-26,7.9-10.83,3.46-21.53,7.26-7,2.46-14,5.08-9.58,3.59-19,7.42h-76.06a517.45,517.45,0,0,1,71.21-30.56q4.59-1.62,9.2-3.13,2.78-.93,5.55-1.81,4.45-1.44,8.93-2.81c2.12-.65,4.23-1.28,6.35-1.91s4.07-1.2,6.11-1.78,3.83-1.1,5.76-1.63q10.41-2.91,20.91-5.54,4.3-1.08,8.63-2.12c27.82-6.72,56.06-12.21,84.25-17.11q8.06-1.41,16.12-2.75,9.42-1.58,18.8-3.09c16-2.58,32-5.1,48.09-7.23,6.55-.87,13.12-1.68,19.69-2.39l.21,0c13.64-1.49,27.31-2.62,41-3.18q13.76-.57,27.53-.32c7.46.15,15.07.49,22.22-1.65,5.93-1.76,11.22-5.14,16.49-8.36,1.43-.87,2.86-1.74,4.29-2.59q5.28-3.16,10.66-6.17a450.69,450.69,0,0,1,85.72-36.9l-92,57.19a362.8,362.8,0,0,1,77.26-.44A366.47,366.47,0,0,1,1920,1016.51Z"/><path class="cls-6" d="M1756.72,963.79s43.56-24.55,29.45-50.72-39.36-7.09-40.27,11C1744.93,943.54,1756.72,963.79,1756.72,963.79Z"/><path class="cls-7" d="M1772.46,905.65c-5,14.08-17.49,59.34-20.1,73.17"/><path class="cls-7" d="M1765.79,925.69c-.62-1.74-2-3.11-3.11-4.58-2.85-3.73-4.31-8.31-5.71-12.79"/><path class="cls-7" d="M1763.07,936.49a13.38,13.38,0,0,1-5.82-4.15,33.42,33.42,0,0,1-6.61-11.1"/><path class="cls-7" d="M1758.82,949.84c-2-1.71-4.67-2.77-6.3-4.89a14.5,14.5,0,0,1-2.1-4.71"/><path class="cls-7" d="M1768.16,919.6c1.71-.48,3.41-1,5.08-1.64a9.93,9.93,0,0,0,2.28-1.08,10.28,10.28,0,0,0,2.25-2.4l2.36-3.09"/><path class="cls-7" d="M1784.76,921a23.11,23.11,0,0,1-20.13,10.54"/><path class="cls-7" d="M1779.37,935.62a32.79,32.79,0,0,1-18.33,9.5"/><path class="cls-6" d="M1841.16,986.67s55.29,21.94,68.95-10.68-22.87-41.71-40.3-29C1851.09,960.62,1841.16,986.67,1841.16,986.67Z"/><path class="cls-15" d="M1906.72,957.76c-16.73,5.93-68,28.19-82.72,36.12"/><path class="cls-15" d="M1883.2,966.58c1.14-1.89,1.39-4.16,1.91-6.31,1.32-5.42,4.47-10.2,7.56-14.85"/><path class="cls-15" d="M1871.17,972.13a15.87,15.87,0,0,1-.51-8.49,39.9,39.9,0,0,1,5.33-14.42"/><path class="cls-15" d="M1855.65,978.18c0-3.18-.94-6.4-.2-9.49a17.55,17.55,0,0,1,2.79-5.46"/><path class="cls-15" d="M1890.6,964.2c1.73,1.23,3.5,2.4,5.31,3.48a11.75,11.75,0,0,0,2.72,1.31,12.67,12.67,0,0,0,3.89.29l4.63-.13"/><path class="cls-15" d="M1901.7,980.63a27.49,27.49,0,0,1-24.8-10.74"/><path class="cls-15" d="M1884.16,986.56a39.06,39.06,0,0,1-22.5-9.86"/><path class="cls-8" d="M1737.49,957.46s33.67-59.7-1.45-80.38-51.19,19.61-39.4,41.49C1709.3,942.07,1737.49,957.46,1737.49,957.46Z"/><path class="cls-9" d="M1714.7,878.11c4.17,20,24,80.54,28.15,102.45"/><path class="cls-9" d="M1721.59,904.81a26.28,26.28,0,0,1-8.83-2.31c-4.49-2-8.3-5.31-12-8.52"/><path class="cls-9" d="M1720.42,898.79A25.74,25.74,0,0,0,1733.7,881"/><path class="cls-9" d="M1725.33,915.36c3.88-1.66,6.72-5,9.4-8.29a46.68,46.68,0,0,0,5.17-7.18,15.39,15.39,0,0,0,2.08-8.48"/><path class="cls-9" d="M1727.59,925c-5.5.53-11-1.15-15.88-3.81s-9.08-6.28-13.24-9.91"/><path class="cls-9" d="M1730.9,937.67c-.46,1-1.71,1.4-2.81,1.6a17.69,17.69,0,0,1-5.57.27,24,24,0,0,1-7.26-2.63"/><path class="cls-9" d="M1729.94,931.25a45.9,45.9,0,0,0,15.48-17.39,7.37,7.37,0,0,0,1.08-4.2"/><path class="cls-6" d="M1545.39,1008.54S1589,984,1574.84,957.82s-39.36-7.09-40.27,11C1533.6,988.29,1545.39,1008.54,1545.39,1008.54Z"/><path class="cls-7" d="M1561.13,950.4c-5,14.07-17.49,59.34-20.1,73.17"/><path class="cls-7" d="M1554.46,970.44c-.62-1.75-2-3.11-3.11-4.58-2.85-3.73-4.31-8.31-5.71-12.79"/><path class="cls-7" d="M1551.74,981.24a13.27,13.27,0,0,1-5.82-4.16,33.22,33.22,0,0,1-6.61-11.1"/><path class="cls-7" d="M1547.49,994.58c-2-1.7-4.67-2.77-6.3-4.88a14.73,14.73,0,0,1-2.11-4.71"/><path class="cls-7" d="M1556.82,964.34c1.72-.47,3.42-1,5.09-1.63a9.56,9.56,0,0,0,2.28-1.09,10.44,10.44,0,0,0,2.25-2.39l2.36-3.09"/><path class="cls-7" d="M1573.43,965.77a23.12,23.12,0,0,1-20.13,10.54"/><path class="cls-7" d="M1568,980.37a33,33,0,0,1-18.33,9.5"/><path class="cls-8" d="M1526.16,1002.21s33.67-59.7-1.45-80.38-51.19,19.61-39.4,41.49C1498,986.82,1526.16,1002.21,1526.16,1002.21Z"/><path class="cls-9" d="M1503.37,922.85c4.17,20,24,80.55,28.15,102.45"/><path class="cls-9" d="M1510.26,949.56a26.52,26.52,0,0,1-8.83-2.31c-4.49-2-8.3-5.31-12-8.52"/><path class="cls-9" d="M1509.09,943.54a25.74,25.74,0,0,0,13.28-17.83"/><path class="cls-9" d="M1514,960.11c3.88-1.66,6.71-5,9.4-8.29a46.68,46.68,0,0,0,5.17-7.18,15.41,15.41,0,0,0,2.08-8.48"/><path class="cls-9" d="M1516.26,969.72c-5.5.53-11-1.15-15.88-3.81s-9.08-6.28-13.24-9.91"/><path class="cls-9" d="M1519.57,982.42c-.46,1-1.71,1.4-2.81,1.6a18,18,0,0,1-5.57.27,24.16,24.16,0,0,1-7.26-2.63"/><path class="cls-9" d="M1518.61,976a45.69,45.69,0,0,0,15.47-17.38,7.4,7.4,0,0,0,1.09-4.2"/><path class="cls-8" d="M1445,1039.22s-2.3-68.5-43-67.89-33.51,43.38-12.06,55.93C1413,1040.75,1445,1039.22,1445,1039.22Z"/><path class="cls-9" d="M1384.29,983.31c14,14.94,62.42,56.29,77.33,72.85"/><path class="cls-9" d="M1404.06,1002.53a26.47,26.47,0,0,1-8.74,2.62c-4.9.58-9.85-.21-14.72-1"/><path class="cls-9" d="M1399.93,998a25.76,25.76,0,0,0,2.07-22.14"/><path class="cls-9" d="M1412.75,1009.59c2.45-3.43,3.11-7.79,3.71-12a45.88,45.88,0,0,0,.68-8.82,15.56,15.56,0,0,0-2.63-8.34"/><path class="cls-9" d="M1419.68,1016.63c-4.42,3.31-10,4.76-15.55,5s-11-.63-16.46-1.57"/><path class="cls-9" d="M1429.11,1025.75c.14,1.12-.73,2.08-1.57,2.83a17.85,17.85,0,0,1-4.62,3.13,24.17,24.17,0,0,1-7.56,1.53"/><path class="cls-9" d="M1425,1020.76a45.8,45.8,0,0,0,4.17-22.89,7.34,7.34,0,0,0-1.26-4.16"/><path class="cls-6" d="M1630.78,997.52s49.43,7.58,54.48-21.72-26.58-29.88-38.48-16.19C1634,974.31,1630.78,997.52,1630.78,997.52Z"/><path class="cls-7" d="M1679.06,961.5c-12.6,8-50.39,35.89-61,45.16"/><path class="cls-7" d="M1661.44,973.15c.59-1.76.36-3.67.39-5.52.05-4.7,1.73-9.2,3.39-13.6"/><path class="cls-7" d="M1652.63,980a13.31,13.31,0,0,1-2-6.86,33.35,33.35,0,0,1,1.65-12.81"/><path class="cls-7" d="M1641.05,987.84c-.56-2.61-2-5.07-1.94-7.73a14.71,14.71,0,0,1,1.25-5"/><path class="cls-7" d="M1667.06,969.81q2.48,1,5,1.86a10,10,0,0,0,2.47.55,10.63,10.63,0,0,0,3.25-.49l3.76-1"/><path class="cls-7" d="M1679.25,981.18a23.12,23.12,0,0,1-22.35-4.13"/><path class="cls-7" d="M1666,989.34a32.8,32.8,0,0,1-20.29-3.84"/><path class="cls-8" d="M1619.56,980.67s63.35-26.18,48.49-64.13-52.38-16.17-56.62,8.32C1606.89,951.16,1619.56,980.67,1619.56,980.67Z"/><path class="cls-9" d="M1650.62,904.17c-9.08,18.33-30.82,78.2-41.1,98"/><path class="cls-9" d="M1639.56,929.43a26.6,26.6,0,0,1-5.52-7.26c-2.27-4.39-3.25-9.3-4.21-14.14"/><path class="cls-9" d="M1642.36,924a25.79,25.79,0,0,0,21.45-5.83"/><path class="cls-9" d="M1636,940c4.07,1.09,8.39.19,12.51-.72a46.19,46.19,0,0,0,8.5-2.45,15.51,15.51,0,0,0,6.88-5.39"/><path class="cls-9" d="M1631.83,949c-4.65-3-8-7.72-10.13-12.8s-3.28-10.55-4.3-16"/><path class="cls-9" d="M1626.59,961c-1,.53-2.2.05-3.19-.47a17.9,17.9,0,0,1-4.55-3.23,24.07,24.07,0,0,1-4.09-6.55"/><path class="cls-9" d="M1629.81,955.38a45.72,45.72,0,0,0,22.9-4.12,7.35,7.35,0,0,0,3.45-2.63"/><path class="cls-6" d="M1718.85,1080h-19.12c-26.5-9.79-13.44-56.23-13.44-56.23s.43.11,1.2.35a93.66,93.66,0,0,1,25.37,12.2,55,55,0,0,1,9.11,8,26.13,26.13,0,0,1,6.19,14.9C1729,1067.61,1726.09,1076.25,1718.85,1080Z"/><path class="cls-7" d="M1716.17,1076.08c-6.42-13.48-29.49-54.39-37.4-66"/><path class="cls-7" d="M1706.75,1057.18c1.67.79,3.6.8,5.43,1,4.66.63,8.92,2.85,13.08,5"/><path class="cls-7" d="M1701.06,1047.6a13.35,13.35,0,0,1,7-1.16,33.38,33.38,0,0,1,12.52,3.2"/><path class="cls-7" d="M1694.65,1035.15c2.66-.24,5.27-1.34,7.91-1a14.71,14.71,0,0,1,4.82,1.86"/><path class="cls-7" d="M1709.38,1063.16c-.89,1.55-1.7,3.13-2.45,4.75a9.69,9.69,0,0,0-.86,2.38,10.64,10.64,0,0,0,.1,3.28l.51,3.86"/><path class="cls-7" d="M1696.6,1073.87a23.12,23.12,0,0,1,6.83-21.67"/><path class="cls-7" d="M1690.12,1059.72a32.85,32.85,0,0,1,6.29-19.67"/><path class="cls-8" d="M1704.39,1014.69s18.26,66.07,57.74,55.94,22.43-50-1.36-57.2C1735.22,1005.71,1704.39,1014.69,1704.39,1014.69Z"/><path class="cls-9" d="M1776.53,1054.84c-17.09-11.25-73.86-40.12-92.24-52.73"/><path class="cls-9" d="M1752.8,1040.78a26.57,26.57,0,0,1,7.89-4.59c4.63-1.72,9.63-2.1,14.55-2.46"/><path class="cls-9" d="M1757.88,1044.22a25.79,25.79,0,0,0,3.17,22"/><path class="cls-9" d="M1742.71,1036c-1.58,3.91-1.21,8.3-.81,12.5a46,46,0,0,0,1.4,8.74,15.47,15.47,0,0,0,4.51,7.48"/><path class="cls-9" d="M1734.33,1030.73c3.52-4.26,8.63-7,13.94-8.5s10.86-2,16.37-2.32"/><path class="cls-9" d="M1723,1024.06c-.4-1,.22-2.19.86-3.11a17.79,17.79,0,0,1,3.76-4.12,24,24,0,0,1,7-3.26"/><path class="cls-9" d="M1728.24,1027.94a45.72,45.72,0,0,0,1.3,23.24,7.36,7.36,0,0,0,2.19,3.75"/><path class="cls-10" d="M1394,1068.08c.74,1.24,1.6,2.76,2.56,4.5h0c1.19,2.15,2.53,4.66,4,7.42"/><path class="cls-6" d="M1425.24,1057.84s-20.32-36.19-42.06-24.51-5.93,32.66,9.1,33.44C1408.42,1067.6,1425.24,1057.84,1425.24,1057.84Z"/><path class="cls-11" d="M1377,1044.7c11.67,4.14,49.23,14.59,60.71,16.78"/><path class="cls-11" d="M1393.63,1050.26a15.07,15.07,0,0,0-3.81,2.58c-3.1,2.36-6.9,3.56-10.62,4.72"/><path class="cls-11" d="M1402.59,1052.54a11.13,11.13,0,0,1-3.45,4.82,27.68,27.68,0,0,1-9.23,5.47"/><path class="cls-11" d="M1413.66,1056.08c-1.42,1.7-2.3,3.88-4.06,5.22a12,12,0,0,1-3.91,1.74"/><path class="cls-11" d="M1388.57,1048.29c-.39-1.42-.84-2.83-1.34-4.22a8.71,8.71,0,0,0-.9-1.9,8.86,8.86,0,0,0-2-1.87l-2.56-2"/><path class="cls-11" d="M1389.78,1034.51a19.2,19.2,0,0,1,8.72,16.72"/><path class="cls-11" d="M1401.89,1039a27.2,27.2,0,0,1,7.86,15.22"/><path class="cls-6" d="M1536.8,1080h-42c-1-18.22,14.13-39.5,14.13-39.5s.35.24,1,.7c4,2.92,18.92,14.72,25.19,30A23.52,23.52,0,0,1,1536.8,1080Z"/><path class="cls-12" d="M1506.54,1025.37c.82,3.15,1.88,8.07,3,14,.12.62.24,1.24.36,1.88,2.28,11.66,4.87,26.55,6.8,38.8"/><path class="cls-12" d="M1519.86,1080a10.87,10.87,0,0,1-3-2"/><path class="cls-12" d="M1514.75,1067.34a13.09,13.09,0,0,1,6.88,1.25,32.73,32.73,0,0,1,10.5,7.07"/><path class="cls-12" d="M1512.93,1053.75c2.53.65,5.3.5,7.63,1.69a14.49,14.49,0,0,1,3.83,3.29"/><path class="cls-12" d="M1506,1080a22.36,22.36,0,0,1,9.44-7.64"/><path class="cls-12" d="M1500.67,1074.92a32.18,32.18,0,0,1,12.27-16.07"/><path class="cls-8" d="M1415.42,1080a88.09,88.09,0,0,1-3.43-11.24l.34-.07h0c2.75-.58,21.43-4.16,36.59,1.41a23.73,23.73,0,0,1,11.59,9.9Z"/><path class="cls-13" d="M1399.33,1059.76c1.92,1.49,4.51,3.31,7.56,5.35,1.14.77,2.34,1.56,3.6,2.39h0l1.83,1.19h0c5.45,3.55,11.69,7.46,17.84,11.31"/><path class="cls-13" d="M1431,1080.41a18.29,18.29,0,0,1,9.44-5,50.81,50.81,0,0,1,10.81-.89"/><path class="cls-13" d="M1423.83,1075.61a2.3,2.3,0,0,1,.68-2,11.74,11.74,0,0,1,2.62-2.55,15.86,15.86,0,0,1,4.7-1.86"/><path class="cls-13" d="M1427.09,1078.35q-.22.81-.39,1.65"/><path class="cls-8" d="M1617.2,1080h-60.5c-13.49-18-18.93-43.4-18.93-43.4l.51-.11c4.18-.88,33.3-6.5,57,2.19C1611,1044.47,1622.84,1064.7,1617.2,1080Z"/><path class="cls-14" d="M1608.79,1081.77c-16.72-12.47-72.76-45.25-90.71-59.18"/><path class="cls-14" d="M1585.49,1066a27.07,27.07,0,0,1,8.3-4.2c4.81-1.47,9.92-1.55,15-1.63"/><path class="cls-14" d="M1588.75,1080a25.85,25.85,0,0,1,1.69-10.15"/><path class="cls-14" d="M1575.5,1060.52c-1.84,3.89-1.73,8.38-1.57,12.68a61.66,61.66,0,0,0,.5,6.8"/><path class="cls-14" d="M1567.28,1054.71c3.84-4.12,9.2-6.58,14.7-7.82s11.17-1.35,16.8-1.38"/><path class="cls-14" d="M1556.17,1047.25c-.34-1.1.36-2.22,1.07-3.12a18.24,18.24,0,0,1,4.07-4,24.62,24.62,0,0,1,7.32-2.9"/><path class="cls-14" d="M1561.25,1051.51a46.73,46.73,0,0,0-.07,23.72,7.63,7.63,0,0,0,2,4"/><rect class="cls-16" x="552.26" y="-43.34" width="803.39" height="1258.46" transform="translate(1539.85 -368.07) rotate(90)"/><g class="cls-17"><line class="cls-18" x1="95.95" y1="184.49" x2="95.95" y2="3501.75"/><line class="cls-18" x1="210.34" y1="184.49" x2="210.34" y2="3501.75"/><line class="cls-18" x1="324.73" y1="184.49" x2="324.73" y2="3501.75"/><line class="cls-19" x1="439.12" y1="184.49" x2="439.12" y2="3501.75"/><line class="cls-19" x1="553.5" y1="184.49" x2="553.5" y2="3501.75"/><line class="cls-19" x1="667.89" y1="184.49" x2="667.89" y2="3501.75"/><line class="cls-19" x1="782.28" y1="184.49" x2="782.28" y2="3501.75"/><line class="cls-19" x1="896.67" y1="184.49" x2="896.67" y2="3501.75"/><line class="cls-19" x1="1011.06" y1="184.49" x2="1011.06" y2="3501.75"/><line class="cls-19" x1="1125.45" y1="184.49" x2="1125.45" y2="3501.75"/><line class="cls-19" x1="1239.83" y1="184.49" x2="1239.83" y2="3501.75"/><line class="cls-19" x1="1354.22" y1="184.49" x2="1354.22" y2="3501.75"/><line class="cls-19" x1="1468.61" y1="184.49" x2="1468.61" y2="3501.75"/><line class="cls-19" x1="1583" y1="184.49" x2="1583" y2="3501.75"/><line class="cls-18" x1="1697.39" y1="184.49" x2="1697.39" y2="3501.75"/><line class="cls-18" x1="1811.78" y1="184.49" x2="1811.78" y2="3501.75"/><line class="cls-19" x1="-363.36" y1="985.21" x2="2955.66" y2="985.21"/><line class="cls-19" x1="-363.36" y1="870.82" x2="2955.66" y2="870.82"/><line class="cls-19" x1="-363.36" y1="756.43" x2="2955.66" y2="756.43"/><line class="cls-19" x1="-363.36" y1="642.04" x2="2955.66" y2="642.04"/><line class="cls-19" x1="-363.36" y1="527.65" x2="2955.66" y2="527.65"/><line class="cls-19" x1="-363.36" y1="413.27" x2="2955.66" y2="413.27"/><line class="cls-19" x1="-363.36" y1="298.88" x2="2955.66" y2="298.88"/><line class="cls-18" x1="-363.36" y1="184.49" x2="2955.66" y2="184.49"/></g><rect class="cls-20" x="551.6" y="-42.68" width="804.57" height="1258.31" transform="translate(1540.36 -367.4) rotate(90)"/><rect class="cls-21" x="324.73" y="184.2" width="228.78" height="228.78" transform="translate(737.7 -140.53) rotate(90)"/><rect class="cls-21" x="1349.64" y="759.1" width="234.11" height="228.78" transform="translate(2340.17 -593.21) rotate(90)"/><path class="cls-5" d="M512.55,0c-71.8,82.78-175.14,130.69-276.27,173.16-42.21,17.73-84.89,35-129.59,44.9-7.29,1.61-14.77,3.08-21.22,6.84-5.34,3.11-9.69,7.63-14,12A449.93,449.93,0,0,1,0,295.11V289q30.15-30.64,60.31-61.3A361.27,361.27,0,0,1,0,244V219.16c78.36-15.73,155.52-37.34,229.23-68C317,114.54,400,64.74,469.49,0Z"/><path class="cls-6" d="M58.1,259.48s-36.56,34.11-16.69,56.23S81.33,313.34,78,295.52C74.32,276.39,58.1,259.48,58.1,259.48Z"/><path class="cls-7" d="M56.48,319.69c1.51-14.85,3-61.79,2.31-75.85"/><path class="cls-7" d="M58.24,298.65c1,1.55,2.66,2.55,4.11,3.72,3.65,2.95,6.14,7.06,8.56,11.08"/><path class="cls-7" d="M58.35,287.51A13.27,13.27,0,0,1,65,290.18a33.24,33.24,0,0,1,9,9.23"/><path class="cls-7" d="M59.34,273.54c2.4,1.18,5.2,1.59,7.28,3.26a14.9,14.9,0,0,1,3.15,4.09"/><path class="cls-7" d="M57.38,305.13q-2.33,1.29-4.55,2.78a9.81,9.81,0,0,0-2,1.59,10.62,10.62,0,0,0-1.62,2.86l-1.57,3.56"/><path class="cls-7" d="M40.91,307.65a23.11,23.11,0,0,1,17.08-15"/><path class="cls-7" d="M42.72,292.19A32.87,32.87,0,0,1,58.3,278.64"/><path class="cls-8" d="M78.28,261.11S59.6,327.06,98.6,338.89s45.14-31.1,28.53-49.6C109.3,269.43,78.28,261.11,78.28,261.11Z"/><path class="cls-9" d="M119.1,332.87c-8.76-18.48-42.3-72.63-51.46-93"/><path class="cls-9" d="M106.12,308.54a26.66,26.66,0,0,1,9.13.16c4.84.94,9.31,3.21,13.71,5.46"/><path class="cls-9" d="M108.67,314.12A25.77,25.77,0,0,0,100,334.57"/><path class="cls-9" d="M100,299.17c-3.38,2.52-5.34,6.47-7.18,10.26a46.25,46.25,0,0,0-3.34,8.2,15.44,15.44,0,0,0,0,8.73"/><path class="cls-9" d="M95.54,290.36c5.23-1.81,11-1.48,16.33,0s10.31,4,15.21,6.52"/><path class="cls-9" d="M89.34,278.79c.2-1.11,1.33-1.76,2.36-2.22A18.2,18.2,0,0,1,97.05,275a24.06,24.06,0,0,1,7.67.85"/><path class="cls-9" d="M91.79,284.81a45.76,45.76,0,0,0-11,20.54,7.39,7.39,0,0,0-.07,4.34"/><path class="cls-6" d="M172.81,191.45s-48-13.93-56.84,14.47S138.45,239,152,227C166.59,214,172.81,191.45,172.81,191.45Z"/><path class="cls-7" d="M120.26,220.9c13.53-6.31,54.63-29,66.33-36.86"/><path class="cls-7" d="M139.24,211.63c-.81,1.67-.83,3.6-1.09,5.43-.67,4.65-2.92,8.9-5.14,13"/><path class="cls-7" d="M148.87,206a13.38,13.38,0,0,1,1.1,7.06,33.37,33.37,0,0,1-3.3,12.5"/><path class="cls-7" d="M161.37,199.72c.21,2.66,1.29,5.27.92,7.92a14.76,14.76,0,0,1-1.89,4.8"/><path class="cls-7" d="M133.24,214.21q-2.31-1.34-4.73-2.48a9.67,9.67,0,0,0-2.37-.88,11,11,0,0,0-3.29.07l-3.86.48"/><path class="cls-7" d="M122.63,201.36a23.12,23.12,0,0,1,21.62,7"/><path class="cls-7" d="M136.83,195a32.82,32.82,0,0,1,19.62,6.44"/><path class="cls-8" d="M181.74,209.62s-66.2,17.73-56.4,57.29,49.84,22.83,57.22-.9C190.48,240.52,181.74,209.62,181.74,209.62Z"/><path class="cls-9" d="M141,281.43c11.39-17,40.72-73.53,53.48-91.81"/><path class="cls-9" d="M155.27,257.82a26.67,26.67,0,0,1,4.53,7.92c1.67,4.65,2,9.65,2.34,14.57"/><path class="cls-9" d="M151.79,262.87a25.79,25.79,0,0,0-22,3"/><path class="cls-9" d="M160.18,247.76c-3.9-1.61-8.29-1.27-12.49-.9a45.89,45.89,0,0,0-8.75,1.32,15.61,15.61,0,0,0-7.52,4.45"/><path class="cls-9" d="M165.47,239.42c4.23,3.56,6.9,8.69,8.39,14s1.87,10.88,2.19,16.4"/><path class="cls-9" d="M172.22,228.17c1.06-.39,2.2.24,3.11.89a17.79,17.79,0,0,1,4.09,3.79,24.32,24.32,0,0,1,3.21,7"/><path class="cls-9" d="M168.31,233.36a45.84,45.84,0,0,0-23.25,1.11,7.48,7.48,0,0,0-3.77,2.16"/><path class="cls-6" d="M374.7,58.64S380.24.85,345.94-3.09s-32.88,32.78-16.23,45.67C347.59,56.42,374.7,58.64,374.7,58.64Z"/><path class="cls-10" d="M329.78,5c10.11,14.08,44.91,56.05,56.35,67.72"/><path class="cls-10" d="M344.44,24.7c-2.08-.57-4.28-.18-6.43-.08-5.45.24-10.78-1.41-16-3.05"/><path class="cls-10" d="M352.91,34.46a15.39,15.39,0,0,1-7.81,2.78,38.77,38.77,0,0,1-15-1.06"/><path class="cls-10" d="M362.81,47.37c-3,.82-5.75,2.61-8.84,2.76A17.05,17.05,0,0,1,348.09,49"/><path class="cls-10" d="M340.2,18.4c.69-1.95,1.29-3.93,1.82-5.93a11.42,11.42,0,0,0,.48-2.89,12.3,12.3,0,0,0-.78-3.73l-1.38-4.3"/><path class="cls-10" d="M352.58,3.53a26.85,26.85,0,0,1-3.32,26.17"/><path class="cls-10" d="M362.9,18.36a38.07,38.07,0,0,1-3.11,23.77"/><path class="cls-6" d="M411,77.27s28.27,30.39,46.65,13.92S455.77,58.05,441,60.83C425.1,63.82,411,77.27,411,77.27Z"/><path class="cls-11" d="M461,78.69c-12.33-1.28-51.29-2.6-63-2"/><path class="cls-11" d="M443.55,77.2a15.2,15.2,0,0,0,3.09-3.4c2.46-3,5.87-5.09,9.22-7.1"/><path class="cls-11" d="M434.3,77.09a11.11,11.11,0,0,1,2.23-5.5,27.9,27.9,0,0,1,7.67-7.49"/><path class="cls-11" d="M422.71,76.26c1-2,1.33-4.32,2.72-6a12.05,12.05,0,0,1,3.39-2.61"/><path class="cls-11" d="M448.93,77.92c.71,1.29,1.48,2.56,2.3,3.79a8.65,8.65,0,0,0,1.32,1.63,8.94,8.94,0,0,0,2.37,1.35l2.95,1.3"/><path class="cls-11" d="M451,91.6a19.18,19.18,0,0,1-12.41-14.2"/><path class="cls-11" d="M438.17,90.08a27.31,27.31,0,0,1-11.23-13"/><path class="cls-6" d="M280.84,126.63s18.15-45.5-8.7-56.79S237.76,88.62,248.2,103C259.41,118.42,280.84,126.63,280.84,126.63Z"/><path class="cls-12" d="M257.12,72.61c4.87,13.78,23.13,56,29.64,68.16"/><path class="cls-12" d="M264.36,92c-1.55-.95-3.43-1.15-5.19-1.59-4.47-1.09-8.4-3.68-12.22-6.24"/><path class="cls-12" d="M268.91,101.9a13.14,13.14,0,0,1-7,.41,32.81,32.81,0,0,1-11.86-4.41"/><path class="cls-12" d="M273.87,114.69c-2.61,0-5.26.76-7.81.15a14.49,14.49,0,0,1-4.49-2.3"/><path class="cls-12" d="M262.41,85.89q1.53-2.13,2.87-4.37a9.56,9.56,0,0,0,1.08-2.23,10.79,10.79,0,0,0,.25-3.21l-.1-3.81"/><path class="cls-12" d="M276,76.77a22.66,22.66,0,0,1-8.87,20.41"/><path class="cls-12" d="M280.81,91.22a32.16,32.16,0,0,1-8.14,18.51"/><path class="cls-8" d="M368.44,76.34S349,35.86,324.68,47,316,81.87,332.23,83.73C349.6,85.73,368.44,76.34,368.44,76.34Z"/><path class="cls-13" d="M317.24,58.86c12.33,5.26,52.31,17.27,65.63,23.26"/><path class="cls-13" d="M334.18,65.16A17.43,17.43,0,0,1,329.63,69a34.61,34.61,0,0,1-9.1,3.28"/><path class="cls-13" d="M330.5,63.53a16.89,16.89,0,0,0-4.61-13.82"/><path class="cls-13" d="M341.25,67.1c.57-2.71-.19-5.49-.93-8.16a30.86,30.86,0,0,0-1.92-5.47,10.13,10.13,0,0,0-3.79-4.3"/><path class="cls-13" d="M347.27,69.49a18.34,18.34,0,0,1-8,7.11A50.56,50.56,0,0,1,329,80"/><path class="cls-13" d="M355.34,72.47a2.32,2.32,0,0,1-.2,2.11,11.72,11.72,0,0,1-1.94,3.1,16.09,16.09,0,0,1-4.13,2.92"/><path class="cls-13" d="M351.52,70.58A30,30,0,0,0,348,55.74a4.77,4.77,0,0,0-1.85-2.16"/><path class="cls-8" d="M253.77,137.2s-30.3-63-68.07-45.64-13.44,54.24,11.73,57.14C224.46,151.81,253.77,137.2,253.77,137.2Z"/><path class="cls-14" d="M174.12,110c19.18,8.19,81.36,26.87,102.09,36.18"/><path class="cls-14" d="M200.47,119.81a27.14,27.14,0,0,1-7.08,6c-4.33,2.55-9.28,3.84-14.15,5.1"/><path class="cls-14" d="M194.75,117.28a26.26,26.26,0,0,0-7.17-21.51"/><path class="cls-14" d="M211.47,122.83c.88-4.21-.29-8.55-1.46-12.69a46.91,46.91,0,0,0-3-8.51,15.77,15.77,0,0,0-5.88-6.69"/><path class="cls-14" d="M220.83,126.54c-2.77,4.91-7.4,8.56-12.45,11.06s-10.54,3.94-16,5.3"/><path class="cls-14" d="M233.38,131.18c.59,1,.17,2.24-.3,3.28a18.41,18.41,0,0,1-3,4.82,25,25,0,0,1-6.42,4.54"/><path class="cls-14" d="M227.44,128.24a46.62,46.62,0,0,0-5.52-23.08,7.49,7.49,0,0,0-2.87-3.36"/><path class="cls-5" d="M1920,227.6v21.68q-16.27-.89-32.43-3.2a362.76,362.76,0,0,1-73.12-18.35l47,47.75c3.71,3.76-1.34,9.61-5.61,6.48a449.74,449.74,0,0,1-40-33q-4.53-4.2-8.92-8.51-1.79-1.74-3.55-3.51c-4.37-4.38-8.71-8.9-14.06-12-6.44-3.76-13.93-5.23-21.21-6.84q-3.9-.85-7.77-1.79-7.66-1.85-15.25-4-7.18-2-14.31-4.2l-2-.62h0l-3.06-1c-4.24-1.35-8.47-2.76-12.68-4.2q-4.12-1.42-8.24-2.89-12-4.29-23.88-8.95c-14.22-5.55-28.32-11.4-42.38-17.31-61.83-26-124.48-54-180.25-90.72q-4.18-2.76-8.33-5.6-11.4-7.78-22.36-16.12A433.4,433.4,0,0,1,1362.21,0h43.06a719,719,0,0,0,86.91,69q6.13,4.19,12.37,8.22a843.41,843.41,0,0,0,89.68,50.7q11.52,5.64,23.19,11h0q14,6.34,28.1,12.24C1733.39,187.71,1826.15,211.39,1920,227.6Z"/><path class="cls-6" d="M1816.66,259.48s36.56,34.11,16.69,56.23-39.92-2.37-36.54-20.19C1800.44,276.39,1816.66,259.48,1816.66,259.48Z"/><path class="cls-7" d="M1818.28,319.69c-1.52-14.85-3-61.79-2.32-75.85"/><path class="cls-7" d="M1816.51,298.65c-1,1.55-2.65,2.55-4.1,3.72-3.65,2.95-6.14,7.06-8.56,11.08"/><path class="cls-7" d="M1816.41,287.51a13.27,13.27,0,0,0-6.63,2.67,33.41,33.41,0,0,0-9,9.23"/><path class="cls-7" d="M1815.42,273.54c-2.4,1.18-5.2,1.59-7.28,3.26a14.9,14.9,0,0,0-3.15,4.09"/><path class="cls-7" d="M1817.38,305.13q2.32,1.29,4.55,2.78a10.1,10.1,0,0,1,2,1.59,10.9,10.9,0,0,1,1.62,2.86l1.57,3.56"/><path class="cls-7" d="M1833.85,307.65a23.11,23.11,0,0,0-17.08-15"/><path class="cls-7" d="M1832,292.19a32.87,32.87,0,0,0-15.58-13.55"/><path class="cls-6" d="M1918.83,255v46.62l-.44-.52c-12.49-15.24-16.72-37.92-17.64-43.85-.15-.94-.22-1.46-.22-1.46A112,112,0,0,1,1918.83,255Z"/><path class="cls-15" d="M1886.07,244.76c.44.41.92.85,1.44,1.31,3.19,2.86,7.82,6.77,13.23,11.2s11.73,9.49,18.09,14.5l1.17.91"/><path class="cls-15" d="M1912.2,267.47c-.68,3.09-2.33,6-2.34,9.17a18,18,0,0,0,1.37,6"/><path class="cls-15" d="M1917.5,270.32c.44-.25.88-.48,1.33-.71s.77-.39,1.17-.57"/><path class="cls-8" d="M1796.48,261.11s18.68,65.95-20.32,77.78-45.14-31.1-28.53-49.6C1765.46,269.43,1796.48,261.11,1796.48,261.11Z"/><path class="cls-9" d="M1755.66,332.87c8.76-18.48,42.3-72.63,51.46-93"/><path class="cls-9" d="M1768.64,308.54a26.66,26.66,0,0,0-9.13.16c-4.84.94-9.31,3.21-13.71,5.46"/><path class="cls-9" d="M1766.08,314.12a25.74,25.74,0,0,1,8.72,20.45"/><path class="cls-9" d="M1774.76,299.17c3.38,2.52,5.34,6.47,7.18,10.26a46.25,46.25,0,0,1,3.34,8.2,15.53,15.53,0,0,1,0,8.73"/><path class="cls-9" d="M1779.21,290.36c-5.22-1.81-11-1.48-16.32,0s-10.31,4-15.21,6.52"/><path class="cls-9" d="M1785.42,278.79c-.2-1.11-1.33-1.76-2.36-2.22a18.2,18.2,0,0,0-5.35-1.57,24.06,24.06,0,0,0-7.67.85"/><path class="cls-9" d="M1783,284.81a45.76,45.76,0,0,1,11,20.54,7.39,7.39,0,0,1,.07,4.34"/><path class="cls-6" d="M1702,191.45s48-13.93,56.84,14.47-22.48,33.07-36,21C1708.17,214,1702,191.45,1702,191.45Z"/><path class="cls-7" d="M1754.49,220.9c-13.52-6.31-54.62-29-66.32-36.86"/><path class="cls-7" d="M1735.51,211.63c.81,1.67.84,3.6,1.1,5.43.67,4.65,2.92,8.9,5.14,13"/><path class="cls-7" d="M1725.89,206a13.38,13.38,0,0,0-1.1,7.06,33.37,33.37,0,0,0,3.3,12.5"/><path class="cls-7" d="M1713.39,199.72c-.22,2.66-1.29,5.27-.92,7.92a14.76,14.76,0,0,0,1.89,4.8"/><path class="cls-7" d="M1741.52,214.21q2.31-1.34,4.73-2.48a9.67,9.67,0,0,1,2.37-.88,10.94,10.94,0,0,1,3.28.07l3.87.48"/><path class="cls-7" d="M1752.13,201.36a23.12,23.12,0,0,0-21.62,7"/><path class="cls-7" d="M1737.92,195a32.82,32.82,0,0,0-19.61,6.44"/><path class="cls-8" d="M1693,209.62s66.2,17.73,56.39,57.29-49.83,22.83-57.21-.9C1684.28,240.52,1693,209.62,1693,209.62Z"/><path class="cls-9" d="M1733.74,281.43c-11.39-17-40.71-73.53-53.47-91.81"/><path class="cls-9" d="M1719.49,257.82a26.67,26.67,0,0,0-4.53,7.92c-1.67,4.65-2,9.65-2.34,14.57"/><path class="cls-9" d="M1723,262.87a25.77,25.77,0,0,1,22,3"/><path class="cls-9" d="M1714.57,247.76c3.9-1.61,8.3-1.27,12.5-.9a45.89,45.89,0,0,1,8.75,1.32,15.61,15.61,0,0,1,7.52,4.45"/><path class="cls-9" d="M1709.29,239.42c-4.23,3.56-6.9,8.69-8.39,14s-1.87,10.88-2.19,16.4"/><path class="cls-9" d="M1702.53,228.17c-1-.39-2.19.24-3.1.89a18,18,0,0,0-4.1,3.79,24.56,24.56,0,0,0-3.2,7"/><path class="cls-9" d="M1706.45,233.36a45.84,45.84,0,0,1,23.25,1.11,7.48,7.48,0,0,1,3.77,2.16"/><path class="cls-6" d="M1545.05,42.58c-1.13.87-2.29,1.7-3.48,2.48a79.44,79.44,0,0,1-18.85,8.76,113.48,113.48,0,0,1-21.24,4.67c-.92.11-1.42.15-1.42.15S1495.67,12.81,1518.93,0h28.32C1561.59,8.84,1557.81,32.7,1545.05,42.58Z"/><path class="cls-10" d="M1545,5c-10.11,14.08-44.91,56.05-56.35,67.72"/><path class="cls-10" d="M1530.32,24.7c2.08-.57,4.28-.18,6.43-.08,5.44.24,10.78-1.41,16-3.05"/><path class="cls-10" d="M1521.85,34.46a15.39,15.39,0,0,0,7.81,2.78,38.77,38.77,0,0,0,15-1.06"/><path class="cls-10" d="M1512,47.37c3,.82,5.75,2.61,8.84,2.76a17.05,17.05,0,0,0,5.88-1.13"/><path class="cls-10" d="M1534.56,18.4c-.69-1.95-1.29-3.93-1.82-5.93a11.42,11.42,0,0,1-.48-2.89,12.3,12.3,0,0,1,.78-3.73l1.38-4.3"/><path class="cls-10" d="M1522.18,3.53a26.83,26.83,0,0,0,3.32,26.17"/><path class="cls-10" d="M1511.85,18.36A38.14,38.14,0,0,0,1515,42.13"/><path class="cls-6" d="M1463.72,77.27s-28.27,30.39-46.65,13.92,1.92-33.14,16.71-30.36C1449.66,63.82,1463.72,77.27,1463.72,77.27Z"/><path class="cls-11" d="M1413.74,78.69c12.33-1.28,51.29-2.6,63-2"/><path class="cls-11" d="M1431.21,77.2a15.49,15.49,0,0,1-3.1-3.4c-2.45-3-5.86-5.09-9.21-7.1"/><path class="cls-11" d="M1440.45,77.09a11,11,0,0,0-2.22-5.5,27.9,27.9,0,0,0-7.67-7.49"/><path class="cls-11" d="M1452.05,76.26c-1-2-1.33-4.32-2.72-6a12.05,12.05,0,0,0-3.39-2.61"/><path class="cls-11" d="M1425.83,77.92c-.71,1.29-1.48,2.56-2.3,3.79a8.65,8.65,0,0,1-1.32,1.63,9.1,9.1,0,0,1-2.37,1.35l-2.95,1.3"/><path class="cls-11" d="M1423.76,91.6a19.2,19.2,0,0,0,12.41-14.2"/><path class="cls-11" d="M1436.59,90.08a27.24,27.24,0,0,0,11.22-13"/><path class="cls-6" d="M1593.91,126.63s-18.14-45.5,8.71-56.79S1637,88.62,1626.56,103C1615.35,118.42,1593.91,126.63,1593.91,126.63Z"/><path class="cls-12" d="M1617.63,72.61c-4.86,13.78-23.12,56-29.63,68.16"/><path class="cls-12" d="M1610.4,92c1.55-.95,3.43-1.15,5.19-1.59,4.47-1.09,8.39-3.68,12.22-6.24"/><path class="cls-12" d="M1605.85,101.9a13.11,13.11,0,0,0,7,.41,32.79,32.79,0,0,0,11.87-4.41"/><path class="cls-12" d="M1600.89,114.69c2.61,0,5.26.76,7.8.15a14.43,14.43,0,0,0,4.5-2.3"/><path class="cls-12" d="M1612.35,85.89q-1.53-2.13-2.88-4.37a9.94,9.94,0,0,1-1.07-2.23,10.47,10.47,0,0,1-.25-3.21l.1-3.81"/><path class="cls-12" d="M1598.81,76.77a22.66,22.66,0,0,0,8.87,20.41"/><path class="cls-12" d="M1594,91.22a32.16,32.16,0,0,0,8.14,18.51"/><path class="cls-8" d="M1506.31,76.34s19.48-40.48,43.77-29.34,8.64,34.87-7.55,36.73C1525.15,85.73,1506.31,76.34,1506.31,76.34Z"/><path class="cls-13" d="M1557.52,58.86c-12.33,5.26-52.31,17.27-65.63,23.26"/><path class="cls-13" d="M1540.58,65.16a17.43,17.43,0,0,0,4.55,3.88,34.61,34.61,0,0,0,9.1,3.28"/><path class="cls-13" d="M1544.26,63.53a16.89,16.89,0,0,1,4.61-13.82"/><path class="cls-13" d="M1533.51,67.1c-.57-2.71.19-5.49.93-8.16a30.86,30.86,0,0,1,1.92-5.47,10.17,10.17,0,0,1,3.78-4.3"/><path class="cls-13" d="M1527.49,69.49a18.34,18.34,0,0,0,8,7.11,50.68,50.68,0,0,0,10.29,3.4"/><path class="cls-13" d="M1519.42,72.47a2.32,2.32,0,0,0,.2,2.11,11.72,11.72,0,0,0,1.94,3.1,16.09,16.09,0,0,0,4.13,2.92"/><path class="cls-13" d="M1523.24,70.58a30,30,0,0,1,3.55-14.84,4.77,4.77,0,0,1,1.85-2.16"/><path class="cls-8" d="M1621,137.2s30.3-63,68.07-45.64,13.44,54.24-11.73,57.14C1650.3,151.81,1621,137.2,1621,137.2Z"/><path class="cls-14" d="M1700.64,110c-19.18,8.19-81.36,26.87-102.09,36.18"/><path class="cls-14" d="M1674.29,119.81a27.14,27.14,0,0,0,7.08,6c4.33,2.55,9.28,3.84,14.15,5.1"/><path class="cls-14" d="M1680,117.28a26.26,26.26,0,0,1,7.17-21.51"/><path class="cls-14" d="M1663.29,122.83c-.88-4.21.29-8.55,1.45-12.69a47.72,47.72,0,0,1,3-8.51,15.77,15.77,0,0,1,5.88-6.69"/><path class="cls-14" d="M1653.93,126.54c2.77,4.91,7.4,8.56,12.45,11.06s10.54,3.94,16,5.3"/><path class="cls-14" d="M1641.38,131.18c-.59,1-.17,2.24.3,3.28a18.41,18.41,0,0,0,3,4.82,25,25,0,0,0,6.42,4.54"/><path class="cls-14" d="M1647.32,128.24a46.72,46.72,0,0,1,5.51-23.08,7.58,7.58,0,0,1,2.88-3.36"/><polygon class="cls-16" points="514.01 401.24 485.94 367.7 501.38 370.77 495.83 337.31 512.85 337.01 529.87 336.7 525.53 370.33 540.85 366.71 514.01 401.24"/><polygon class="cls-22" points="495.85 507.39 467.78 473.84 483.21 476.92 477.66 443.46 494.68 443.15 511.7 442.84 507.37 476.48 522.68 472.85 495.85 507.39"/><polygon class="cls-22" points="527.5 926.02 493.96 954.09 497.03 938.66 463.57 944.21 463.27 927.19 462.96 910.17 496.59 914.5 492.97 899.19 527.5 926.02"/><polygon class="cls-22" points="840.84 618.75 812.77 585.21 828.21 588.28 822.66 554.82 839.68 554.52 856.7 554.21 852.37 587.84 867.68 584.22 840.84 618.75"/><polygon class="cls-22" points="872.5 358.16 838.96 386.23 842.03 370.79 808.57 376.34 808.26 359.32 807.96 342.3 841.59 346.64 837.96 331.32 872.5 358.16"/><polygon class="cls-22" points="1183.92 618.75 1155.85 585.21 1171.28 588.28 1165.74 554.82 1182.76 554.52 1199.78 554.21 1195.44 587.84 1210.75 584.22 1183.92 618.75"/><polygon class="cls-22" points="840.84 736.56 812.77 703.01 828.21 706.08 822.66 672.63 839.68 672.32 856.7 672.01 852.37 705.65 867.68 702.02 840.84 736.56"/><polygon class="cls-22" points="840.84 958.91 812.77 925.37 828.21 928.44 822.66 894.98 839.68 894.68 856.7 894.37 852.37 928 867.68 924.38 840.84 958.91"/><polygon class="cls-22" points="1067.01 209.21 1095.08 242.75 1079.64 239.68 1085.19 273.13 1068.17 273.44 1051.15 273.75 1055.49 240.11 1040.17 243.74 1067.01 209.21"/><polygon class="cls-22" points="1099.9 358.16 1066.36 386.23 1069.43 370.79 1035.97 376.34 1035.66 359.32 1035.36 342.3 1068.99 346.64 1065.36 331.32 1099.9 358.16"/><polygon class="cls-22" points="1035.36 475.73 1068.9 447.67 1065.83 463.1 1099.28 457.55 1099.59 474.57 1099.9 491.59 1066.26 487.25 1069.89 502.57 1035.36 475.73"/><polygon class="cls-22" points="723.41 782.1 751.48 815.64 736.04 812.57 741.59 846.02 724.57 846.33 707.55 846.64 711.89 813 696.58 816.63 723.41 782.1"/><polygon class="cls-22" points="607.83 320.86 635.9 354.4 620.46 351.33 626.01 384.79 608.99 385.09 591.97 385.4 596.31 351.77 580.99 355.39 607.83 320.86"/><polygon class="cls-22" points="723.41 672.01 751.48 705.55 736.04 702.48 741.59 735.94 724.57 736.25 707.55 736.56 711.89 702.92 696.58 706.55 723.41 672.01"/><polygon class="cls-22" points="723.41 894.37 751.48 927.91 736.04 924.84 741.59 958.3 724.57 958.6 707.55 958.91 711.89 925.28 696.58 928.9 723.41 894.37"/><polygon class="cls-22" points="1151.03 475.73 1184.57 447.67 1181.5 463.1 1214.96 457.55 1215.27 474.57 1215.57 491.59 1181.94 487.25 1185.57 502.57 1151.03 475.73"/><polygon class="cls-22" points="1215.57 353.13 1182.03 381.2 1185.1 365.76 1151.64 371.31 1151.34 354.29 1151.03 337.27 1184.66 341.61 1181.04 326.29 1215.57 353.13"/><polygon class="cls-22" points="1334.56 353.13 1301.02 381.2 1304.09 365.76 1270.63 371.31 1270.32 354.29 1270.02 337.27 1303.65 341.61 1300.03 326.29 1334.56 353.13"/><polygon class="cls-22" points="1411.89 386.02 1383.83 352.47 1399.26 355.55 1393.71 322.09 1410.73 321.78 1427.75 321.47 1423.41 355.11 1438.73 351.48 1411.89 386.02"/><polygon class="cls-22" points="1379 475.73 1412.55 447.67 1409.48 463.1 1442.93 457.55 1443.24 474.57 1443.55 491.59 1409.91 487.25 1413.54 502.57 1379 475.73"/><polygon class="cls-22" points="1488.35 475.73 1521.9 447.67 1518.83 463.1 1552.28 457.55 1552.59 474.57 1552.9 491.59 1519.26 487.25 1522.89 502.57 1488.35 475.73"/><polygon class="cls-22" points="1411.89 618.75 1383.83 585.21 1399.26 588.28 1393.71 554.82 1410.73 554.52 1427.75 554.21 1423.41 587.84 1438.73 584.22 1411.89 618.75"/><polygon class="cls-22" points="1552.9 585.86 1519.35 613.93 1522.43 598.5 1488.97 604.05 1488.66 587.03 1488.35 570.01 1521.99 574.34 1518.36 559.03 1552.9 585.86"/><polygon class="cls-22" points="1411.89 736.56 1383.83 703.01 1399.26 706.08 1393.71 672.63 1410.73 672.32 1427.75 672.01 1423.41 705.65 1438.73 702.02 1411.89 736.56"/><polygon class="cls-22" points="1520.01 672.01 1548.08 705.55 1532.64 702.48 1538.19 735.94 1521.17 736.25 1504.15 736.56 1508.49 702.92 1493.17 706.55 1520.01 672.01"/><polygon class="cls-22" points="1270.02 475.73 1303.56 447.67 1300.49 463.1 1333.94 457.55 1334.25 474.57 1334.56 491.59 1300.92 487.25 1304.55 502.57 1270.02 475.73"/><polygon class="cls-22" points="1552.9 353.13 1519.35 381.2 1522.43 365.76 1488.97 371.31 1488.66 354.29 1488.35 337.27 1521.99 341.61 1518.36 326.29 1552.9 353.13"/><polygon class="cls-22" points="580.75 704.9 614.3 676.83 611.23 692.27 644.68 686.72 644.99 703.74 645.3 720.76 611.66 716.42 615.29 731.74 580.75 704.9"/><polygon class="cls-22" points="499.12 736.56 471.05 703.01 486.49 706.08 480.94 672.63 497.96 672.32 514.98 672.01 510.64 705.65 525.96 702.02 499.12 736.56"/><polygon class="cls-22" points="984.56 703.67 951.02 731.74 954.09 716.3 920.63 721.85 920.33 704.83 920.02 687.81 953.65 692.14 950.03 676.83 984.56 703.67"/><polygon class="cls-22" points="984.56 358.16 951.02 386.23 954.09 370.79 920.63 376.34 920.33 359.32 920.02 342.3 953.65 346.64 950.03 331.32 984.56 358.16"/><polygon class="cls-22" points="723.41 554.21 751.48 587.75 736.04 584.68 741.59 618.14 724.57 618.44 707.55 618.75 711.89 585.12 696.58 588.74 723.41 554.21"/><polygon class="cls-22" points="723.41 442.84 751.48 476.39 736.04 473.32 741.59 506.77 724.57 507.08 707.55 507.39 711.89 473.75 696.58 477.38 723.41 442.84"/><polygon class="cls-22" points="494.92 618.75 466.85 585.21 482.28 588.28 476.74 554.82 493.75 554.52 510.77 554.21 506.44 587.84 521.75 584.22 494.92 618.75"/><polygon class="cls-22" points="1034.81 587.1 1068.35 559.03 1065.28 574.46 1098.74 568.91 1099.05 585.93 1099.35 602.95 1065.72 598.62 1069.35 613.93 1034.81 587.1"/><polygon class="cls-22" points="1151.03 704.9 1184.57 676.83 1181.5 692.27 1214.96 686.72 1215.27 703.74 1215.57 720.76 1181.94 716.42 1185.57 731.74 1151.03 704.9"/><polygon class="cls-22" points="1215.57 813.75 1182.03 841.82 1185.1 826.38 1151.64 831.93 1151.34 814.91 1151.03 797.89 1184.66 802.23 1181.04 786.92 1215.57 813.75"/><polygon class="cls-22" points="1151.03 927.26 1184.57 899.19 1181.5 914.62 1214.96 909.08 1215.27 926.09 1215.57 943.11 1181.94 938.78 1185.57 954.09 1151.03 927.26"/><polygon class="cls-22" points="1334.56 585.86 1301.02 613.93 1304.09 598.5 1270.63 604.05 1270.32 587.03 1270.02 570.01 1303.65 574.34 1300.03 559.03 1334.56 585.86"/><polygon class="cls-22" points="1301.67 672.01 1329.74 705.55 1314.31 702.48 1319.85 735.94 1302.83 736.25 1285.82 736.56 1290.15 702.92 1274.84 706.55 1301.67 672.01"/><polygon class="cls-22" points="1301.67 782.1 1329.74 815.64 1314.31 812.57 1319.85 846.02 1302.83 846.33 1285.82 846.64 1290.15 813 1274.84 816.63 1301.67 782.1"/><polygon class="cls-22" points="1270.02 927.26 1303.56 899.19 1300.49 914.62 1333.94 909.08 1334.25 926.09 1334.56 943.11 1300.92 938.78 1304.55 954.09 1270.02 927.26"/><polygon class="cls-22" points="921.48 587.1 955.02 559.03 951.95 574.46 985.41 568.91 985.72 585.93 986.02 602.95 952.39 598.62 956.02 613.93 921.48 587.1"/><polygon class="cls-22" points="754.33 352.51 720.79 380.58 723.86 365.15 690.4 370.69 690.1 353.68 689.79 336.65 723.42 340.99 719.8 325.68 754.33 352.51"/><polygon class="cls-22" points="573.36 927.26 606.91 899.19 603.84 914.62 637.29 909.08 637.6 926.09 637.91 943.11 604.27 938.78 607.9 954.09 573.36 927.26"/><polygon class="cls-22" points="920.17 927.26 953.72 899.19 950.64 914.62 984.1 909.08 984.41 926.09 984.72 943.11 951.08 938.78 954.71 954.09 920.17 927.26"/><polygon class="cls-22" points="387.18 846.64 359.12 813.1 374.55 816.17 369 782.71 386.02 782.4 403.04 782.1 398.71 815.73 414.02 812.1 387.18 846.64"/><polygon class="cls-22" points="418.84 926.02 385.3 954.09 388.37 938.66 354.91 944.21 354.61 927.19 354.3 910.17 387.93 914.5 384.31 899.19 418.84 926.02"/><polygon class="cls-22" points="529.03 813.75 495.48 841.82 498.56 826.38 465.1 831.93 464.79 814.91 464.48 797.89 498.12 802.23 494.49 786.92 529.03 813.75"/><polygon class="cls-22" points="642.7 813.75 609.16 841.82 612.23 826.38 578.77 831.93 578.47 814.91 578.16 797.89 611.79 802.23 608.17 786.92 642.7 813.75"/><polygon class="cls-22" points="954.37 507.39 926.3 473.84 941.73 476.92 936.19 443.46 953.21 443.15 970.23 442.84 965.89 476.48 981.2 472.85 954.37 507.39"/><polygon class="cls-22" points="874.87 813.75 841.33 841.82 844.4 826.38 810.94 831.93 810.64 814.91 810.33 797.89 843.96 802.23 840.34 786.92 874.87 813.75"/><polygon class="cls-22" points="1070.54 736.56 1042.48 703.01 1057.91 706.08 1052.36 672.63 1069.38 672.32 1086.4 672.01 1082.07 705.65 1097.38 702.02 1070.54 736.56"/><polygon class="cls-22" points="1102.2 813.75 1068.66 841.82 1071.73 826.38 1038.27 831.93 1037.96 814.91 1037.66 797.89 1071.29 802.23 1067.66 786.92 1102.2 813.75"/><polygon class="cls-22" points="1102.2 926.02 1068.66 954.09 1071.73 938.66 1038.27 944.21 1037.96 927.19 1037.66 910.17 1071.29 914.5 1067.66 899.19 1102.2 926.02"/><polygon class="cls-22" points="954.82 782.1 982.89 815.64 967.45 812.57 973 846.02 955.98 846.33 938.96 846.64 943.3 813 927.99 816.63 954.82 782.1"/><polygon class="cls-16" points="1414.91 839.04 1386.84 805.5 1402.27 808.57 1396.73 775.12 1413.75 774.81 1430.77 774.5 1426.43 808.13 1441.74 804.51 1414.91 839.04"/><polygon class="cls-22" points="611.04 507.39 582.98 473.84 598.41 476.92 592.86 443.46 609.88 443.15 626.9 442.84 622.57 476.48 637.88 472.85 611.04 507.39"/><polygon class="cls-22" points="871.52 474.5 837.97 502.57 841.05 487.13 807.59 492.68 807.28 475.66 806.97 458.64 840.61 462.98 836.98 447.67 871.52 474.5"/><polygon class="cls-22" points="611.04 618.75 582.98 585.21 598.41 588.28 592.86 554.82 609.88 554.52 626.9 554.21 622.57 587.84 637.88 584.22 611.04 618.75"/><polygon class="cls-22" points="648.96 240.86 615.42 268.93 618.49 253.5 585.03 259.04 584.72 242.02 584.42 225 618.05 229.34 614.42 214.03 648.96 240.86"/><polygon class="cls-22" points="758.68 240.86 725.14 268.93 728.21 253.5 694.75 259.04 694.45 242.02 694.14 225 727.77 229.34 724.15 214.03 758.68 240.86"/><polygon class="cls-22" points="868.4 240.86 834.86 268.93 837.93 253.5 804.48 259.04 804.17 242.02 803.86 225 837.5 229.34 833.87 214.03 868.4 240.86"/><polygon class="cls-22" points="982.7 240.86 949.15 268.93 952.23 253.5 918.77 259.04 918.46 242.02 918.15 225 951.79 229.34 948.16 214.03 982.7 240.86"/><polygon class="cls-22" points="1215.57 240.86 1182.03 268.93 1185.1 253.5 1151.64 259.04 1151.34 242.02 1151.03 225 1184.66 229.34 1181.04 214.03 1215.57 240.86"/><polygon class="cls-22" points="1334.56 240.86 1301.02 268.93 1304.09 253.5 1270.63 259.04 1270.32 242.02 1270.02 225 1303.65 229.34 1300.03 214.03 1334.56 240.86"/><polygon class="cls-22" points="1443.55 240.86 1410 268.93 1413.08 253.5 1379.62 259.04 1379.31 242.02 1379 225 1412.64 229.34 1409.01 214.03 1443.55 240.86"/><polygon class="cls-22" points="1552.9 240.86 1519.35 268.93 1522.43 253.5 1488.97 259.04 1488.66 242.02 1488.35 225 1521.99 229.34 1518.36 214.03 1552.9 240.86"/><polygon class="cls-22" points="381.55 618.75 353.49 585.21 368.92 588.28 363.37 554.82 380.39 554.52 397.41 554.21 393.08 587.84 408.39 584.22 381.55 618.75"/><polygon class="cls-22" points="381.55 507.39 353.49 473.84 368.92 476.92 363.37 443.46 380.39 443.15 397.41 442.84 393.08 476.48 408.39 472.85 381.55 507.39"/><polygon class="cls-22" points="381.55 736.56 353.49 703.01 368.92 706.08 363.37 672.63 380.39 672.32 397.41 672.01 393.08 705.65 408.39 702.02 381.55 736.56"/><rect class="cls-1" width="1920" height="1080"/></svg>