<svg xmlns="http://www.w3.org/2000/svg" viewBox="0 0 361.77 225.37"><defs><style>.cls-1{isolation:isolate;}.cls-2,.cls-3{fill:#929497;}.cls-2{mix-blend-mode:multiply;}.cls-4{fill:#3b2314;}.cls-5{fill:#f05b42;}.cls-6{fill:#86328b;}.cls-7{fill:#008f62;}.cls-8{fill:#2d2c2e;}.cls-9{fill:#ffcb29;}.cls-10{fill:#5cb947;}.cls-11{fill:#6d6e70;}.cls-12,.cls-13{fill:#f4f8f7;}.cls-12{stroke:#bcbec0;stroke-miterlimit:10;}.cls-14{fill:#231f20;}.cls-15{fill:#ec1c24;}</style></defs><g class="cls-1"><g id="train_station" data-name="train &amp; station"><path class="cls-2" d="M334,106.46a14,14,0,0,1-10.63-2.8A12.32,12.32,0,0,0,318,79.85c4.93-7.14-2-18.75-10.66-17.75,3.06-15.86,3.93-34.64-7.89-45.64-8.08-7.51-19.87-9.11-30.87-10-5.71-.44-11.73-.71-16.87,1.81s-8.88,8.83-6.61,14.08c-13.41-6.33-31.56,5-31.73,19.85s17.72,26.6,31.27,20.58A24,24,0,0,0,237,79.32,3.86,3.86,0,0,0,240.47,84c12.07,3.33,26.08-4.55,29.51-16.6-.37,4.61-.53,9.84,2.69,13.16s10.7,1.35,9.89-3.2l.65,12,15.94.19c-.42,6.46-.8,13.15,1.52,19.18s8.12,11.25,14.56,10.7c.23,0,3,15.11,13.18,10.44C335.85,126.36,336.65,112.69,334,106.46Z"/><ellipse class="cls-3" cx="325.52" cy="117.06" rx="13.45" ry="13.83"/><ellipse class="cls-3" cx="312.01" cy="104.35" rx="12.18" ry="15.28"/><ellipse class="cls-3" cx="327.74" cy="94.61" rx="12.18" ry="15.28"/><ellipse class="cls-3" cx="299.6" cy="91.51" rx="12.18" ry="15.28"/><ellipse class="cls-3" cx="320.87" cy="73.56" rx="12.18" ry="15.28"/><ellipse class="cls-3" cx="291.02" cy="80.19" rx="13.79" ry="17.3"/><ellipse class="cls-3" cx="268.42" cy="71.11" rx="13.79" ry="17.3"/><ellipse class="cls-3" cx="246.88" cy="69.53" rx="16.61" ry="17.3" transform="translate(41.66 223.37) rotate(-52.59)"/><ellipse class="cls-3" cx="303.15" cy="58.67" rx="16.61" ry="17.3" transform="translate(72.36 263.8) rotate(-52.59)"/><ellipse class="cls-3" cx="274.94" cy="34.88" rx="34.35" ry="35.77" transform="translate(80.19 232.07) rotate(-52.59)"/><ellipse class="cls-3" cx="240.07" cy="41.83" rx="28.88" ry="30.07" transform="translate(60.98 207.1) rotate(-52.59)"/><rect class="cls-4" x="202.71" y="127.85" width="38.16" height="44.35"/><path class="cls-5" d="M187.66,122.44v85.27h57.68V122.44Zm46.22,43.35H210.23V132.48h23.65Z"/><path class="cls-6" d="M276.58,123.88c0-.19.06-.36.06-.54a10.58,10.58,0,0,0-10.58-10.57h-77a10.57,10.57,0,0,0-10.57,10.57c0,.18,0,.35.05.54Z"/><path class="cls-6" d="M285.46,164a9.31,9.31,0,0,1-9.31,9.31h0a9.31,9.31,0,0,1-9.32-9.31V145.73a9.32,9.32,0,0,1,9.32-9.32h0a9.32,9.32,0,0,1,9.31,9.32Z"/><polygon class="cls-6" points="306.96 125.48 315.55 155.58 336.51 155.58 341.35 125.4 306.96 125.48"/><path class="cls-7" d="M361.77,185.14a21.5,21.5,0,0,1-21.5,21.49H245c-11.87,0-7.53-9.62-7.53-21.49V171.52c0-11.87-4.34-21.49,7.53-21.49h95.29a21.5,21.5,0,0,1,21.5,21.49Z"/><rect class="cls-8" x="169.9" y="190.29" width="18.9" height="7.01"/><rect class="cls-9" x="94.42" y="127.25" width="82.18" height="62.66"/><rect class="cls-10" x="94.42" y="189.91" width="82.18" height="19.95"/><path class="cls-8" d="M207.26,194a13.79,13.79,0,1,0,13.63,13.78A13.73,13.73,0,0,0,207.26,194"/><path class="cls-8" d="M243.39,194A13.79,13.79,0,1,0,257,207.82,13.72,13.72,0,0,0,243.39,194"/><path class="cls-11" d="M207.26,225.17a17.35,17.35,0,1,1,17.16-17.35,17.27,17.27,0,0,1-17.16,17.35m0-29.89a12.55,12.55,0,1,0,12.41,12.54,12.49,12.49,0,0,0-12.41-12.54"/><path class="cls-11" d="M243.39,190.48a17.35,17.35,0,1,0,17.16,17.34,17.26,17.26,0,0,0-17.16-17.34m0,29.89a12.55,12.55,0,1,1,12.41-12.55,12.49,12.49,0,0,1-12.41,12.55"/><rect class="cls-11" x="207.26" y="204.05" width="36.14" height="7.54"/><path class="cls-12" d="M211,207.82a3.73,3.73,0,1,1-3.73-3.77,3.75,3.75,0,0,1,3.73,3.77"/><path class="cls-12" d="M247.13,207.82a3.74,3.74,0,1,1-3.74-3.77,3.75,3.75,0,0,1,3.74,3.77"/><path class="cls-8" d="M273.17,205.73a8.53,8.53,0,1,0,8.43,8.52,8.48,8.48,0,0,0-8.43-8.52"/><path class="cls-13" d="M275.48,214.25a2.31,2.31,0,1,1-2.31-2.33,2.33,2.33,0,0,1,2.31,2.33"/><path class="cls-11" d="M273.17,225.17A10.92,10.92,0,1,1,284,214.25a10.88,10.88,0,0,1-10.8,10.92m0-19.09a8.17,8.17,0,1,0,8.08,8.17,8.13,8.13,0,0,0-8.08-8.17"/><path class="cls-8" d="M303,205.73a8.53,8.53,0,1,0,8.44,8.52,8.48,8.48,0,0,0-8.44-8.52"/><path class="cls-13" d="M305.27,214.25a2.31,2.31,0,1,1-2.31-2.33,2.32,2.32,0,0,1,2.31,2.33"/><path class="cls-11" d="M303,225.17a10.92,10.92,0,1,1,10.8-10.92A10.88,10.88,0,0,1,303,225.17m0-19.09a8.17,8.17,0,1,0,8.09,8.17,8.14,8.14,0,0,0-8.09-8.17"/><path class="cls-8" d="M332.46,205.73a8.53,8.53,0,1,0,8.43,8.52,8.49,8.49,0,0,0-8.43-8.52"/><path class="cls-13" d="M334.77,214.25a2.31,2.31,0,1,1-2.31-2.33,2.33,2.33,0,0,1,2.31,2.33"/><path class="cls-11" d="M332.46,225.17a10.92,10.92,0,1,1,10.8-10.92,10.88,10.88,0,0,1-10.8,10.92m0-19.09a8.17,8.17,0,1,0,8.08,8.17,8.14,8.14,0,0,0-8.08-8.17"/><path class="cls-11" d="M153.37,208.7H143.32v.61h10a4.2,4.2,0,0,0,1,2.58l-7.17,7.18.44.43,7.16-7.18a4.14,4.14,0,0,0,2.44,1v10.32h.62V213.35a4.13,4.13,0,0,0,2.66-1.24l7.44,7.45.43-.43-7.47-7.49a4.1,4.1,0,0,0,.79-2.33h10.55v-.61H161.65a4.21,4.21,0,0,0-1-2.27L168,199l-.43-.43L160.2,206a4.13,4.13,0,0,0-2.38-1V194.69h-.62V205a4.13,4.13,0,0,0-2.14.79l-7.15-7.17-.44.43,7.12,7.14A4.16,4.16,0,0,0,153.37,208.7Z"/><path class="cls-8" d="M141.36,209.19A16.15,16.15,0,1,0,157.51,193,16.18,16.18,0,0,0,141.36,209.19Zm3.38,0A12.77,12.77,0,1,1,157.51,222,12.8,12.8,0,0,1,144.74,209.19Z"/><path class="cls-11" d="M108.27,208.7H98.21v.61h10a4.2,4.2,0,0,0,1,2.58l-7.17,7.18.44.43,7.16-7.18a4.11,4.11,0,0,0,2.44,1v10.32h.61V213.35a4.13,4.13,0,0,0,2.67-1.24l7.43,7.45.44-.43-7.47-7.49a4.26,4.26,0,0,0,.79-2.33h10.55v-.61H116.54a4.2,4.2,0,0,0-1-2.27l7.4-7.42-.44-.43L115.1,206a4.16,4.16,0,0,0-2.39-1V194.69h-.61V205a4.1,4.1,0,0,0-2.14.79l-7.15-7.17-.44.43,7.12,7.14A4.16,4.16,0,0,0,108.27,208.7Z"/><path class="cls-8" d="M96.25,209.19A16.16,16.16,0,1,0,112.41,193,16.19,16.19,0,0,0,96.25,209.19Zm3.39,0A12.77,12.77,0,1,1,112.41,222,12.8,12.8,0,0,1,99.64,209.19Z"/><path class="cls-8" d="M136.68,209c0,1.35.54,2.45,1.2,2.45H159c.67,0,1.2-1.1,1.2-2.45h0c0-1.35-.53-2.45-1.2-2.45H137.88c-.66,0-1.2,1.1-1.2,2.45Z"/><path class="cls-8" d="M114,209c0,1.35.54,2.45,1.2,2.45h21.12c.66,0,1.2-1.1,1.2-2.45h0c0-1.35-.54-2.45-1.2-2.45H115.24c-.66,0-1.2,1.1-1.2,2.45Z"/><rect class="cls-8" x="75.48" y="190.29" width="18.9" height="7.01"/><rect class="cls-9" y="127.25" width="82.18" height="62.66"/><rect class="cls-10" y="189.91" width="82.18" height="19.95"/><path class="cls-11" d="M59,208.7H48.9v.61h10a4.2,4.2,0,0,0,1,2.58l-7.17,7.18.44.43,7.16-7.18a4.11,4.11,0,0,0,2.44,1v10.32h.61V213.35a4.13,4.13,0,0,0,2.67-1.24l7.44,7.45.43-.43-7.47-7.49a4.26,4.26,0,0,0,.79-2.33H77.8v-.61H67.23a4.29,4.29,0,0,0-1-2.27l7.4-7.42-.44-.43L65.78,206a4.13,4.13,0,0,0-2.39-1V194.69h-.61V205a4.1,4.1,0,0,0-2.14.79l-7.15-7.17-.44.43,7.12,7.14A4.16,4.16,0,0,0,59,208.7Z"/><path class="cls-8" d="M46.94,209.19A16.15,16.15,0,1,0,63.09,193,16.18,16.18,0,0,0,46.94,209.19Zm3.38,0A12.77,12.77,0,1,1,63.09,222,12.8,12.8,0,0,1,50.32,209.19Z"/><path class="cls-8" d="M13.85,208.7H3.79v.61h10a4.14,4.14,0,0,0,1,2.58l-7.17,7.18.44.43,7.16-7.18a4.11,4.11,0,0,0,2.44,1v10.32h.61V213.35A4.15,4.15,0,0,0,21,212.11l7.43,7.45.44-.43-7.48-7.49a4.19,4.19,0,0,0,.8-2.33H32.7v-.61H22.12a4.14,4.14,0,0,0-1-2.27L28.52,199l-.44-.43L20.68,206a4.16,4.16,0,0,0-2.39-1V194.69h-.61V205a4.1,4.1,0,0,0-2.14.79l-7.15-7.17-.44.43,7.12,7.14A4.16,4.16,0,0,0,13.85,208.7Z"/><path class="cls-8" d="M1.83,209.19A16.16,16.16,0,1,0,18,193,16.19,16.19,0,0,0,1.83,209.19Zm3.39,0A12.77,12.77,0,1,1,18,222,12.79,12.79,0,0,1,5.22,209.19Z"/><path class="cls-8" d="M42.26,209c0,1.35.54,2.45,1.2,2.45H64.58c.66,0,1.2-1.1,1.2-2.45h0c0-1.35-.54-2.45-1.2-2.45H43.46c-.66,0-1.2,1.1-1.2,2.45Z"/><path class="cls-8" d="M19.62,209c0,1.35.53,2.45,1.19,2.45H41.94c.66,0,1.2-1.1,1.2-2.45h0c0-1.35-.54-2.45-1.2-2.45H20.81c-.66,0-1.19,1.1-1.19,2.45Z"/><rect class="cls-4" x="147.15" y="136.41" width="16.84" height="29.38"/><rect class="cls-4" x="127.5" y="136.41" width="16.84" height="29.38"/><rect class="cls-4" x="107.86" y="136.41" width="16.84" height="29.38"/><rect class="cls-4" x="51.96" y="136.41" width="16.84" height="29.38"/><rect class="cls-4" x="32.32" y="136.41" width="16.84" height="29.38"/><rect class="cls-4" x="12.67" y="136.41" width="16.84" height="29.38"/><path class="cls-14" d="M339.84,154.45a8.39,8.39,0,0,0-2.3,2.48c-6.81,10.15-7.06,23.51-4.11,35.37a15.28,15.28,0,0,0,2,5.12c2.62,3.77,8.14,4.77,12.36,3s7.16-5.86,8.61-10.21,1.57-9,1.52-13.61c0-4-.23-8.06-1.77-11.73C354,159.76,346.54,150.23,339.84,154.45Z"/><path class="cls-15" d="M348.09,148.48a4.7,4.7,0,0,0-4.13,2.33,10.8,10.8,0,0,0-1.37,4.74,10.44,10.44,0,0,0,.91,6.28c1.08,1.86,3.5,3.08,5.46,2.2a5.7,5.7,0,0,0,2.73-3.82c1.2-4.17.57-9.81-3.35-11.66"/></g></g></svg>